<?xml version="1.0" encoding="utf-8"?>
<!-- Generator: Adobe Illustrator 19.2.1, SVG Export Plug-In . SVG Version: 6.00 Build 0)  -->
<svg version="1.1" id="main_symbols" xmlns="http://www.w3.org/2000/svg" xmlns:xlink="http://www.w3.org/1999/xlink" x="0px"
	 y="0px" width="52px" height="16px" viewBox="0 0 52 16" style="enable-background:new 0 0 52 16;" xml:space="preserve">
<style type="text/css">
	.st0{fill:#888EAB;}
	.st1{fill:none;stroke:#888EAB;stroke-width:1.3;stroke-linecap:round;stroke-linejoin:round;}
	.st2{fill:#FFFFFF;}
</style>
<title>Fear_Universe_new (1)</title>
<path class="st0" d="M13.3,2C14.2,2,15,2.8,15,3.7v8.6c0,0.9-0.8,1.7-1.7,1.7l0,0H2.7C1.8,14,1,13.2,1,12.3V3.7C1,2.8,1.8,2,2.7,2
	l0,0H13.3 M13.3,1H2.7C1.2,1,0,2.2,0,3.7c0,0,0,0,0,0v8.6C0,13.8,1.2,15,2.7,15c0,0,0,0,0,0h10.6c1.5,0,2.7-1.2,2.7-2.7V3.7
	C16,2.2,14.8,1,13.3,1L13.3,1z"/>
<polygon class="st1" points="10.6,6.2 9.2,7.6 9.2,4.7 6.8,4.7 6.8,7.6 5.4,6.2 4.1,7.6 8,11.6 11.9,7.6 "/>
<path class="st2" d="M45.7,8c-0.3,0.3-0.7,0.3-0.9,0c-0.1-0.1-0.2-0.3-0.2-0.5V5.3h-1.1v2.3c0,0.4-0.3,0.6-0.7,0.6
	c-0.2,0-0.3-0.1-0.5-0.2l-0.9-0.9L41,7.6l3,3l3-3l-0.5-0.5L45.7,8z"/>
<path class="st2" d="M49.3,1H38.7C37.2,1,36,2.2,36,3.7v8.6c0,1.5,1.2,2.7,2.7,2.7h10.6c1.5,0,2.7-1.2,2.7-2.7V3.7
	C52,2.2,50.8,1,49.3,1z M48.4,8.1l-4,4c-0.3,0.3-0.7,0.3-0.9,0c0,0,0,0,0,0l-4-4c-0.3-0.3-0.3-0.7,0-0.9c0,0,0,0,0,0L41,5.7
	c0.3-0.3,0.7-0.3,0.9,0c0,0,0,0,0,0L42.1,6V4.7c0-0.4,0.3-0.7,0.7-0.7l0,0h2.4c0.4,0,0.7,0.3,0.7,0.6c0,0,0,0,0,0V6l0.2-0.2
	c0.3-0.3,0.7-0.3,0.9,0c0,0,0,0,0,0l1.4,1.4C48.7,7.4,48.7,7.8,48.4,8.1z"/>
<path class="st0" d="M27.7,8c-0.3,0.3-0.7,0.3-0.9,0c-0.1-0.1-0.2-0.3-0.2-0.5V5.3h-1.1v2.3c0,0.4-0.3,0.6-0.7,0.6
	c-0.2,0-0.3-0.1-0.5-0.2l-0.9-0.9L23,7.6l3,3l3-3l-0.5-0.5L27.7,8z"/>
<path class="st0" d="M31.3,1H20.7C19.2,1,18,2.2,18,3.7c0,0,0,0,0,0v8.6c0,1.5,1.2,2.7,2.7,2.7c0,0,0,0,0,0h10.6
	c1.5,0,2.7-1.2,2.7-2.7l0,0V3.7C34,2.2,32.8,1,31.3,1L31.3,1z M30.4,8.1l-4,4c-0.3,0.3-0.7,0.3-0.9,0c0,0,0,0,0,0l-4-4
	c-0.3-0.3-0.3-0.7,0-0.9c0,0,0,0,0,0L23,5.7c0.3-0.3,0.7-0.3,0.9,0c0,0,0,0,0,0L24.1,6V4.7c0-0.4,0.3-0.7,0.6-0.7h0h2.4
	c0.4,0,0.6,0.3,0.6,0.7V6l0.2-0.2c0.3-0.3,0.7-0.3,0.9,0c0,0,0,0,0,0l1.4,1.4C30.7,7.4,30.7,7.8,30.4,8.1z"/>
</svg>
