<?xml version="1.0" encoding="utf-8"?>
<!-- Generator: Adobe Illustrator 19.2.1, SVG Export Plug-In . SVG Version: 6.00 Build 0)  -->
<svg version="1.1" id="main_symbols" xmlns="http://www.w3.org/2000/svg" xmlns:xlink="http://www.w3.org/1999/xlink" x="0px"
	 y="0px" width="52px" height="16px" viewBox="0 0 52 16" style="enable-background:new 0 0 52 16;" xml:space="preserve">
<style type="text/css">
	.st0{fill:#888EAB;}
	.st1{fill:#FFFFFF;}
</style>
<title>Fear_Universe_new (1)</title>
<g>
	<path class="st0" d="M13.3,1H2.7C1.2,1,0,2.2,0,3.7v8.6C0,13.8,1.2,15,2.7,15h10.6c1.5,0,2.7-1.2,2.7-2.7V3.7C16,2.2,14.8,1,13.3,1
		z M15,12.3c0,0.9-0.8,1.7-1.7,1.7H2.7C1.8,14,1,13.2,1,12.3V3.7C1,2.8,1.8,2,2.7,2h10.6C14.2,2,15,2.8,15,3.7V12.3z"/>
	<path class="st0" d="M11.5,6h-1.3l0.2-0.2c0.3-0.3,0.3-0.7,0-0.9L9,3.5C8.7,3.2,8.3,3.2,8,3.5l-4,4C4,7.6,3.9,7.7,3.9,7.9
		S4,8.2,4.1,8.4l4,4c0.1,0.1,0.3,0.2,0.5,0.2s0.3-0.1,0.5-0.2l1.4-1.4c0.3-0.3,0.3-0.7,0-0.9l-0.2-0.2h1.3c0.4,0,0.6-0.3,0.6-0.6
		V6.7C12.1,6.3,11.8,6,11.5,6z M10.8,8.5H8.6c-0.3,0-0.5,0.2-0.6,0.4c-0.1,0.2,0,0.5,0.1,0.7L9,10.5l-0.5,0.5l-3-3l3-3L9,5.3
		L8.1,6.2C7.9,6.4,7.8,6.7,7.9,6.9c0.1,0.2,0.3,0.4,0.6,0.4h2.3V8.5z"/>
</g>
<g>
	<path class="st0" d="M25.9,6.9c-0.1-0.2,0-0.5,0.1-0.7L27,5.3l-0.5-0.5l-3,3l3,3l0.5-0.5l-0.9-0.9c-0.2-0.2-0.2-0.5-0.1-0.7
		c0.1-0.2,0.3-0.4,0.6-0.4h2.3V7.3h-2.3C26.3,7.3,26.1,7.2,25.9,6.9z"/>
	<path class="st0" d="M31.3,1H20.7C19.2,1,18,2.2,18,3.7v8.6c0,1.5,1.2,2.7,2.7,2.7h10.6c1.5,0,2.7-1.2,2.7-2.7V3.7
		C34,2.2,32.8,1,31.3,1z M30.1,9.1c0,0.4-0.3,0.6-0.6,0.6h-1.3l0.2,0.2c0.3,0.3,0.3,0.7,0,0.9L27,12.3c-0.1,0.1-0.3,0.2-0.5,0.2
		s-0.3-0.1-0.5-0.2l-4-4c-0.1-0.1-0.2-0.3-0.2-0.5s0.1-0.3,0.2-0.5l4-4c0.3-0.3,0.7-0.3,0.9,0l1.4,1.4c0.3,0.3,0.3,0.7,0,0.9L28.1,6
		h1.3c0.4,0,0.6,0.3,0.6,0.6V9.1z"/>
</g>
<g>
	<path class="st1" d="M43.9,6.9c-0.1-0.2,0-0.5,0.1-0.7L45,5.3l-0.5-0.5l-3,3l3,3l0.5-0.5l-0.9-0.9c-0.2-0.2-0.2-0.5-0.1-0.7
		c0.1-0.2,0.3-0.4,0.6-0.4h2.3V7.3h-2.3C44.3,7.3,44.1,7.2,43.9,6.9z"/>
	<path class="st1" d="M49.3,1H38.7C37.2,1,36,2.2,36,3.7v8.6c0,1.5,1.2,2.7,2.7,2.7h10.6c1.5,0,2.7-1.2,2.7-2.7V3.7
		C52,2.2,50.8,1,49.3,1z M48.1,9.1c0,0.4-0.3,0.6-0.6,0.6h-1.3l0.2,0.2c0.3,0.3,0.3,0.7,0,0.9L45,12.3c-0.1,0.1-0.3,0.2-0.5,0.2
		s-0.3-0.1-0.5-0.2l-4-4c-0.1-0.1-0.2-0.3-0.2-0.5s0.1-0.3,0.2-0.5l4-4c0.3-0.3,0.7-0.3,0.9,0l1.4,1.4c0.3,0.3,0.3,0.7,0,0.9L46.1,6
		h1.3c0.4,0,0.6,0.3,0.6,0.6V9.1z"/>
</g>
</svg>
