<?xml version="1.0" encoding="utf-8"?>
<!-- Generator: Adobe Illustrator 19.2.1, SVG Export Plug-In . SVG Version: 6.00 Build 0)  -->
<svg version="1.1" id="main_symbols" xmlns="http://www.w3.org/2000/svg" xmlns:xlink="http://www.w3.org/1999/xlink" x="0px"
	 y="0px" width="52px" height="16px" viewBox="0 0 52 16" style="enable-background:new 0 0 52 16;" xml:space="preserve">
<style type="text/css">
	.st0{fill:#FFFFFF;}
	.st1{fill:#888EAB;}
</style>
<title>Fear_Universe_new (1)</title>
<path class="st0" d="M51.4,11.2l-5.2-9c-0.7-1.2-2.2-1.6-3.4-0.9c-0.4,0.2-0.7,0.5-0.9,0.9l-5.2,9c-0.7,1.2-0.3,2.7,0.9,3.4
	c0.4,0.2,0.8,0.3,1.2,0.3h10.4c1.4,0,2.5-1.1,2.5-2.5C51.7,12,51.6,11.6,51.4,11.2z M43.4,4.5h1.2c0.2,0,0.4,0.2,0.4,0.4
	c0,0,0,0,0,0l-0.5,4.3h-1L43,4.9C43,4.7,43.1,4.5,43.4,4.5C43.4,4.5,43.4,4.5,43.4,4.5L43.4,4.5z M44,12.6c-0.6,0-1.1-0.5-1.1-1.1
	c0-0.6,0.5-1.1,1.1-1.1c0.6,0,1.1,0.5,1.1,1.1C45.1,12.1,44.6,12.6,44,12.6z"/>
<path class="st1" d="M7.4,4.5C7.2,4.5,7,4.7,7,4.9c0,0,0,0,0,0l0.5,4.3h1L9,4.9c0-0.2-0.1-0.4-0.4-0.4c0,0,0,0,0,0
	C8.6,4.5,7.4,4.5,7.4,4.5z"/>
<path class="st1" d="M8,2c0.5,0,1,0.3,1.3,0.8l5.2,9c0.4,0.7,0.1,1.7-0.6,2.1c-0.2,0.1-0.5,0.2-0.7,0.2H2.8c-0.8,0-1.5-0.7-1.5-1.5
	c0-0.3,0.1-0.5,0.2-0.7l5.2-9C7,2.3,7.5,2,8,2 M8,1C7.1,1,6.3,1.5,5.8,2.3l-5.2,9c-0.7,1.2-0.2,2.8,1,3.4C2,14.9,2.4,15,2.8,15h10.4
	c1.4,0,2.5-1.1,2.5-2.5c0-0.4-0.1-0.9-0.3-1.2l-5.2-9C9.7,1.5,8.9,1,8,1L8,1z"/>
<path class="st1" d="M8,10.5L8,10.5c-0.6-0.1-1.1,0.4-1.2,1c-0.1,0.6,0.4,1.1,1,1.2c0.1,0,0.1,0,0.2,0l0,0c0.6,0.1,1.1-0.4,1.2-1
	c0.1-0.6-0.4-1.1-1-1.2C8.1,10.5,8.1,10.5,8,10.5C8,10.5,8,10.5,8,10.5z"/>
<path class="st1" d="M33.4,11.2l-5.2-9c-0.7-1.2-2.2-1.6-3.4-0.9c-0.4,0.2-0.7,0.5-0.9,0.9l-5.2,9c-0.7,1.2-0.3,2.7,0.9,3.4
	c0.4,0.2,0.8,0.3,1.2,0.3h10.4c1.4,0,2.5-1.1,2.5-2.5C33.7,12,33.6,11.6,33.4,11.2z M25.4,4.5h1.2c0.2,0,0.4,0.2,0.4,0.4
	c0,0,0,0,0,0l-0.5,4.3h-1L25,4.9C25,4.7,25.1,4.5,25.4,4.5C25.4,4.5,25.4,4.5,25.4,4.5L25.4,4.5z M26,12.6c-0.6,0-1.1-0.5-1.1-1.1
	c0-0.6,0.5-1.1,1.1-1.1c0.6,0,1.1,0.5,1.1,1.1C27.1,12.1,26.6,12.6,26,12.6z"/>
</svg>
