<?xml version="1.0" encoding="utf-8"?>
<!-- Generator: Adobe Illustrator 19.2.1, SVG Export Plug-In . SVG Version: 6.00 Build 0)  -->
<svg version="1.1" id="main_symbols" xmlns="http://www.w3.org/2000/svg" xmlns:xlink="http://www.w3.org/1999/xlink" x="0px"
	 y="0px" width="52px" height="16px" viewBox="0 0 52 16" style="enable-background:new 0 0 52 16;" xml:space="preserve">
<style type="text/css">
	.st0{fill:#FFFFFF;}
	.st1{fill:#888EAB;}
</style>
<title>Fear_Universe_new (1)</title>
<g id="zxZU0P.tif">
	<path class="st0" d="M44.5,1h-1h-0.1c-2,0.1-3.8,1.1-5,2.6C37.2,5,36.7,6.9,37,8.7c0.1,1,0.5,1.9,1,2.8c0.2,0.2,0.2,0.5,0.2,0.8
		c-0.2,0.6-0.3,1.2-0.5,1.8L37.5,15l0.2-0.1l2.7-1c0.3-0.1,0.6-0.1,0.9,0c1.8,0.7,3.7,0.7,5.5,0c2.2-0.7,3.8-2.5,4.3-4.7
		c0.1-0.3,0.1-0.7,0.2-1V7.3c0-0.2-0.1-0.4-0.1-0.7c-0.5-2.8-2.7-4.9-5.4-5.5C45.2,1.1,44.9,1.1,44.5,1z M46.2,8
		c0-0.6,0.5-1.1,1.1-1.1c0.6,0,1.1,0.5,1.1,1.1c0,0.6-0.5,1.1-1.1,1.1c0,0,0,0,0,0C46.7,9.1,46.2,8.6,46.2,8C46.2,8,46.2,8,46.2,8
		L46.2,8z M44,6.9c0.6,0,1.1,0.5,1.1,1.1c0,0.6-0.5,1.1-1.1,1.1c-0.6,0-1.1-0.5-1.1-1.1C42.9,7.4,43.4,6.9,44,6.9
		C44,6.9,44,6.9,44,6.9z M40.7,6.9c0.6,0,1.1,0.5,1.1,1.1c0,0.6-0.5,1.1-1.1,1.1c-0.6,0-1.1-0.5-1.1-1.1C39.6,7.4,40.1,6.9,40.7,6.9
		z"/>
</g>
<path class="st1" d="M8.4,2h0.3c0.2,0,0.5,0.1,0.7,0.1c2.3,0.5,4.2,2.3,4.6,4.7c0,0.1,0,0.3,0.1,0.4v0.1v0.8v0.3
	c0,0.2,0,0.4-0.1,0.6c-0.4,1.9-1.8,3.5-3.7,4.1c-0.7,0.3-1.5,0.4-2.3,0.4c-0.8,0-1.7-0.2-2.4-0.5c-0.3-0.1-0.5-0.1-0.8-0.1
	c-0.3,0-0.5,0.1-0.8,0.1l-1.1,0.4C3,13.1,3,12.8,3.1,12.5c0.2-0.6,0.1-1.2-0.3-1.6C2.4,10.2,2,9.4,1.9,8.6C1.7,7,2.1,5.5,3.1,4.3
	C4.2,2.9,5.8,2.1,7.5,2h0.2H8.4 M8.5,1h-1H7.4c-2,0.1-3.8,1.1-5,2.6C1.2,5,0.6,6.9,0.9,8.7c0.1,1,0.5,1.9,1.1,2.7
	c0.2,0.2,0.2,0.5,0.2,0.8c-0.2,0.6-0.3,1.2-0.5,1.8L1.5,15l0.2-0.1l2.7-1c0.1-0.1,0.3-0.1,0.4-0.1c0.2,0,0.3,0.1,0.4,0.1
	C6.1,14.3,7,14.5,8,14.5c0.9,0,1.8-0.2,2.7-0.5c2.2-0.7,3.8-2.5,4.3-4.8c0.1-0.3,0.1-0.7,0.2-1V7.3c0-0.2-0.1-0.4-0.1-0.7
	c-0.5-2.8-2.7-4.9-5.5-5.5C9.2,1.1,8.8,1.1,8.5,1L8.5,1z"/>
<path class="st1" d="M11.3,6.9c-0.6-0.1-1.1,0.4-1.2,1c-0.1,0.6,0.4,1.1,1,1.2c0.1,0,0.1,0,0.2,0l0,0c0.6,0.1,1.1-0.4,1.2-1
	c0.1-0.6-0.4-1.1-1-1.2C11.4,6.9,11.4,6.9,11.3,6.9L11.3,6.9z"/>
<path class="st1" d="M8,6.9L8,6.9c-0.6-0.1-1.1,0.4-1.2,1C6.8,8.5,7.2,9,7.8,9.1c0.1,0,0.1,0,0.2,0l0,0c0.6,0.1,1.1-0.4,1.2-1
	c0.1-0.6-0.4-1.1-1-1.2C8.1,6.9,8.1,6.9,8,6.9L8,6.9z"/>
<path class="st1" d="M4.7,6.9L4.7,6.9c-0.6-0.1-1.1,0.4-1.2,1C3.5,8.5,3.9,9,4.5,9.1c0.1,0,0.1,0,0.2,0l0,0c0.6,0.1,1.1-0.4,1.2-1
	c0.1-0.6-0.4-1.1-1-1.2C4.8,6.9,4.8,6.9,4.7,6.9L4.7,6.9z"/>
<g id="zxZU0P.tif-2">
	<path class="st1" d="M26.5,1h-1h-0.1c-2,0.1-3.8,1.1-5,2.6C19.2,5,18.7,6.9,19,8.7c0.1,1,0.5,1.9,1,2.8c0.2,0.2,0.2,0.5,0.1,0.8
		c-0.2,0.6-0.3,1.2-0.5,1.8L19.5,15l0.2-0.1l2.7-1c0.3-0.1,0.6-0.1,0.9,0c1.8,0.7,3.7,0.7,5.5,0c2.2-0.7,3.8-2.5,4.3-4.7
		c0.1-0.3,0.1-0.7,0.2-1V7.3c0-0.2-0.1-0.4-0.1-0.7c-0.5-2.8-2.7-4.9-5.4-5.5C27.2,1.1,26.9,1.1,26.5,1z M28.2,8
		c0-0.6,0.5-1.1,1.1-1.1c0.6,0,1.1,0.5,1.1,1.1s-0.5,1.1-1.1,1.1c0,0,0,0,0,0C28.7,9.1,28.2,8.6,28.2,8C28.2,8,28.2,8,28.2,8L28.2,8
		z M26,6.9c0.6,0,1.1,0.5,1.1,1.1S26.6,9.1,26,9.1c-0.6,0-1.1-0.5-1.1-1.1C24.9,7.4,25.4,6.9,26,6.9C26,6.9,26,6.9,26,6.9z
		 M22.7,6.9c0.6,0,1.1,0.5,1.1,1.1c0,0.6-0.5,1.1-1.1,1.1c-0.6,0-1.1-0.5-1.1-1.1C21.6,7.4,22.1,6.9,22.7,6.9z"/>
</g>
</svg>
