<?xml version="1.0" encoding="utf-8"?>
<!-- Generator: Adobe Illustrator 19.2.1, SVG Export Plug-In . SVG Version: 6.00 Build 0)  -->
<svg version="1.1" id="main_symbols" xmlns="http://www.w3.org/2000/svg" xmlns:xlink="http://www.w3.org/1999/xlink" x="0px"
	 y="0px" width="52px" height="16px" viewBox="0 0 52 16" style="enable-background:new 0 0 52 16;" xml:space="preserve">
<style type="text/css">
	.st0{fill:#888EAB;}
	.st1{fill:none;stroke:#888EAB;stroke-width:1.3;stroke-linecap:round;stroke-linejoin:round;}
	.st2{fill:none;stroke:#888EAB;stroke-width:1.1;stroke-linecap:round;stroke-linejoin:round;}
	.st3{fill:#FFFFFF;}
</style>
<title>Fear_Universe_new (1)</title>
<path class="st0" d="M13.3,2C14.2,2,15,2.8,15,3.7v8.6c0,0.9-0.8,1.7-1.7,1.7l0,0H2.7C1.8,14,1,13.2,1,12.3V3.7C1,2.8,1.8,2,2.7,2
	l0,0H13.3 M13.3,1H2.7C1.2,1,0,2.2,0,3.7c0,0,0,0,0,0v8.6C0,13.8,1.2,15,2.7,15c0,0,0,0,0,0h10.6c1.5,0,2.7-1.2,2.7-2.7V3.7
	C16,2.2,14.8,1,13.3,1L13.3,1z"/>
<line class="st1" x1="8.9" y1="10.3" x2="12.1" y2="7.2"/>
<line class="st1" x1="5.8" y1="7.2" x2="9" y2="4.1"/>
<line class="st1" x1="7.3" y1="8.7" x2="10.5" y2="5.6"/>
<line class="st1" x1="9" y1="4.1" x2="12.1" y2="7.2"/>
<polygon class="st2" points="7.5,11.8 4.3,11.8 4.3,8.7 "/>
<path class="st3" d="M49.3,1H38.7C37.2,1,36,2.2,36,3.7v8.6c0,1.5,1.2,2.7,2.7,2.7h10.6c1.5,0,2.7-1.2,2.7-2.7V3.7
	C52,2.2,50.8,1,49.3,1z M43.5,12.3h-3.1c-0.3,0-0.5-0.2-0.5-0.6V8.7c0-0.3,0.2-0.6,0.5-0.6c0.1,0,0.3,0.1,0.4,0.2l3,3
	c0.3,0.1,0.4,0.5,0.3,0.7C43.9,12.2,43.7,12.3,43.5,12.3z M48.7,7.4c0,0.1-0.1,0.2-0.1,0.2l-3.2,3.2c-0.3,0.3-0.7,0.3-0.9,0
	s-0.3-0.7,0-0.9l2.7-2.7l-0.7-0.7l-2.7,2.7c-0.3,0.3-0.7,0.3-0.9,0s-0.3-0.7,0-0.9l0,0l2.7-2.7L45,5l-2.7,2.7
	c-0.3,0.3-0.7,0.3-0.9,0s-0.3-0.7,0-0.9l3.2-3.2c0.3-0.3,0.7-0.3,0.9,0c0,0,0,0,0,0l3.1,3.1C48.7,6.9,48.8,7.2,48.7,7.4z"/>
<polygon class="st3" points="40.9,11.2 42.1,11.2 40.9,10 "/>
<path class="st0" d="M31.3,1H20.7C19.2,1,18,2.2,18,3.7c0,0,0,0,0,0v8.6c0,1.5,1.2,2.7,2.7,2.7c0,0,0,0,0,0h10.6
	c1.5,0,2.7-1.2,2.7-2.7l0,0V3.7C34,2.2,32.8,1,31.3,1L31.3,1z M25.5,12.3h-3.1c-0.3,0-0.5-0.2-0.5-0.6V8.7c0-0.3,0.2-0.6,0.5-0.6
	c0.1,0,0.3,0.1,0.4,0.2l3,3c0.3,0.1,0.4,0.5,0.3,0.7C25.9,12.2,25.7,12.3,25.5,12.3z M30.7,7.4c0,0.1-0.1,0.2-0.1,0.2l-3.1,3.2
	c-0.3,0.3-0.7,0.3-0.9,0s-0.3-0.7,0-0.9l2.7-2.7l-0.7-0.7l-2.7,2.7c-0.3,0.3-0.7,0.3-0.9,0s-0.3-0.7,0-0.9l2.7-2.7L27,5l-2.7,2.7
	c-0.3,0.3-0.7,0.3-0.9,0s-0.3-0.7,0-0.9l0,0l3.1-3.2c0.3-0.3,0.7-0.3,0.9,0c0,0,0,0,0,0l3.1,3.1C30.7,6.9,30.8,7.2,30.7,7.4z"/>
<polygon class="st0" points="22.9,11.2 24.1,11.2 22.9,10 "/>
</svg>
