<?xml version="1.0" encoding="utf-8"?>
<!-- Generator: Adobe Illustrator 19.2.1, SVG Export Plug-In . SVG Version: 6.00 Build 0)  -->
<svg version="1.1" id="main_symbols" xmlns="http://www.w3.org/2000/svg" xmlns:xlink="http://www.w3.org/1999/xlink" x="0px"
	 y="0px" width="52px" height="16px" viewBox="0 0 52 16" style="enable-background:new 0 0 52 16;" xml:space="preserve">
<style type="text/css">
	.st0{fill:#FFFFFF;}
	.st1{fill:#888EAB;}
	.st2{fill:none;stroke:#888EAB;stroke-width:1.5;stroke-linecap:round;stroke-linejoin:round;}
</style>
<title>Fear_Universe_new (1)</title>
<path class="st0" d="M49.3,1H38.7C37.2,1,36,2.2,36,3.7v8.6c0,1.5,1.2,2.7,2.7,2.7h10.6c1.5,0,2.7-1.2,2.7-2.7V3.7
	C52,2.2,50.8,1,49.3,1z M47,11.8h-6c-0.4,0-0.8-0.3-0.8-0.8s0.3-0.8,0.8-0.8h6c0.4,0,0.8,0.3,0.8,0.8S47.4,11.8,47,11.8z M47,8.8h-6
	c-0.4,0-0.8-0.3-0.8-0.8c0-0.4,0.3-0.8,0.8-0.8h6c0.4,0,0.8,0.3,0.8,0.8C47.8,8.4,47.4,8.8,47,8.8z M47,5.9h-6
	c-0.4,0-0.8-0.3-0.8-0.8s0.3-0.8,0.8-0.8h6c0.4,0,0.8,0.3,0.8,0.8S47.4,5.9,47,5.9z"/>
<path class="st1" d="M13.3,2C14.2,2,15,2.8,15,3.7v8.6c0,0.9-0.8,1.7-1.7,1.7l0,0H2.7C1.8,14,1,13.2,1,12.3V3.7C1,2.8,1.8,2,2.7,2
	l0,0H13.3 M13.3,1H2.7C1.2,1,0,2.2,0,3.7c0,0,0,0,0,0v8.6C0,13.8,1.2,15,2.7,15c0,0,0,0,0,0h10.6c1.5,0,2.7-1.2,2.7-2.7V3.7
	C16,2.2,14.8,1,13.3,1L13.3,1z"/>
<line class="st2" x1="5" y1="11.1" x2="11" y2="11.1"/>
<line class="st2" x1="5" y1="5.1" x2="11" y2="5.1"/>
<line class="st2" x1="5" y1="8" x2="11" y2="8"/>
<path class="st1" d="M31.3,1H20.7C19.2,1,18,2.2,18,3.7c0,0,0,0,0,0v8.6c0,1.5,1.2,2.7,2.7,2.7c0,0,0,0,0,0h10.6
	c1.5,0,2.7-1.2,2.7-2.7l0,0V3.7C34,2.2,32.8,1,31.3,1L31.3,1z M29,11.8h-6c-0.4,0-0.8-0.3-0.8-0.8s0.3-0.8,0.8-0.8h6
	c0.4,0,0.8,0.3,0.8,0.8S29.4,11.8,29,11.8z M29,8.8h-6c-0.4,0-0.8-0.3-0.8-0.8c0-0.4,0.3-0.8,0.8-0.8h6c0.4,0,0.8,0.3,0.8,0.8
	C29.8,8.4,29.4,8.8,29,8.8z M29,5.9h-6c-0.4,0-0.8-0.3-0.8-0.8s0.3-0.8,0.8-0.8h6c0.4,0,0.8,0.3,0.8,0.8S29.4,5.9,29,5.9z"/>
</svg>
