<?xml version="1.0" encoding="utf-8"?>
<!-- Generator: Adobe Illustrator 19.2.1, SVG Export Plug-In . SVG Version: 6.00 Build 0)  -->
<svg version="1.1" id="main_symbols" xmlns="http://www.w3.org/2000/svg" xmlns:xlink="http://www.w3.org/1999/xlink" x="0px"
	 y="0px" width="52px" height="16px" viewBox="0 0 52 16" style="enable-background:new 0 0 52 16;" xml:space="preserve">
<style type="text/css">
	.st0{fill:#888EAB;}
	.st1{fill:#FFFFFF;}
</style>
<title>Fear_Universe_new (1)</title>
<path class="st0" d="M11.9,7L8.6,4.1v1.7C6,5.8,4.1,7.2,4.1,9.2c0.1,1.2,0.8,2.2,1.8,2.7c-0.4-0.6-0.5-1.3-0.3-2
	c0.3-0.9,1.3-1.6,3-1.6V10L11.9,7z"/>
<path class="st0" d="M13.3,2C14.2,2,15,2.8,15,3.7v8.6c0,0.9-0.8,1.7-1.7,1.7l0,0H2.7C1.8,14,1,13.2,1,12.3V3.7C1,2.8,1.8,2,2.7,2
	l0,0H13.3 M13.3,1H2.7C1.2,1,0,2.2,0,3.7c0,0,0,0,0,0v8.6C0,13.8,1.2,15,2.7,15c0,0,0,0,0,0h10.6c1.5,0,2.7-1.2,2.7-2.7V3.7
	C16,2.2,14.8,1,13.3,1L13.3,1z"/>
<path class="st0" d="M31.3,1H20.7C19.2,1,18,2.2,18,3.7c0,0,0,0,0,0v8.6c0,1.5,1.2,2.7,2.7,2.7c0,0,0,0,0,0h10.6
	c1.5,0,2.7-1.2,2.7-2.7l0,0V3.7C34,2.2,32.8,1,31.3,1L31.3,1z M26.6,10V8.3c-1.7,0-2.7,0.7-3,1.6c-0.2,0.7-0.1,1.4,0.3,2
	c-1.1-0.5-1.8-1.6-1.8-2.7c0-2,1.9-3.3,4.4-3.3V4.1L29.9,7L26.6,10z"/>
<path class="st1" d="M49.3,1H38.7C37.2,1,36,2.2,36,3.7v8.6c0,1.5,1.2,2.7,2.7,2.7h10.6c1.5,0,2.7-1.2,2.7-2.7V3.7
	C52,2.2,50.8,1,49.3,1z M44.6,10V8.3c-1.7,0-2.7,0.7-3,1.6c-0.2,0.7-0.1,1.4,0.3,2c-1.1-0.5-1.8-1.6-1.8-2.7c0-2,1.9-3.3,4.4-3.3
	V4.1L47.9,7L44.6,10z"/>
</svg>
