<svg version="1.1" xmlns="http://www.w3.org/2000/svg" xmlns:xlink="http://www.w3.org/1999/xlink" x="0px" y="0px" width="90px" height="90px" viewBox="0 0 90 90" style="enable-background:new 0 0 90 90;" xml:space="preserve">
	<path class="keep-path-shape" d="M44.8,87.2C43.5,86.6,15.9,73,12.1,53.8c-1.8-9-2.6-24-2.6-44.4c0.1-0.6,0.4-1.2,1-1.5c1.4-0.8,2.7-1.7,4.1-2.5l0.3-0.2 c1.3-0.8,2.5-1.5,3.8-2.3l0.1,0l0,0c0.3-0.2,0.5-0.3,0.7-0.3c0.3,0,0.7,0.2,0.9,0.4c0,0,0.1,0.2,0.1,0.2l0,0c2.7,3.4,6.2,5,11,5 l26.3,0l0.4,0c4.9,0,8.4-1.6,11.1-5l0.1-0.1c0.2-0.3,0.6-0.5,1-0.5c0.2,0,0.4,0.1,0.6,0.2c0,0,0.1,0.1,0.1,0.1l0.1,0 c1.3,0.8,2.7,1.6,4,2.4c1.4,0.8,2.8,1.7,4.2,2.5c0.5,0.3,0.9,0.9,1,1.5c0.1,20.5-0.8,35.4-2.6,44.4C74,72.9,46,86.6,44.8,87.2z"/>
	<path class="keep-path-inshape" d="M44.8,80.5C38.1,76.7,20.6,65.9,18,52.7c-1.6-8.3-2.5-22-2.5-40.8c0.7-0.4,2.4-1.4,2.4-1.4c0.3-0.2,0.5-0.3,0.8-0.5 c3.5,2.8,7.8,4.3,12.8,4.3l26.3,0l0.4,0c5.2,0,9.5-1.4,13-4.3c0.3,0.2,0.7,0.4,1,0.6c0.8,0.5,1.5,0.9,2.3,1.3 c0,18.8-0.9,32.5-2.5,40.8C69.3,65.8,51.6,76.7,44.8,80.5z"/>
</svg>
