<svg class="svg" xmlns="http://www.w3.org/2000/svg" width="90" height="90" viewBox="0 0 90 90"><path d="M36.265,87l-0.43-.209c-1.2-.581-29.32-14.443-33.191-34.107C0.857,43.6-.019,28.573.039,8A3.1,3.1,0,0,1,1.485,5.715C2.877,4.841,4.285,4,5.693,3.158,7.009,2.371,8.325,1.585,9.626.772a2.129,2.129,0,0,1,3.148.506c2.551,3.216,5.9,4.678,10.616,4.6h25.9c4.8,0.093,8.192-1.383,10.778-4.6a2.153,2.153,0,0,1,3.163-.5c1.317,0.812,2.649,1.6,3.982,2.386C68.635,4,70.06,4.838,71.468,5.712A3.121,3.121,0,0,1,72.931,8h0c0.058,20.574-.828,35.607-2.637,44.68C66.375,72.349,37.906,86.21,36.7,86.791Z" transform="translate(8.516 1.344)"/></svg>
