<svg id="shield_2" xmlns="http://www.w3.org/2000/svg" width="90" height="90" viewBox="0 0 90 90">
  <defs>
    <style>
      .cls-1, .cls-2, .cls-3 {
        fill: #727585;
        fill-rule: evenodd;
      }

      .cls-2 {
        opacity: 0.15;
      }

      .cls-3 {
        opacity: 0.4;
      }
    </style>
  </defs>
  <path id="border" class="cls-1" d="M35.81,85.985a3.7,3.7,0,0,1-1.049-.474l0.457-.893c0.456,0.237.723,0.369,0.76,0.386l-0.137.3,0.268,0.553-0.118.058A0.323,0.323,0,0,1,35.81,85.985Zm2.1-1.06-0.467-.887c0.268-.143.561-0.3,0.876-0.476L38.8,84.443Q38.318,84.707,37.911,84.925Zm-4.925-.371q-0.413-.228-0.881-0.494l0.491-.875c0.306,0.174.6,0.337,0.867,0.486Zm7.565-1.1-0.5-.871q0.416-.24.86-0.5l0.5,0.867C41.121,83.123,40.831,83.292,40.552,83.454Zm-10.189-.405-0.86-.518,0.514-.861,0.856,0.516Zm12.781-1.142-0.522-.856,0.846-.528L44,81.375Zm-15.349-.439q-0.416-.265-0.847-0.545l0.541-.844q0.425,0.277.837,0.539Zm17.9-1.182-0.545-.842,0.831-.551,0.553,0.836ZM25.272,79.81l-0.829-.568,0.565-.828,0.822,0.564Zm22.912-1.22-0.569-.826q0.4-.281.811-0.575L49,78.008C48.729,78.205,48.457,78.4,48.184,78.591ZM22.8,78.079c-0.271-.2-0.54-0.393-0.813-0.595l0.59-.81q0.4,0.3.8,0.589Zm27.828-1.263-0.6-.8q0.394-.3.792-0.6l0.606,0.8Q51.03,76.516,50.629,76.816Zm-30.246-.549-0.791-.622,0.617-.789,0.783,0.616Zm32.63-1.307-0.625-.783,0.771-.631,0.633,0.777Zm-34.981-.588c-0.258-.215-0.514-0.433-0.771-0.653l0.648-.763q0.377,0.325.758,0.642Zm37.3-1.355-0.654-.76c0.249-.217.5-0.437,0.745-0.659l0.664,0.75Q55.705,72.686,55.327,73.017Zm-39.576-.632q-0.374-.338-0.743-0.685l0.677-.736q0.364,0.34.731,0.673Zm41.812-1.408-0.685-.73q0.358-.341.713-0.69l0.7,0.718Q57.927,70.63,57.564,70.977ZM13.557,70.3c-0.241-.237-0.477-0.477-0.713-0.719l0.713-.7c0.23,0.236.463,0.472,0.7,0.7ZM59.7,68.836l-0.718-.695q0.342-.36.678-0.727L60.394,68.1Q60.052,68.47,59.7,68.836Zm-48.241-.73q-0.342-.375-0.674-0.757l0.748-.663c0.218,0.249.438,0.5,0.66,0.742Zm50.274-1.53-0.757-.651c0.214-.254.425-0.509,0.637-0.765L62.381,65.8Q62.061,66.192,61.735,66.577ZM9.485,65.8C9.274,65.536,9.065,65.271,8.86,65l0.789-.614q0.3,0.391.611,0.776Zm54.142-1.6-0.8-.6c0.2-.266.39-0.533,0.581-0.8l0.812,0.583Q63.93,63.792,63.627,64.2ZM7.663,63.367c-0.193-.277-0.384-0.557-0.57-0.839l0.829-.557q0.273,0.414.556,0.819ZM65.351,61.69l-0.841-.54c0.177-.28.349-0.561,0.517-0.844l0.855,0.516Q65.623,61.258,65.351,61.69ZM6.019,60.8q-0.259-.44-0.5-0.888l0.874-.483q0.235,0.433.486,0.861Zm60.846-1.763L65.98,58.58q0.226-.44.436-0.884l0.9,0.432C67.171,58.432,67.021,58.737,66.866,59.041ZM4.6,58.1q-0.215-.463-0.415-0.931l0.917-.4q0.191,0.453.4,0.9Zm63.526-1.844-0.929-.367c0.12-.307.234-0.615,0.34-0.925l0.942,0.33C68.365,55.612,68.247,55.933,68.124,56.252ZM3.455,55.257q-0.165-.484-0.311-0.975L4.1,53.994q0.14,0.473.3,0.938Zm65.612-1.929L68.1,53.075q0.123-.475.224-0.955L69.3,52.329Q69.2,52.832,69.067,53.328ZM2.644,52.3l-0.192-1,0.979-.184,0.188,0.974Zm67.033-1.964L68.7,50.163c0.056-.324.111-0.652,0.164-0.985l0.985,0.159Q69.762,49.845,69.677,50.336ZM2.111,49.308l-0.152-1,0.985-.149L3.1,49.151Zm68.03-1.969L69.154,47.2q0.069-.49.132-0.991l0.989,0.127C70.233,46.673,70.187,47.008,70.141,47.339ZM1.683,46.308l-0.123-1,0.989-.12,0.123,0.994Zm68.836-1.974-0.991-.112,0.109-1,0.991,0.106ZM1.336,43.3l-0.1-1,0.991-.1,0.1,1Zm69.493-1.976-0.993-.094,0.091-1,0.993,0.09ZM1.048,40.289l-0.084-1L1.957,39.2l0.084,1Zm70.037-1.978-0.994-.077,0.075-1,0.995,0.073ZM0.811,37.277L0.741,36.27l1-.067,0.07,1ZM71.3,35.3L70.3,35.232l0.062-1,1,0.061ZM0.614,34.261L0.556,33.255,1.551,33.2l0.057,1Zm70.86-1.978-1-.053,0.051-1,1,0.049ZM0.453,31.242L0.405,30.235,1.4,30.188l0.048,1Zm71.165-1.975-1-.043,0.041-1,1,0.039Zm-71.3-1.045-0.038-1,1-.039,0.038,1Zm71.414-1.976-1-.035,0.033-1,1,0.033Zm-71.52-1.04-0.029-1,1-.029,0.029,1ZM71.825,23.2h-1l0.025-1,1,0.024ZM0.131,22.192L0.108,21.185l1-.022L1.126,22.1l-0.5.079Zm71.763-1.983-1-.02,0.019-1,1,0.018ZM0.07,19.174L0.053,18.168l1-.016,0.017,1ZM71.944,17.19l-1-.014,0.013-.969,0.5-.029,0.5,0.006ZM0.026,16.156L0.015,15.149l1-.01,0.011,0.981Zm71.95-1.984-1-.008,0.007-.98,0.5-.021,0.5,0ZM0,13.137l0-1.007,1,0,0,0.987ZM71,11.15l0-1h1l0,0.995ZM0.986,10.117h-1v-1h1v1Zm71.008-1.98H71l0-.829A1.172,1.172,0,0,0,70.7,6.721l0.777-.63A2.141,2.141,0,0,1,71.992,7.3ZM1,7.226L0.034,6.984a2.653,2.653,0,0,1,.62-1.077L1.388,6.588A1.664,1.664,0,0,0,1,7.226Zm47.537-.551h-1v-1h1v1Zm-2.991,0h-1v-1h1v1Zm-2.991,0h-1v-1h1v1Zm-2.991,0h-1v-1h1v1Zm-2.991,0h-1v-1h1v1Zm-2.991,0h-1v-1h1v1Zm-2.991,0h-1v-1h1v1Zm-2.991,0h-1v-1h1v1Zm-2.991,0h-1v-1h1v1ZM21.6,6.66q-0.517-.023-1.02-0.072l0.093-1c0.321,0.03.643,0.054,0.97,0.068Zm28.963-.026-0.064-1c0.326-.021.648-0.051,0.966-0.088l0.119,1C51.245,6.581,50.905,6.612,50.562,6.634ZM18.549,6.26c-0.339-.078-0.673-0.166-1-0.268l0.294-.96q0.456,0.141.926,0.248Zm35.057-.093-0.247-.973c0.313-.08.62-0.171,0.923-0.272L54.6,5.876C54.271,5.985,53.941,6.081,53.606,6.167Zm15.623-.5L68.378,5.15l0.508-.863,0.859,0.519ZM2.918,5.547L2.4,4.688l0.854-.521L3.77,5.027Zm12.7-.315Q15.159,5,14.71,4.733l0.512-.862c0.276,0.166.555,0.318,0.839,0.458ZM56.5,5.064l-0.459-.891q0.422-.222.83-0.479L57.4,4.544Q56.962,4.825,56.5,5.064Zm10.16-.937L65.8,3.62l0.5-.867,0.862,0.509ZM5.482,4l-0.51-.863L5.83,2.622,6.338,3.486Zm7.542-.479q-0.39-.331-0.764-0.7l0.7-.716q0.348,0.344.708,0.652ZM59.062,3.3L58.4,2.541q0.355-.313.7-0.664l0.713,0.7C59.567,2.832,59.316,3.072,59.062,3.3Zm5.022-.7-0.859-.515,0.512-.863,0.855,0.513ZM8.05,2.455L7.538,1.591q0.426-.256.849-0.517l0.52,0.858Q8.481,2.2,8.05,2.455Zm2.873-1.14A0.583,0.583,0,0,0,10.5,1.073l-0.159-1a1.525,1.525,0,0,1,1.292.537Zm50.17-.146-0.569-.824a1.446,1.446,0,0,1,1.4-.168l-0.337.946A0.381,0.381,0,0,0,61.093,1.168Z" transform="translate(9 1.969)"/>
  <path id="back" class="cls-2" d="M62.494,50.4c-2.677,13.467-22.2,24.957-26.723,27.455C31.309,75.36,12.081,63.918,9.429,50.411,7.819,42.206,6.99,28.574,6.966,9.888,7.63,9.485,8.3,9.08,9,8.665l0.7-.417a19.992,19.992,0,0,0,12.84,4.192l26.184,0,0.432,0A20.272,20.272,0,0,0,62.137,8.217l0.785,0.465c0.7,0.417,1.39.824,2.066,1.228C64.961,28.587,64.123,42.207,62.494,50.4Z" transform="translate(9 1.969)"/>
  <path id="frame" class="cls-3" d="M49.148,12.44A20.272,20.272,0,0,0,62.137,8.217l0.785,0.465c0.7,0.417,1.39.824,2.066,1.228h0c-0.026,18.676-.864,32.3-2.493,40.485-2.677,13.467-22.2,24.957-26.723,27.455C31.309,75.36,12.081,63.918,9.429,50.411,7.819,42.206,6.99,28.574,6.966,9.888h0C7.63,9.485,8.3,9.08,9,8.665l0.7-.417a19.992,19.992,0,0,0,12.84,4.192l26.184,0,0.432,0M62.045,7l-0.269.222a19.227,19.227,0,0,1-12.628,4.216H22.532A18.956,18.956,0,0,1,10.053,7.252l-0.27-.224L5.972,9.321V9.6c0.016,18.9.851,32.692,2.483,41,2.788,14.2,23.044,26.03,27.077,28.257l0.238,0.131,0.238-.13C40.1,76.626,60.656,64.75,63.469,50.594c1.65-8.3,2.5-22.079,2.513-40.968V9.341L62.045,7" transform="translate(9 1.969)"/>
  <path id="ready" class="cls-1" d="M20.34,10.622l-3.255,3.255a1.4,1.4,0,0,1-1.974,0L7.3,6.064a2.7,2.7,0,0,1-.79-1.973L6.573,1.435A1.32,1.32,0,0,1,7.9.146l2.851,0.015a2.7,2.7,0,0,1,1.894.79l7.695,7.7A1.4,1.4,0,0,1,20.34,10.622Zm-9.591,1.964L3.684,19.651a0.692,0.692,0,0,1-.979,0L0.652,17.6a0.693,0.693,0,0,1,0-.98L7.717,9.553Z" transform="translate(34.391 33)"/>
</svg>
