<svg version="1.1" xmlns="http://www.w3.org/2000/svg" xmlns:xlink="http://www.w3.org/1999/xlink" x="0px" y="0px" width="90px" height="90px" viewBox="0 0 90 90" style="enable-background:new 0 0 90 90;" xml:space="preserve"><path d="M44.8,80.5C38.1,76.7,20.6,65.9,18,52.7c-1.6-8.3-2.5-22-2.5-40.8c0.7-0.4,2.4-1.4,2.4-1.4c0.3-0.2,0.5-0.3,0.8-0.5 c3.5,2.8,7.8,4.3,12.8,4.3l26.3,0l0.4,0c5.2,0,9.5-1.4,13-4.3c0.3,0.2,0.7,0.4,1,0.6c0.8,0.5,1.5,0.9,2.3,1.3 c0,18.8-0.9,32.5-2.5,40.8C69.3,65.8,51.6,76.7,44.8,80.5z"/></svg>
