<svg class="svg" xmlns="http://www.w3.org/2000/svg" width="90" height="90" viewBox="0 0 90 90"><path d="M36.265,87l-0.43-.209c-1.2-.581-29.32-14.443-33.191-34.107C0.857,43.6-.019,28.573.039,8A3.1,3.1,0,0,1,1.485,5.715C2.877,4.841,4.285,4,5.693,3.158,7.009,2.371,8.325,1.585,9.626.772a2.129,2.129,0,0,1,3.148.506c2.551,3.216,5.9,4.678,10.616,4.6h25.9c4.8,0.093,8.192-1.383,10.778-4.6a2.153,2.153,0,0,1,3.163-.5c1.317,0.812,2.649,1.6,3.982,2.386C68.635,4,70.06,4.838,71.468,5.712A3.121,3.121,0,0,1,72.931,8h0c0.058,20.574-.828,35.607-2.637,44.68C66.375,72.349,37.906,86.21,36.7,86.791ZM10.994,2.3c-0.01.015-.114,0.051-0.318,0.178-1.311.819-2.639,1.613-3.966,2.406-1.4.834-2.791,1.668-4.169,2.533a1.471,1.471,0,0,0-.514.634c-0.055,20.4.808,35.3,2.57,44.247C8.026,69.711,32.691,82.934,36.271,84.769c3.609-1.828,28.6-15.066,32.072-32.478C70.124,43.352,71,28.463,70.94,8.036a1.507,1.507,0,0,0-.519-0.621c-1.393-.865-2.807-1.7-4.219-2.533-1.344-.793-2.687-1.586-4.016-2.406A1.308,1.308,0,0,0,61.824,2.3c0,0.014-.083.073-0.211,0.233C58.651,6.217,54.647,7.945,49.27,7.878H23.407c-5.287.086-9.261-1.662-12.188-5.351A1.178,1.178,0,0,0,10.994,2.3Z" transform="translate(8.516 1.344)"/></svg>
