<svg id="factory_2" xmlns="http://www.w3.org/2000/svg" width="90" height="90" viewBox="0 0 90 90">
  <defs>
    <style>
      .cls-1 {
      fill: #727585;
      fill-rule: evenodd;
      opacity: 0.5;
      }
    </style>
  </defs>
  <path id="border" class="cls-1" d="M52,0.789H51V1.795h1V0.789M1.832,0.852l-0.418.913,0.908,0.42L2.74,1.271,1.832,0.852m50.99,0L52.4,1.767,53.3,2.194l0.426-.912-0.906-.427m-23.7.636L28.689,2.4l0.9,0.434,0.432-.908-0.9-.434M1,1.558H0V2.564H1V1.558M4.558,2.112L4.14,3.025l0.908,0.42,0.418-.914-0.908-.42m50.98,0.025-0.424.912L56.02,3.474l0.424-.911-0.905-.426m-23.711.656L31.4,3.7l0.9,0.434,0.432-.908-0.9-.434M27,3.137H26V4.143h1V3.137M7.283,3.372l-0.418.913,0.908,0.42,0.418-.913-0.908-.42M58.255,3.416l-0.424.911,0.905,0.426,0.424-.912-0.905-.426M52,3.806H51V4.812h1V3.806m-17.467.289L34.1,5,35,5.436l0.431-.908-0.9-.433M1,4.575H0V5.581H1V4.575m9.009,0.057-0.418.914L10.5,5.966l0.418-.913-0.908-.421M60.972,4.7l-0.425.911,0.905,0.427,0.426-.911L60.972,4.7m-23.732.7L36.808,6.3l0.9,0.434,0.432-.907-0.9-.434m-24.5.5-0.418.913,0.908,0.42,0.418-.914-0.908-.419M63.688,5.977l-0.424.911L64.17,7.315,64.594,6.4l-0.906-.426M27,6.155H26V7.16h1V6.155M39.946,6.7l-0.432.908,0.9,0.434,0.431-.907-0.9-.434M52,6.823H51V7.829h1V6.823m-36.54.33-0.418.914,0.909,0.42,0.418-.914-0.909-.42M66.4,7.257l-0.424.912,0.905,0.426,0.424-.911L66.4,7.257M1,7.592H0V8.6H1V7.592M42.652,8l-0.432.908,0.9,0.434,0.432-.907L42.652,8m-24.467.415-0.418.913,0.909,0.42,0.418-.913-0.909-.42M69.122,8.537l-0.425.91,0.9,0.426,0.426-.911-0.905-.426M27,9.172H26v1.006h1V9.172M45.359,9.3l-0.431.908,0.9,0.433,0.432-.907-0.9-.433M20.91,9.675l-0.416.913,0.909,0.42,0.416-.914L20.91,9.675M71.838,9.817l-0.424.912,0.905,0.426,0.424-.911-0.905-.427M52,9.841H51v1.006h1V9.841m-3.935.762-0.432.908,0.9,0.434,0.432-.908-0.9-.434M1,10.61H0v1.006H1V10.61m22.638,0.325-0.418.914,0.908,0.42,0.418-.914-0.908-.42M74.556,11.1l-0.426.911,0.905,0.427,0.426-.911L74.556,11.1M50.772,11.9l-0.432.908,0.9,0.434,0.432-.908-0.9-.434M27,12.189H26v0.623h0.081l-0.136.3L27,13.6V12.189m50.271,0.188-0.424.912L77,13.36v0.2h1V12.722l-0.729-.345M1,13.627H0v1.006H1V13.627m77,1.941H77v1.006h1V15.568M1,16.645H0V17.65H1V16.645m77,1.941H77v1.006h1V18.585M1,19.662H0v1.006H1V19.662M78,21.6H77v1.006h1V21.6M1,22.679H0v1.006H1V22.679M78,24.62H77v1.006h1V24.62M1,25.7H0V26.7H1V25.7m77,1.941H77v1.006h1V27.637M1,28.714H0V29.72H1V28.714m77,1.941H77v1.006h1V30.655M1,31.731H0v1.006H1V31.731m77,1.941H77v1.006h1V33.672M1,34.749H0v1.006H1V34.749m77,1.941H77V37.7h1V36.689M1,37.766H0v1.006H1V37.766m77,1.941H77v1.006h1V39.707M1,40.783H0v1.006H1V40.783m77,1.941H77V43.73h1V42.724M1,43.8H0v1.006H1V43.8m77,1.941H77v1.006h1V45.741M1,46.818H0v1.006H1V46.818m77,1.941H77v1.006h1V48.759M1,49.835H0v1.006H1V49.835m77,1.941H77v1.006h1V51.776M1,52.853H0v1.006H1V52.853m77,1.941H77V55.8h1V54.793M1,55.87H0v1.006H1V55.87m77,1.941H77v1.006h1V57.811M1,58.887H0v1.006H1V58.887m77,1.941H77v1.006h1V60.828M1,61.9H0V62.91H1V61.9m77,1.941H77v1.006h1V63.845M1,64.922H0v1.006H1V64.922m77,1.941H77v1.006h1V66.863M1,67.939H0v1.006H1V67.939M78,69.88H77v1.006h1V69.88M1,70.957H0v1.006H1V70.957M78,72.9H77V73.9h1V72.9M1,73.974H0V74.98H1V73.974m77,1.941H77V76.92h1V75.915M1,76.991H0V78H1V76.991m77,1.941H77v1.006h1V78.932m-1.965,1.041h-1v1.006h1V79.973m-3,0h-1v1.006h1V79.973m-3,0h-1v1.006h1V79.973m-3,0h-1v1.006h1V79.973m-3,0h-1v1.006h1V79.973m-3,0h-1v1.006h1V79.973m-3,0h-1v1.006h1V79.973m-3,0h-1v1.006h1V79.973m-3,0h-1v1.006h1V79.973m-3,0h-1v1.006h1V79.973m-3,0h-1v1.006h1V79.973m-3,0h-1v1.006h1V79.973m-3,0h-1v1.006h1V79.973m-3,0h-1v1.006h1V79.973m-3,0h-1v1.006h1V79.973m-3,0h-1v1.006h1V79.973m-3,0h-1v1.006h1V79.973m-3,0h-1v1.006h1V79.973m-3,0h-1v1.006h1V79.973m-3,0h-1v1.006h1V79.973m-3,0h-1v1.006h1V79.973m-3,0h-1v1.006h1V79.973m-3,0h-1v1.006h1V79.973m-3,0h-1v1.006h1V79.973m-3,0h-1v1.006h1V79.973m-3,0L0,80.009v0.97H1.035V79.973M26-.01V1.126h0.34l-0.056.117,0.6,0.289,0.432-.908L26-.01" transform="translate(6 4.516)"/>
  <path id="lock"  class="cls-1" d="M16.312,20.519H2.431a1.81,1.81,0,0,1-1.809-1.81v-7.8A1.81,1.81,0,0,1,2.431,9.1h1.23V6.4a5.711,5.711,0,1,1,11.421,0V9.1h1.23a1.81,1.81,0,0,1,1.809,1.81v7.8A1.81,1.81,0,0,1,16.312,20.519ZM11.7,6.4a2.329,2.329,0,1,0-4.658,0V9.1H11.7V6.4Z" transform="translate(35.625 37)"/>
</svg>
