<svg xmlns="http://www.w3.org/2000/svg" xmlns:xlink="http://www.w3.org/1999/xlink" width="90" height="90" viewBox="0 0 90 90">
  <defs>
    <style>
      .cls-1 {
      fill: #727585;
      fill-rule: evenodd;
      opacity: 0.5;
      }
    </style>
  </defs>
  <path id="border" class="cls-1" d="M40.681,79.971l-0.018-1.006q0.5-.009.991-0.029L41.7,79.942Q41.19,79.963,40.681,79.971Zm-2.036-.016q-0.513-.016-1.021-0.047l0.063-1c0.329,0.021.659,0.034,0.989,0.045Zm5.083-.153-0.09-1c0.33-.029.658-0.065,0.986-0.1l0.118,1Q44.237,79.756,43.727,79.8ZM35.6,79.741c-0.339-.037-0.677-0.078-1.012-0.124l0.136-1q0.49,0.066.984,0.12Zm11.159-.335-0.171-.992c0.326-.056.652-0.116,0.976-0.18l0.195,0.986C47.426,79.286,47.091,79.348,46.758,79.406Zm-14.181-.111c-0.335-.063-0.669-0.13-1-0.2l0.212-.983q0.485,0.1.973,0.2Zm17.17-.521L49.5,77.8q0.485-.122.962-0.255l0.269,0.969Q50.241,78.649,49.747,78.774ZM29.6,78.618q-0.492-.131-0.98-0.276l0.283-.965c0.318,0.092.637,0.183,0.957,0.268Zm23.08-.7-0.32-.953c0.315-.106.628-0.215,0.939-0.327l0.342,0.945C53.32,77.7,53,77.808,52.677,77.916Zm-26-.2q-0.482-.171-0.959-0.353l0.358-.939q0.466,0.177.935,0.343Zm28.853-.876-0.4-.925q0.457-.195.91-0.4l0.415,0.918C56.152,76.57,55.843,76.7,55.533,76.838Zm-31.7-.252q-0.467-.2-0.929-0.424l0.43-.91q0.451,0.214.906,0.415Zm34.456-1.041-0.46-.894q0.439-.227.873-0.466l0.485,0.882Q58.743,75.312,58.289,75.545Zm-37.207-.3Q20.634,75,20.191,74.747l0.5-.874c0.289,0.164.579,0.325,0.871,0.483Zm39.863-1.2-0.526-.857q0.421-.26.836-0.531L61.8,73.5C61.52,73.683,61.233,73.866,60.944,74.043Zm-42.5-.351q-0.43-.274-0.852-0.561l0.564-.833q0.413,0.28.83,0.547Zm45.033-1.349-0.591-.814q0.4-.292.794-0.593l0.613,0.8Q63.89,72.043,63.479,72.343Zm-47.544-.4q-0.408-.308-0.806-0.623l0.625-.79q0.39,0.31.787,0.609Zm49.943-1.494-0.652-.766q0.379-.321.749-0.652l0.67,0.751Q66.265,70.124,65.877,70.453Zm-52.312-.436q-0.382-.337-0.755-0.683l0.684-.739q0.365,0.338.738,0.667ZM68.126,68.39l-0.709-.715q0.354-.351.7-0.707l0.725,0.7Q68.488,68.031,68.126,68.39ZM11.35,67.913q-0.354-.363-0.7-0.736l0.737-.686q0.339,0.364.686,0.719Zm58.863-1.755-0.76-.66q0.326-.374.641-0.758l0.778,0.639Q70.546,65.773,70.212,66.158ZM9.3,65.649Q8.975,65.26,8.657,64.86l0.788-.625q0.308,0.387.627,0.767Zm62.823-1.877-0.807-.6q0.295-.4.581-0.806l0.823,0.578Q72.43,63.362,72.125,63.773ZM7.431,63.235c-0.2-.275-0.39-0.554-0.58-0.834l0.831-.566q0.28,0.411.569,0.814ZM73.849,61.25L73,60.713c0.176-.28.349-0.564,0.519-0.849l0.864,0.515Q74.121,60.818,73.849,61.25Zm-68.1-.562C5.577,60.4,5.4,60.107,5.236,59.812l0.874-.5q0.245,0.43.5,0.854ZM75.378,58.6l-0.89-.468c0.153-.292.3-0.588,0.452-0.886l0.9,0.446Q75.615,58.148,75.378,58.6ZM4.271,58.022q-0.231-.453-0.449-0.914l0.91-.43q0.212,0.447.435,0.888ZM76.7,55.837l-0.923-.4c0.132-.3.26-0.611,0.384-0.92l0.933,0.375C76.966,55.21,76.835,55.524,76.7,55.837ZM3,55.25c-0.13-.312-0.254-0.628-0.377-0.945l0.939-.362q0.178,0.464.367,0.923Zm74.806-2.269-0.951-.326q0.161-.472.311-0.947l0.959,0.3Q77.972,52.5,77.806,52.982Zm-75.864-.6c-0.105-.322-0.207-0.648-0.3-0.973L2.6,51.126q0.141,0.476.3,0.947Zm76.747-2.334L77.715,49.8c0.082-.32.161-0.64,0.236-0.963l0.98,0.226Q78.816,49.56,78.688,50.052ZM1.106,49.444c-0.08-.328-0.154-0.659-0.227-0.991l0.982-.214q0.106,0.486.223,0.97ZM79.34,47.068l-0.99-.177q0.087-.488.163-0.98l0.994,0.153C79.455,46.4,79.4,46.735,79.34,47.068ZM0.5,46.451C0.446,46.116.4,45.78,0.35,45.441l1-.132c0.043,0.327.092,0.653,0.145,0.979Zm79.261-2.409-1-.1c0.032-.328.062-0.658,0.086-0.989l1,0.077C79.826,43.368,79.8,43.706,79.762,44.042ZM0.126,43.42Q0.082,42.913.052,42.4l1-.059c0.02,0.333.044,0.662,0.072,0.99Zm79.829-2.425-1.006-.027q0.013-.5.013-0.992c0-.255,0-0.509-0.008-0.762l1.006-.02c0,0.259.008,0.521,0.008,0.782C79.968,40.316,79.964,40.655,79.955,40.995Zm-79.973-.629,0-.391,0-.626L0.99,39.363l0,0.612,0,0.383ZM1.07,37.38l-1-.065c0.022-.339.049-0.678,0.08-1.016l1,0.09C1.117,36.72,1.092,37.049,1.07,37.38Zm77.8-.151q-0.034-.5-0.082-0.991l1-.094q0.047,0.505.083,1.015ZM1.378,34.417l-1-.142q0.072-.506.157-1.008l0.992,0.169C1.477,33.762,1.424,34.088,1.378,34.417Zm77.17-.148c-0.049-.328-0.1-0.655-0.158-0.982l0.992-.171q0.086,0.5.16,1.005ZM1.912,31.487l-0.982-.218q0.111-.5.233-0.99L2.139,30.52Q2.019,31,1.912,31.487ZM78,31.34c-0.072-.323-0.149-0.645-0.231-0.965l0.975-.248q0.125,0.492.239,0.992ZM2.668,28.606l-0.963-.293q0.149-.489.31-0.975l0.955,0.316C2.866,27.972,2.765,28.288,2.668,28.606Zm74.566-.144c-0.1-.317-0.2-0.632-0.3-0.944l0.953-.322q0.164,0.483.313,0.972ZM3.646,25.787l-0.937-.367q0.187-.476.384-0.945l0.927,0.389C3.893,25.169,3.767,25.477,3.646,25.787Zm72.6-.134q-0.183-.46-0.375-0.916l0.925-.393q0.2,0.467.385,0.939Zm-71.41-2.6-0.906-.438q0.222-.458.454-0.912l0.9,0.458C5.133,22.454,4.983,22.752,4.839,23.051Zm70.213-.117q-0.216-.446-0.444-0.885l0.892-.464c0.156,0.3.31,0.6,0.458,0.909ZM6.237,20.415l-0.87-.5q0.256-.442.524-0.875l0.857,0.527C6.573,19.844,6.4,20.128,6.237,20.415Zm67.414-.1c-0.167-.286-0.338-0.569-0.511-0.849l0.855-.53q0.268,0.432.525,0.87ZM7.832,17.9L7,17.326q0.29-.421.588-0.832l0.815,0.59Q8.114,17.486,7.832,17.9Zm64.22-.091c-0.188-.272-0.38-0.541-0.575-0.809l0.811-.594c0.2,0.273.4,0.55,0.59,0.828Zm-62.438-2.3L8.83,14.877q0.32-.4.65-0.786l0.766,0.652Q9.926,15.12,9.614,15.508Zm60.651-.085c-0.208-.258-0.419-0.512-0.633-0.763l0.764-.652q0.33,0.386.651,0.783Zm-58.7-2.161-0.733-.69q0.349-.372.707-0.734l0.715,0.709Q11.91,12.9,11.57,13.261ZM68.3,13.183q-0.34-.36-0.692-0.712l0.713-.709q0.36,0.361.709,0.732ZM13.692,11.171l-0.678-.743q0.376-.343.76-0.678l0.66,0.76Q14.059,10.836,13.692,11.171ZM66.175,11.1q-0.367-.334-0.743-0.658l0.658-.76c0.257,0.222.512,0.447,0.762,0.676ZM15.965,9.247l-0.621-.792q0.4-.314.809-0.617l0.6,0.808Q16.353,8.942,15.965,9.247ZM63.9,9.181q-0.393-.305-0.793-0.6l0.6-.81c0.274,0.2.544,0.407,0.812,0.616ZM18.376,7.5l-0.558-.837q0.421-.281.854-0.553l0.536,0.851C18.928,7.14,18.651,7.319,18.376,7.5Zm43.1-.062Q61.063,7.165,60.642,6.9l0.532-.853q0.433,0.27.859,0.552ZM20.912,5.949l-0.493-.876q0.444-.249.893-0.487l0.47,0.89Q21.344,5.707,20.912,5.949Zm38.02-.059c-0.289-.161-0.582-0.319-0.875-0.474l0.468-.89q0.452,0.237.9,0.485Zm-35.374-1.3-0.424-.912c0.306-.142.614-0.281,0.925-0.417l0.4,0.922C24.157,4.32,23.856,4.455,23.557,4.594ZM56.27,4.538q-0.449-.208-0.908-0.4l0.4-.925q0.47,0.2.935,0.418ZM26.3,3.445L25.943,2.5q0.476-.18.961-0.346L27.23,3.109Q26.76,3.271,26.3,3.445Zm27.218-.051C53.2,3.28,52.89,3.168,52.576,3.06L52.9,2.109q0.483,0.165.961,0.342ZM29.123,2.509l-0.281-.967q0.489-.141.983-0.271l0.254,0.975Q29.6,2.369,29.123,2.509Zm21.559-.041c-0.318-.091-0.637-0.177-0.957-0.259l0.25-.975q0.5,0.127.984,0.267ZM32.011,1.792l-0.2-.985q0.5-.1,1-0.2L32.987,1.6Q32.5,1.693,32.011,1.792ZM47.79,1.763c-0.324-.066-0.649-0.129-0.976-0.187l0.177-.99c0.335,0.06.668,0.123,1,.191ZM34.947,1.3l-0.128-1c0.336-.042.674-0.081,1.012-0.116l0.1,1C35.6,1.221,35.275,1.258,34.947,1.3Zm9.9-.019q-0.492-.06-0.987-0.111l0.1-1q0.507,0.05,1.011.113Zm-6.937-.25-0.053-1C38.2,0.009,38.54,0,38.88-.012l0.026,1.006Q38.409,1.007,37.915,1.032Zm3.969-.007C41.554,1.009,41.223,1,40.892.99L40.916-.016C41.257-.008,41.6,0,41.934.021Z" transform="translate(5.016 5.016)"/>
  <path id="lock"  class="cls-1" d="M16.312,20.519H2.431a1.81,1.81,0,0,1-1.809-1.81v-7.8A1.81,1.81,0,0,1,2.431,9.1h1.23V6.4a5.711,5.711,0,1,1,11.421,0V9.1h1.23a1.81,1.81,0,0,1,1.809,1.81v7.8A1.81,1.81,0,0,1,16.312,20.519ZM11.7,6.4a2.329,2.329,0,1,0-4.658,0V9.1H11.7V6.4Z" transform="translate(35.625 34.391)"/>
</svg>
