<svg version="1.1" xmlns="http://www.w3.org/2000/svg" xmlns:xlink="http://www.w3.org/1999/xlink" x="0px" y="0px" width="90px" height="90px" viewBox="0 0 90 90" style="enable-background:new 0 0 90 90;" xml:space="preserve">
	<path class="keep-path-shape" d="M45,84c-10.4,0-20.2-4.1-27.6-11.4C10.1,65.2,6,55.4,6,45C6,23.5,23.5,6,45,6c21.5,0,39,17.5,39,39C84,66.5,66.5,84,45,84 L45,84z"/>
	<path class="keep-path-inshape" d="M45,78c-8.8,0-17.1-3.4-23.3-9.7C15.4,62.1,12,53.8,12,45c0-18.2,14.8-33,33-33c18.2,0,33,14.8,33,33C78,63.2,63.2,78,45,78 L45,78z"/>
</svg>
