<svg class="svg" xmlns="http://www.w3.org/2000/svg" width="90" height="90" viewBox="0 0 90 90"><path d="M33.046,45.79h-5.7V25.576l2.233-6.7h4.466l2.232,6.7V45.79H33.046ZM29.582,16.644V9.827l2.233-8.933,1.231,4.926,1,4.006v6.816H29.582ZM13.952,25.576l2.233-6.7h4.466l2.232,6.7V45.79H13.952V25.576ZM16.185,9.827L18.418,0.9l2.233,8.932v6.816H16.185V9.827ZM0.556,25.576l2.233-6.7H7.255l2.232,6.7V45.79H0.556V25.576ZM2.788,9.827L5.021,0.9,7.254,9.827v6.816H2.788V9.827Z" transform="translate(26.578 21.656)"/></svg>
