<svg id="bower_2" xmlns="http://www.w3.org/2000/svg" width="90" height="90" viewBox="0 0 90 90">
  <defs>
    <style>
      .cls-1, .cls-2, .cls-3 {
        fill: #727585;
        fill-rule: evenodd;
      }

      .cls-2 {
        opacity: 0.4;
      }

      .cls-3 {
        opacity: 0.15;
      }
    </style>
  </defs>
  <path id="border" class="cls-1" d="M73.42,79h-1V78h1v1Zm-3.011,0h-1V78h1v1ZM67.4,79h-1V78h1v1Zm-3.011,0h-1V78h1v1Zm-3.011,0h-1V78h1v1Zm-3.011,0h-1V78h1v1Zm-3.011,0h-1V78h1v1Zm-3.011,0h-1V78h1v1ZM49.33,79h-1V78h1v1Zm-3.011,0h-1V78h1v1Zm-3.011,0h-1V78h1v1ZM40.3,79h-1V78h1v1Zm-3.011,0h-1V78h1v1Zm-3.011,0h-1V78h1v1Zm-3.011,0h-1V78h1v1Zm-3.011,0h-1V78h1v1ZM25.24,79h-1V78h1v1Zm-3.011,0h-1V78h1v1Zm-3.011,0h-1V78h1v1Zm-3.011,0h-1V78h1v1ZM13.2,79h-1V78h1v1Zm-3.011,0h-1V78h1v1ZM7.173,79h-1V78h1v1ZM4.162,79h-1V78h1v1ZM1.15,79h-1.16V78.155h0.5V78H1.15v1Zm73.833-1.438h-1v-1h1v1Zm-73.989-1.4h-1v-1h1v1Zm73.989-1.593h-1v-1h1v1Zm-73.989-1.4h-1v-1h1v1Zm73.989-1.593h-1v-1h1v1ZM0.994,70.18h-1v-1h1v1Zm73.989-1.593h-1v-1h1v1Zm-73.989-1.4h-1v-1h1v1ZM74.983,65.6h-1v-1h1v1ZM0.994,64.2h-1v-1h1v1Zm73.989-1.593h-1v-1h1v1Zm-73.989-1.4h-1v-1h1v1Zm73.989-1.593h-1v-1h1v1Zm-73.989-1.4h-1v-1h1v1Zm73.989-1.593h-1v-1h1v1Zm-73.989-1.4h-1v-1h1v1Zm73.989-1.593h-1v-1h1v1Zm-73.989-1.4h-1v-1h1v1Zm73.989-1.593h-1v-1h1v1Zm-73.989-1.4h-1v-1h1v1Zm73.989-1.593h-1v-1h1v1Zm-73.989-1.4h-1v-1h1v1Zm73.989-1.593h-1v-1h1v1Zm-73.989-1.4h-1v-1h1v1Zm73.989-1.593h-1v-1h1v1Zm-73.989-1.4h-1v-1h1v1Zm73.989-1.593h-1v-1h1v1Zm-73.989-1.4h-1v-1h1v1Zm73.989-1.593h-1v-1h1v1Zm-73.989-1.4h-1v-1h1v1ZM74.983,32.7h-1v-1h1v1ZM0.994,31.3h-1v-1h1v1Zm73.989-1.593h-1v-1h1v1Zm-73.989-1.4h-1v-1h1v1ZM74.983,26.72h-1v-1h1v1Zm-73.989-1.4h-1v-1h1v1ZM74.983,23.73h-1V23.389l-0.09-.055,0.533-.845,0.561,0.349V23.73Zm-73.556-.6L0.9,22.282l0.857-.519,0.523,0.851Zm70.762-.859-0.85-.53,0.533-.845,0.85,0.53ZM4,21.577l-0.521-.851,0.858-.519,0.521,0.851Zm65.641-.892-0.851-.53,0.533-.845,0.851,0.53ZM6.569,20.022l-0.522-.851,0.858-.518L7.427,19.5ZM67.087,19.1l-0.851-.53,0.533-.845,0.851,0.53Zm-57.946-.63L8.62,17.616,9.477,17.1,10,17.948Zm55.394-.958-0.85-.53,0.533-.845,0.85,0.53Zm-52.822-.6-0.521-.851,0.858-.518,0.521,0.851Zm50.271-.991-0.85-.529,0.533-.845,0.85,0.53Zm-47.7-.563-0.521-.851,0.858-.519,0.521,0.851Zm45.148-1.025-0.851-.53,0.533-.845,0.851,0.53ZM16.857,13.8l-0.521-.851,0.858-.518,0.521,0.851Zm40.024-1.058-0.851-.53,0.533-.845,0.851,0.53Zm-37.452-.5L18.908,11.4l0.858-.519,0.521,0.851Zm34.9-1.092-0.85-.53,0.533-.845,0.85,0.529ZM22,10.691L21.48,9.84l0.858-.519,0.521,0.851ZM51.78,9.565l-0.851-.53,0.533-.845,0.851,0.53Zm-27.206-.43-0.521-.851,0.857-.518L25.43,8.617ZM49.228,7.977l-0.851-.53L48.91,6.6l0.851,0.53Zm-22.081-.4L26.623,6.73l0.857-.519L28,7.062Zm19.53-1.193-0.85-.53,0.533-.845,0.85,0.53ZM29.718,6.025L29.2,5.174l0.857-.518,0.522,0.851ZM44.125,4.8l-0.85-.529,0.533-.845,0.85,0.529ZM32.291,4.47l-0.523-.851L32.624,3.1l0.523,0.851Zm9.284-1.259-0.851-.53,0.533-.845,0.851,0.53Zm-6.713-.3-0.522-.851L35.2,1.546,35.719,2.4Zm4.162-1.292-0.851-.53,0.533-.845,0.851,0.53Zm-1.59-.263-0.522-.851L37.769-.01l0.522,0.851Z" transform="translate(7.516 5.5)"/>
  <path id="frame" class="cls-2" d="M7.975,71.987V27.571L37.966,9.176,66.992,27.508V71.987H7.975M37.974,8L7.219,26.861l-0.239.146V72.991H67.988V26.954L37.974,8" transform="translate(7.516 5.5)"/>
  <path id="back" class="cls-3" d="M7.975,71.987V27.571L37.966,9.176,66.992,27.508V71.987H7.975" transform="translate(7.516 5.5)"/>
  <path id="ready" class="cls-1" d="M20.34,10.622l-3.255,3.255a1.4,1.4,0,0,1-1.974,0L7.3,6.064a2.7,2.7,0,0,1-.79-1.973L6.573,1.435A1.32,1.32,0,0,1,7.9.146l2.851,0.015a2.7,2.7,0,0,1,1.894.79l7.695,7.7A1.4,1.4,0,0,1,20.34,10.622Zm-9.591,1.964L3.684,19.651a0.692,0.692,0,0,1-.979,0L0.652,17.6a0.693,0.693,0,0,1,0-.98L7.717,9.553Z" transform="translate(34.391 38)"/>
</svg>
