<svg version="1.1" xmlns="http://www.w3.org/2000/svg" xmlns:xlink="http://www.w3.org/1999/xlink" x="0px" y="0px" width="90px" height="90px" viewBox="0 0 90 90" style="enable-background:new 0 0 90 90;" xml:space="preserve"><g><path fill="#ffffff" d="M54.8,43.6l-7.7-7.7c-0.5-0.5-1.2-0.8-1.9-0.8h-2.9c-0.7,0-1.3,0.6-1.3,1.3l-0.1,2.7c0,0.7,0.3,1.5,0.8,2l7.8,7.8 c0.5,0.5,1.4,0.5,2,0l3.3-3.3C55.3,45,55.3,44.1,54.8,43.6z"/><path fill="#ffffff" d="M35.1,51.5c-0.3,0.3-0.3,0.7,0,1l2.1,2.1c0.3,0.3,0.7,0.3,1,0l7.1-7.1l-3-3L35.1,51.5z"/></g></svg>
