<svg version="1.1" xmlns="http://www.w3.org/2000/svg" xmlns:xlink="http://www.w3.org/1999/xlink" x="0px" y="0px" width="90px" height="90px" viewBox="0 0 90 90" style="enable-background:new 0 0 90 90;" xml:space="preserve"><path fill="#ffffff" d="M51.9,55H38.1c-1,0-1.8-0.8-1.8-1.8v-7.8c0-1,0.8-1.8,1.8-1.8h1.2v-2.7c0-3.2,2.5-5.7,5.6-5.8 c3.2,0,5.7,2.5,5.8,5.6c0,0.1,0,0.1,0,0.2v2.7h1.2c1,0,1.8,0.8,1.8,1.8v7.8C53.7,54.1,52.9,55,51.9,55z M47.3,40.8 c0-1.3-1-2.3-2.3-2.3c-1.3,0-2.3,1-2.3,2.3c0,0,0,0,0,0v2.7h4.7V40.8z"/></svg>
