
<svg version="1.1" xmlns="http://www.w3.org/2000/svg" xmlns:xlink="http://www.w3.org/1999/xlink" x="0px" y="0px" width="90px"
	 height="270px" viewBox="0 0 90 270" style="enable-background:new 0 0 90 270;" xml:space="preserve">
<style type="text/css">
	.st0{fill:#727585;}

	.st45{opacity:0.5;fill:none;stroke:#727585;stroke-miterlimit:10;stroke-dasharray:1,2;}
	.st46{fill:none;stroke:#727585;stroke-miterlimit:10;}
	.st47{fill:none;stroke:#727585;stroke-miterlimit:10;stroke-dasharray:1,2;}
	.st48{fill:none;stroke:#727585;stroke-miterlimit:10;stroke-dasharray:1.0264,2.0527;}
	.st49{fill:none;stroke:#727585;stroke-miterlimit:10;stroke-dasharray:0.9573,1.9146;}
	.st50{fill:none;stroke:#727585;stroke-miterlimit:10;stroke-dasharray:1.0062,2.0124;}
	.st51{fill:none;stroke:#727585;stroke-miterlimit:10;stroke-dasharray:0.9979,1.9958;}
	.st52{opacity:0.4;fill:#B9BAC2;}
	.st53{opacity:0.15;fill:#727585;}
	.st54{opacity:0.4;fill:none;stroke:#8990AD;stroke-miterlimit:10;}
	.st55{opacity:0.4;}
	.st56{fill:none;stroke:#8990AD;stroke-miterlimit:10;}
	.st57{opacity:0.3;fill:#727585;}
	.st58{fill:#80859B;}


	.stroke-animation{
	    stroke-dasharray: 2;
        animation: dash 50s linear infinite;
	}

	@keyframes dash {
      to {
        stroke-dashoffset: -1000;
      }
    }

</style>


<g id="screen_1_">
	<g id="SPACE">
		<circle class="st45" cx="45" cy="45" r="39.3"/>
		<path class="st52" d="M51.5,43.5h-0.8v-2.7c0-3.2-2.6-5.7-5.7-5.7s-5.7,2.6-5.7,5.7v2.7h-0.8c-1.2,0-2.3,1-2.3,2.3v6.9
			c0,1.2,1,2.3,2.3,2.3h13c1.2,0,2.3-1,2.3-2.3v-6.9C53.8,44.5,52.7,43.5,51.5,43.5z M42.7,40.8c0-1.3,1-2.3,2.3-2.3s2.3,1,2.3,2.3
			v2.7h-4.7V40.8z"/>
		<circle class="st53" cx="45" cy="135" r="32.8"/>
		<circle class="st47" cx="45" cy="135" r="39.3"/>
		<circle class="st54" cx="45" cy="135" r="32.8"/>
		<g>
			<path class="st0" d="M54.7,133.6l-7.7-7.7c-0.5-0.5-1.2-0.8-1.9-0.8l-2.9,0c-0.7,0-1.3,0.6-1.3,1.3l-0.1,2.7c0,0.7,0.3,1.5,0.8,2
				l7.8,7.8c0.5,0.5,1.4,0.5,2,0l3.3-3.3C55.3,135.1,55.3,134.2,54.7,133.6z"/>
			<path class="st0" d="M35,141.6c-0.3,0.3-0.3,0.7,0,1l2.1,2.1c0.3,0.3,0.7,0.3,1,0l7.1-7.1l-3-3L35,141.6z"/>
		</g>
		<circle class="st57" cx="45" cy="225" r="32.8"/>
		<circle class="st47 stroke-animation" cx="45" cy="225" r="39.3"/>
		<circle class="st54" cx="45" cy="225" r="32.8"/>
		<g>
			<path class="st58" d="M54.7,223.6l-7.7-7.7c-0.5-0.5-1.2-0.8-1.9-0.8l-2.9,0c-0.7,0-1.3,0.6-1.3,1.3l-0.1,2.7
				c0,0.7,0.3,1.5,0.8,2l7.8,7.8c0.5,0.5,1.4,0.5,2,0l3.3-3.3C55.3,225.1,55.3,224.2,54.7,223.6z"/>
			<path class="st58" d="M35,231.6c-0.3,0.3-0.3,0.7,0,1l2.1,2.1c0.3,0.3,0.7,0.3,1,0l7.1-7.1l-3-3L35,231.6z"/>
		</g>
	</g>
</g>
</svg>
