<svg version="1.1" xmlns="http://www.w3.org/2000/svg" xmlns:xlink="http://www.w3.org/1999/xlink" x="0px" y="0px" width="90px"
	 height="270px" viewBox="0 0 90 270" style="enable-background:new 0 0 90 270;" xml:space="preserve">
<style type="text/css">
	.st0{fill:#ffffff;}

	.st45{fill:none;stroke:#ffffff;stroke-miterlimit:10;stroke-dasharray:1,2;}

	.st47{fill:none;stroke:#ffffff;stroke-miterlimit:10;stroke-dasharray:1,2;}

	.st52{fill:#ffffff;}
	.st53{opacity:0.15;fill:#ffffff;}
	.st54{opacity:0.4;fill:none;stroke:#ffffff;stroke-miterlimit:10;}
	.st57{opacity:0.3;fill:#ffffff;}
	.st58{fill:#ffffff;}

	.stroke-animation{
    	    stroke-dasharray: 2;
            animation: dash 50s linear infinite;
    	}

    	@keyframes dash {
          to {
            stroke-dashoffset: 1000;
          }
        }
</style>

<g id="screen_1_">
	<g id="SPACE">
		<path class="st45" d="M80.9,9.4c0-0.5-0.5-1.2-1-1.4c-2.7-1.7-5.5-3.3-8.3-4.9c-0.8-0.5-1.3-0.5-1.9,0.3c-3,3.8-7,5-11.6,5H45.1
			H32.2c-4.6,0.1-8.5-1.2-11.5-5c-0.6-0.7-1.1-0.8-1.9-0.3c-2.7,1.7-5.5,3.2-8.2,4.9c-0.5,0.3-1,1-1,1.4c0,12.2,0.2,32.4,2.6,44.4
			c3.8,19.4,32.8,33.4,32.8,33.4s29.3-14,33.2-33.4C80.7,41.8,81,21.7,80.9,9.4z"/>
		<path class="st52" d="M51.8,43.5H51v-2.7c0-3.2-2.6-5.7-5.7-5.7s-5.7,2.6-5.7,5.7v2.7h-0.8c-1.2,0-2.3,1-2.3,2.3v6.9
			c0,1.2,1,2.3,2.3,2.3h13c1.2,0,2.3-1,2.3-2.3v-6.9C54.1,44.5,53.1,43.5,51.8,43.5z M43,40.8c0-1.3,1-2.3,2.3-2.3s2.3,1,2.3,2.3
			v2.7H43V40.8z"/>
		<path class="st53" d="M71.6,99.1c0.4,0.2,0.7,0.4,1.1,0.6c0.8,0.5,1.6,0.9,2.3,1.4c0,18.8-0.9,32.5-2.5,40.8
			C70,154,53.7,165.1,45.1,169.7c-8.5-4.7-24.6-15.7-27-27.8c-1.6-8.3-2.5-22-2.5-40.8c0.7-0.5,1.5-0.9,2.3-1.4
			c0.3-0.2,0.7-0.4,1-0.6c3.5,2.8,7.8,4.3,12.9,4.3c0.1,0,0.3,0,0.4,0h12.9h13c0.1,0,0.3,0,0.4,0C63.7,103.4,68.1,102,71.6,99.1"/>
		<path class="st54" d="M71.6,99.1c0.4,0.2,0.7,0.4,1.1,0.6c0.8,0.5,1.6,0.9,2.3,1.4c0,18.8-0.9,32.5-2.5,40.8
			C70,154,53.7,165.1,45.1,169.7c-8.5-4.7-24.6-15.7-27-27.8c-1.6-8.3-2.5-22-2.5-40.8c0.7-0.5,1.5-0.9,2.3-1.4
			c0.3-0.2,0.7-0.4,1-0.6c3.5,2.8,7.8,4.3,12.9,4.3c0.1,0,0.3,0,0.4,0h12.9h13c0.1,0,0.3,0,0.4,0C63.7,103.4,68.1,102,71.6,99.1"/>
		<path class="st47" d="M80.9,99.4c0-0.5-0.5-1.2-1-1.4c-2.7-1.7-5.5-3.3-8.3-4.9c-0.8-0.5-1.3-0.5-1.9,0.3c-3,3.8-7,5-11.6,5H45.1
			H32.2c-4.6,0.1-8.5-1.2-11.5-5c-0.6-0.7-1.1-0.8-1.9-0.3c-2.7,1.7-5.5,3.2-8.2,4.9c-0.5,0.3-1,1-1,1.4c0,12.2,0.2,32.4,2.6,44.4
			c3.8,19.4,32.8,33.4,32.8,33.4s29.3-14,33.2-33.4C80.7,131.8,81,111.7,80.9,99.4z"/>
		<g>
			<path class="st0" d="M54.6,131.3l-7.7-7.7c-0.5-0.5-1.2-0.8-1.9-0.8l-2.9,0c-0.7,0-1.3,0.6-1.3,1.3l-0.1,2.7c0,0.7,0.3,1.5,0.8,2
				l7.8,7.8c0.5,0.5,1.4,0.5,2,0l3.3-3.3C55.1,132.7,55.1,131.8,54.6,131.3z"/>
			<path class="st0" d="M34.9,139.2c-0.3,0.3-0.3,0.7,0,1l2.1,2.1c0.3,0.3,0.7,0.3,1,0l7.1-7.1l-3-3L34.9,139.2z"/>
		</g>
		<path class="st57" d="M71.6,189.1c0.4,0.2,0.7,0.4,1.1,0.6c0.8,0.5,1.6,0.9,2.3,1.4c0,18.8-0.9,32.5-2.5,40.8
			C70,244,53.7,255.1,45.1,259.7c-8.5-4.7-24.6-15.7-27-27.8c-1.6-8.3-2.5-22-2.5-40.8c0.7-0.5,1.5-0.9,2.3-1.4
			c0.3-0.2,0.7-0.4,1-0.6c3.5,2.8,7.8,4.3,12.9,4.3c0.1,0,0.3,0,0.4,0h12.9h13c0.1,0,0.3,0,0.4,0C63.7,193.4,68.1,192,71.6,189.1"/>
		<path class="st54" d="M71.6,189.1c0.4,0.2,0.7,0.4,1.1,0.6c0.8,0.5,1.6,0.9,2.3,1.4c0,18.8-0.9,32.5-2.5,40.8
			C70,244,53.7,255.1,45.1,259.7c-8.5-4.7-24.6-15.7-27-27.8c-1.6-8.3-2.5-22-2.5-40.8c0.7-0.5,1.5-0.9,2.3-1.4
			c0.3-0.2,0.7-0.4,1-0.6c3.5,2.8,7.8,4.3,12.9,4.3c0.1,0,0.3,0,0.4,0h12.9h13c0.1,0,0.3,0,0.4,0C63.7,193.4,68.1,192,71.6,189.1"/>
		<path class="st47 stroke-animation" d="M80.9,189.4c0-0.5-0.5-1.2-1-1.4c-2.7-1.7-5.5-3.3-8.3-4.9c-0.8-0.5-1.3-0.5-1.9,0.3c-3,3.8-7,5-11.6,5H45.1
			H32.2c-4.6,0.1-8.5-1.2-11.5-5c-0.6-0.7-1.1-0.8-1.9-0.3c-2.7,1.7-5.5,3.2-8.2,4.9c-0.5,0.3-1,1-1,1.4c0,12.2,0.2,32.4,2.6,44.4
			c3.8,19.4,32.8,33.4,32.8,33.4s29.3-14,33.2-33.4C80.7,221.8,81,201.7,80.9,189.4z"/>
		<g>
			<path class="st58" d="M54.6,221.3l-7.7-7.7c-0.5-0.5-1.2-0.8-1.9-0.8l-2.9,0c-0.7,0-1.3,0.6-1.3,1.3l-0.1,2.7
				c0,0.7,0.3,1.5,0.8,2l7.8,7.8c0.5,0.5,1.4,0.5,2,0l3.3-3.3C55.1,222.7,55.1,221.8,54.6,221.3z"/>
			<path class="st0" d="M34.9,229.2c-0.3,0.3-0.3,0.7,0,1l2.1,2.1c0.3,0.3,0.7,0.3,1,0l7.1-7.1l-3-3L34.9,229.2z"/>
		</g>
	</g>
</g>
</svg>
