<svg version="1.1" xmlns="http://www.w3.org/2000/svg" xmlns:xlink="http://www.w3.org/1999/xlink" x="0px" y="0px" width="90px" height="270px" viewBox="0 0 90 270" style="enable-background:new 0 0 90 270;" xml:space="preserve">
<style type="text/css">
	.st0{fill:#ffffff;}

	.st45{fill:none;stroke:#ffffff;stroke-miterlimit:10;stroke-dasharray:1,2;}

	.st47{fill:none;stroke:#ffffff;stroke-miterlimit:10;stroke-dasharray:1,2;}
	.st52{fill:#ffffff;}
	.st53{opacity:0.15;fill:#ffffff;}
	.st54{opacity:0.4;fill:none;stroke:#ffffff;stroke-miterlimit:10;}
	.st57{opacity:0.3;fill:#ffffff;}
	.st58{fill:#ffffff;}

	.stroke-animation{
    	    stroke-dasharray: 2;
            animation: dash 50s linear infinite;
    	}

    	@keyframes dash {
          to {
            stroke-dashoffset: 1000;
          }
        }
</style>

<g id="screen_1_">
	<g id="SPACE">
		<polygon class="st45" points="45.4,5.8 8,28.6 8,84.2 81.7,84.2 81.7,28.6   "/>
		<path class="st52" d="M51.5,43.5h-0.8v-2.7c0-3.2-2.6-5.7-5.7-5.7s-5.7,2.6-5.7,5.7v2.7h-0.8c-1.2,0-2.3,1-2.3,2.3v6.9    c0,1.2,1,2.3,2.3,2.3h13c1.2,0,2.3-1,2.3-2.3v-6.9C53.8,44.5,52.7,43.5,51.5,43.5z M42.7,40.8c0-1.3,1-2.3,2.3-2.3s2.3,1,2.3,2.3    v2.7h-4.7V40.8z"/>
		<polygon class="st47" points="45.4,95.8 8,118.6 8,174.2 81.7,174.2 81.7,118.6   "/>
		<path class="st53" d="M45.3,103.7L75,122.3v45.1H14.7v-45.1L45.3,103.7"/>
		<path class="st54" d="M45.3,103.7L75,122.3v45.1H14.7v-45.1L45.3,103.7"/>
		<g>
			<path class="st0" d="M54.7,138.5l-7.7-7.7c-0.5-0.5-1.2-0.8-1.9-0.8l-2.9,0c-0.7,0-1.3,0.6-1.3,1.3l-0.1,2.7c0,0.7,0.3,1.5,0.8,2     l7.8,7.8c0.5,0.5,1.4,0.5,2,0l3.3-3.3C55.3,139.9,55.3,139.1,54.7,138.5z"/>
			<path class="st0" d="M35,146.5c-0.3,0.3-0.3,0.7,0,1l2.1,2.1c0.3,0.3,0.7,0.3,1,0l7.1-7.1l-3-3L35,146.5z"/>
		</g>
		<polygon class="st47 stroke-animation" points="45.4,185.8 8,208.6 8,264.2 81.7,264.2 81.7,208.6   "/>
		<path class="st57" d="M45.3,193.7L75,212.3v45.1H14.7v-45.1L45.3,193.7"/>
		<path class="st54" d="M45.3,193.7L75,212.3v45.1H14.7v-45.1L45.3,193.7"/>
		<g>
			<path class="st58" d="M54.7,228.5l-7.7-7.7c-0.5-0.5-1.2-0.8-1.9-0.8l-2.9,0c-0.7,0-1.3,0.6-1.3,1.3l-0.1,2.7     c0,0.7,0.3,1.5,0.8,2l7.8,7.8c0.5,0.5,1.4,0.5,2,0l3.3-3.3C55.3,229.9,55.3,229.1,54.7,228.5z"/>
			<path class="st0" d="M35,236.5c-0.3,0.3-0.3,0.7,0,1l2.1,2.1c0.3,0.3,0.7,0.3,1,0l7.1-7.1l-3-3L35,236.5z"/>
		</g>
	</g>

</g>

</svg>