<svg xmlns="http://www.w3.org/2000/svg" xmlns:xlink="http://www.w3.org/1999/xlink" width="90" height="90" viewBox="0 0 90 90">
  <defs>
    <style>
      .cls-1 {
        fill: #727585;
        fill-rule: evenodd;
        opacity: 0.5;
      }
    </style>
  </defs>
  <path id="border" class="cls-1" d="M41.9,0.436l-0.286.954,0.956,0.285,0.286-.954L41.9,0.436m-5.068.375-0.958.279L36.15,2.043l0.958-.279-0.278-.953m7.935,0.482-0.286.952L45.433,2.53l0.286-.952-0.956-.286m-10.808.352L33,1.923l0.279,0.956L34.235,2.6l-0.279-.956m13.675,0.5L47.345,3.1,48.3,3.386l0.287-.954-0.956-.285m-16.55.332-0.958.278L30.4,3.712l0.958-.279L31.082,2.48M50.5,3l-0.287.952,0.956,0.286,0.286-.952L50.5,3m-22.29.31-0.958.278L27.53,4.548l0.957-.278-0.278-.956M53.366,3.861l-0.286.952L54.035,5.1l0.286-.952-0.956-.286M25.335,4.15l-0.958.279,0.279,0.954L25.614,5.1,25.335,4.15m30.9,0.567-0.286.952L56.9,5.954,57.189,5l-0.956-.286m-33.772.267L21.5,5.261l0.279,0.956,0.959-.278-0.279-.956M59.1,5.573l-0.286.952,0.956,0.286,0.287-.952L59.1,5.573m-39.512.246L18.63,6.1l0.279,0.954,0.958-.279-0.279-.954m42.38,0.61-0.287.952,0.956,0.286,0.286-.952-0.956-.286m-45.253.224-0.958.278,0.279,0.956,0.958-.278-0.279-.956m48.12,0.632-0.286.952L65.5,8.523l0.286-.952-0.956-.286m-50.993.2-0.959.279,0.279,0.956,0.959-.279-0.279-.956M67.7,8.141l-0.286.952,0.956,0.286,0.287-.952L67.7,8.141m-56.735.182L10.009,8.6l0.279,0.956,0.958-.278-0.278-.956M70.57,9l-0.286.952,0.956,0.286,0.287-.952L70.57,9m-62.476.16-0.958.279,0.279,0.954,0.958-.279L8.094,9.158m65.342,0.7-0.286.954,0.956,0.284,0.287-.953-0.956-.285M5.22,9.993l-0.958.278,0.278,0.956L5.5,10.948,5.22,9.993M76.3,10.711l-0.287.952,0.956,0.285L77.259,11,76.3,10.711m-73.957.117-0.958.279L1.667,12.06l0.958-.279-0.278-.953M79,12.435H78V13.43h1V12.435M0.99,12.8h-1v0.995h1V12.8M79,15.419H78v0.995h1V15.419M0.99,15.78h-1v0.995h1V15.78M79,18.4H78V19.4h1V18.4M0.99,18.764h-1v0.995h1V18.764M79,21.386H78v0.995h1V21.386M0.99,21.748h-1v0.995h1V21.748M79,24.37H78v0.994h1V24.37M0.99,24.731h-1v0.995h1V24.731M79,27.354H78v0.995h1V27.354M0.99,27.715h-1V28.71h1V27.715m76.053,0.674h-1v0.995h1V28.389m-2.993,0H73.124v1.066h1V28.886H74.05v-0.5m-70.743,0h-1v0.995h1V28.389m2.558,0.5h-1v0.93h1v-0.93m68.257,2.558h-1v0.994h1V31.444m-68.257.361h-1V32.8h1V31.806m68.257,2.622h-1v0.995h1V34.428M5.865,34.79h-1v0.995h1V34.79m68.257,2.622h-1v0.995h1V37.412m-68.257.361h-1v0.995h1V37.773M74.122,40.4h-1V41.39h1V40.4m-68.257.361h-1v0.995h1V40.757m68.257,2.622h-1v0.995h1V43.379M5.865,43.74h-1v0.995h1V43.74m68.257,2.622h-1v0.995h1V46.363m-68.257.362h-1v0.994h1V46.724m68.257,2.622h-1v0.995h1V49.346m-68.257.361h-1V50.7h1V49.708M74.122,52.33h-1v0.995h1V52.33m-68.257.361h-1v0.995h1V52.692m68.257,2.622h-1v0.995h1V55.314m-68.257.362h-1V56.67h1V55.675M74.122,58.3h-1v0.995h1V58.3m-68.257.361h-1v0.995h1V58.659M74.36,60.1l-0.039.994,1,0.039,0.039-.995-1-.039m-70.093.014-1,.039,0.039,0.995,1-.039-0.039-.995m73.084,0.1-0.039.995,1,0.039,0.039-.995-1-.039m-76.074.014-1.284.051v0.67H0.5l0.012,0.3,0.8-.032-0.039-.995M79,62.576H78V63.57h1V62.576M0.99,62.938h-1v0.994h1V62.938M79,65.559H78v0.995h1V65.559M0.99,65.922h-1v0.995h1V65.922M79,68.543H78v0.995h1V68.543M0.99,68.905h-1V69.9h1V68.905M79,71.527H78v0.995h1V71.527M0.99,71.889h-1v0.995h1V71.889M79,74.51H78V75.5h1V74.51M0.99,74.873h-1v0.995h1V74.873M79,77.494H78v0.5H77.677v0.995H79V77.494M0.99,77.856h-1v1.13H0.855v-0.5H0.99V77.856m74.691,0.135h-1v0.995h1V77.991m-2.993,0h-1v0.995h1V77.991m-2.993,0h-1v0.995h1V77.991m-2.993,0h-1v0.995h1V77.991m-2.993,0h-1v0.995h1V77.991m-2.993,0h-1v0.995h1V77.991m-2.993,0h-1v0.995h1V77.991m-2.993,0h-1v0.995h1V77.991m-2.993,0h-1v0.995h1V77.991m-2.993,0h-1v0.995h1V77.991m-2.993,0h-1v0.995h1V77.991m-2.993,0h-1v0.995h1V77.991m-2.993,0h-1v0.995h1V77.991m-2.993,0h-1v0.995h1V77.991m-2.993,0h-1v0.995h1V77.991m-2.993,0h-1v0.995h1V77.991m-2.993,0h-1v0.995h1V77.991m-2.993,0h-1v0.995h1V77.991m-2.993,0h-1v0.995h1V77.991m-2.993,0h-1v0.995h1V77.991m-2.993,0h-1v0.995h1V77.991m-2.993,0h-1v0.995h1V77.991m-2.993,0h-1v0.995h1V77.991m-2.993,0h-1v0.995h1V77.991m-2.993,0h-1v0.995h1V77.991M39.7-.025l-0.958.278,0.279,0.956,0.958-.278L39.7-.025" transform="translate(5.5 5.5)"/>
  <path id="lock"  class="cls-1" d="M16.312,20.519H2.431a1.81,1.81,0,0,1-1.809-1.81v-7.8A1.81,1.81,0,0,1,2.431,9.1h1.23V6.4a5.711,5.711,0,1,1,11.421,0V9.1h1.23a1.81,1.81,0,0,1,1.809,1.81v7.8A1.81,1.81,0,0,1,16.312,20.519ZM11.7,6.4a2.329,2.329,0,1,0-4.658,0V9.1H11.7V6.4Z" transform="translate(35.625 34.391)"/>
</svg>
