<svg id="topmenu" xmlns="http://www.w3.org/2000/svg" width="20" height="20" viewBox="0 0 20 20"><defs><style>.cls-1{fill:#fff;}</style></defs><title>menu-ico</title><path class="cls-1" d="M10,2a8,8,0,1,0,8,8A8,8,0,0,0,10,2Zm0,15a7,7,0,1,1,7-7A7,7,0,0,1,10,17Z"/><path class="cls-1" d="M10,5a5,5,0,0,0-1.53,9.82,1.55,1.55,0,0,0,3.06,0A5,5,0,0,0,10,5Zm1.35,8.83a1.54,1.54,0,0,0-2.71,0A4,4,0,1,1,11.35,13.79Z"/><polygon class="cls-1" points="11.91 9.7 12.15 9.3 11.72 9.12 11.83 8.67 11.37 8.63 11.33 8.17 10.88 8.28 10.7 7.85 10.3 8.09 10 7.74 9.7 8.09 9.3 7.85 9.12 8.28 8.67 8.17 8.63 8.63 8.17 8.67 8.28 9.12 7.85 9.3 8.09 9.7 7.74 10 8.09 10.3 7.85 10.7 8.28 10.88 8.17 11.33 8.63 11.37 8.67 11.83 9.12 11.72 9.3 12.15 9.7 11.91 10 12.26 10.3 11.91 10.7 12.15 10.88 11.72 11.33 11.83 11.37 11.37 11.83 11.33 11.72 10.88 12.15 10.7 11.91 10.3 12.26 10 11.91 9.7"/></svg>