<svg id="main" xmlns="http://www.w3.org/2000/svg" width="32" height="32" viewBox="0 0 32 32"><defs><style>.cls-1{fill:#ffffff;}</style></defs><title>q</title><path class="cls-1" d="M32,20.07a9.59,9.59,0,0,0-.84-2.3c-0.47-1.39-.85-2.81-1.38-4.17-0.47-1.2-1.17-2.23-3-1.62,0.56-1.43-.05-2.2-1-2.89a2.25,2.25,0,0,0-3.19.05c-0.24-1.41-.41-2.68-0.69-3.93a2.46,2.46,0,0,0-.74-1.43c-1.56-1.08-3.21-2-5-3.11-1,1.58-1.9,3.06-2.75,4.59A1.33,1.33,0,0,1,11.83,6C9.94,5.72,8,5.48,6.14,5.26,4,5,3.64,5.29,2.94,7.48l6,4-1.44,2-6.1-4C-0.37,11.59-.37,11.6.87,13.76,2.91,17.31,5,20.85,7,24.43c0.85,1.54,1.59,3,4,1.91-0.6,1.33-.94,2.4.21,3.21a4.44,4.44,0,0,0,1.87,1,5.64,5.64,0,0,0,2-.61c0.5,1.82.5,1.86,2.5,2.05a20.81,20.81,0,0,0,2.71,0,14.28,14.28,0,0,0,4-.21A12.39,12.39,0,0,0,32,20.07ZM18.8,24a4.52,4.52,0,1,1,4.42-4.55A4.55,4.55,0,0,1,18.8,24Z"/><path class="cls-1" d="M12.37,5l2.85-4.73A2.77,2.77,0,0,0,12.37,5Z"/><path class="cls-1" d="M18.71,16.05a3.41,3.41,0,0,0-3.5,3.37A3.44,3.44,0,0,0,18.68,23,3.52,3.52,0,0,0,22.2,19.6,3.46,3.46,0,0,0,18.71,16.05Z"/></svg>