<svg id="main" xmlns="http://www.w3.org/2000/svg" width="32" height="32" viewBox="0 0 32 32"><defs><style>.cls-1{fill:#ffffff;}</style></defs><title>q</title><path class="cls-1" d="M31.89,16.63c0,0.45,0,.83,0,1.2,0,1.28-.52,1.86-1.89,1.72a36.14,36.14,0,0,0-3.65,0l-0.13.54c0.36,0.14.73,0.25,1.08,0.42s0.82,0.47,1.24.7a5.25,5.25,0,0,1-1.33.59c-0.7.1-1.43-.05-2.12,0.06a6.19,6.19,0,0,0-1.11.66c-0.47.2-1,.28-1.49,0.46a4.27,4.27,0,0,0-.73.45,2,2,0,0,0,.7.47c0.56,0.07,1.13,0,1.7,0a1.74,1.74,0,0,1,.79.14c0.21,1.5,1.48.76,2.58,1.23a8.42,8.42,0,0,0-.74,1.09c-0.72,1.53-2.14.91-3.29,1.19a2.43,2.43,0,0,0-1.6,1.31c-0.32,1.24-1.16.84-1.88,0.89-0.54,0-1.09,0-1.89,0a5.92,5.92,0,0,0,.53.91,7.12,7.12,0,0,0,.76.62,3.17,3.17,0,0,1-.91.49A15.43,15.43,0,0,1,5.67,28.17,15.82,15.82,0,0,1,.06,16.63H31.89Z"/><path class="cls-1" d="M26.17,9.27c-0.87,0-1.72,0-2.56,0a2,2,0,0,0-.72.45,1.88,1.88,0,0,0,.72.46c1.22,0,2.44,0,3.61,0,0.48,1.27-.18,1.32-1,1.35a3.38,3.38,0,0,0-1,.41,3.21,3.21,0,0,0,1.09.5c1.74,0.05,3.49,0,5.35,0L32,15.41H0C0.21,14.17.33,13,.63,11.81A15.86,15.86,0,0,1,21.33,1a2.74,2.74,0,0,1,1.48,1.21,1.09,1.09,0,0,1-1,1.62,2.06,2.06,0,0,0-.14.64l2.4,0.21a10.31,10.31,0,0,1-.55,1.19,4.66,4.66,0,0,1-.65.68,2,2,0,0,0,.86.28c1.39-.27,1.57,1.23,2.47,1.66A2.63,2.63,0,0,1,26.17,9.27ZM10.3,3.57A4.46,4.46,0,1,0,14.83,8,4.49,4.49,0,0,0,10.3,3.57Z"/></svg>