<svg id="main" xmlns="http://www.w3.org/2000/svg" width="32" height="32" viewBox="0 0 32 32"><defs><style>.cls-1{fill:#ffffff;}</style></defs><title>q</title><path class="cls-1" d="M22.5,14.52c0,0.55,0,1,0,1.52a6.19,6.19,0,0,1-3,5.44A6.44,6.44,0,0,1,9.6,16.77C9.53,16,9.48,15.25,9.43,14.53H0v3c2,0,3.87,0,5.78,0a0.79,0.79,0,0,1,.91.66,21.38,21.38,0,0,0,1.22,2.89,0.63,0.63,0,0,1-.12.91c-0.71.63-1.39,1.28-2,1.83l2.3,2.49,2.12-2.41c1.33,0.52,2.45,1,3.62,1.4a0.73,0.73,0,0,1,.62.86c0,1.67,0,3.34,0,5,0,0.27,0,.54,0,0.81h3c0-2,0-3.84,0-5.71a0.86,0.86,0,0,1,.82-1,10.64,10.64,0,0,0,1.74-.61c0.54-.22,1.11-0.78,1.55-0.68A4,4,0,0,1,23,25.19L26.93,29,29,26.9c-1.58-1.61-3.17-3.25-4.79-4.87a0.68,0.68,0,0,1-.12-1,17.91,17.91,0,0,0,1.19-2.82,0.82,0.82,0,0,1,1-.7c1.65,0,3.3,0,4.95,0,0.27,0,.54,0,0.79,0v-3H22.5Z"/><path class="cls-1" d="M18.27,18.21a3.1,3.1,0,0,0-.18-4.53,1.43,1.43,0,0,1-.55-1.25c0-3.83,0-7.67,0-11.5V0H14.45c0,0.36,0,.66,0,1,0,3.81,0,7.61,0,11.42a1.52,1.52,0,0,1-.57,1.32,3.1,3.1,0,0,0-.14,4.53A3.21,3.21,0,0,0,18.27,18.21Z"/><path class="cls-1" d="M29.19,4.83l-2-2L20.87,9.26l1.79,2Z"/><path class="cls-1" d="M12.5,10.36L9,7l-2,2,3.31,3.43Z"/></svg>