<svg id="main" xmlns="http://www.w3.org/2000/svg" width="32" height="32" viewBox="0 0 32 32"><defs><style>.cls-1{fill:#ffffff;}</style></defs><title>q</title><path class="cls-1" d="M24,25.2q0-6.84,0-13.67c0-.41-0.06-0.81-0.1-1.25H8c0,5.25,0,10.32,0,15.4,0,1.16,2.08,3,3.33,3q4.63,0,9.26,0A3.81,3.81,0,0,0,24,25.2ZM12.74,12.71a23.45,23.45,0,0,1,3.26,0,22.7,22.7,0,0,1,3.26.05,3.37,3.37,0,0,1,1.21,1.05,3.06,3.06,0,0,1-1.19.95c-2.17.1-4.35,0.1-6.52,0a3.33,3.33,0,0,1-1.29-1A3.54,3.54,0,0,1,12.74,12.71Zm6.36,6.57a19.32,19.32,0,0,1-3.11,0h0a23.07,23.07,0,0,1-3.26,0,3.51,3.51,0,0,1-1.26-1,3.35,3.35,0,0,1,1.29-1c2.12-.1,4.26-0.1,6.38,0a3.42,3.42,0,0,1,1.32.95A3.92,3.92,0,0,1,19.1,19.28Z"/><path class="cls-1" d="M30.77,28.9a11.62,11.62,0,0,1-1.09-5.64c0.09-3.41,0-6.83,0-10.25,0-1.94-.84-2.75-2.78-2.8-0.56,0-1.11,0-1.84,0v1.68c0,4.18,0,8.35,0,12.53a12.46,12.46,0,0,1-.66,3.43c-0.43,1.38-1,2.7-1.63,4.16H32C31.54,30.82,31.23,29.82,30.77,28.9Z"/><path class="cls-1" d="M6.85,23c0.11-3.75,0-7.5,0-11.26,0-.5-0.05-1-0.08-1.51-0.5,0-.82-0.06-1.15-0.07-2.67,0-3.4.67-3.4,3.32s-0.12,5,0,7.55A18.06,18.06,0,0,1,.45,30.7,9.51,9.51,0,0,0,0,32H9.16c-0.4-1-.68-1.91-1.09-2.75A13,13,0,0,1,6.85,23Z"/><path class="cls-1" d="M23.84,9.16a7.83,7.83,0,0,0-3.64-8,8.2,8.2,0,0,0-8.87.28A7.89,7.89,0,0,0,8,9.16H23.84ZM20.48,5.9c0.38-.07.85,0.43,1.67,0.91a4.72,4.72,0,0,1-1.62,1A2.62,2.62,0,0,1,19.47,7,2.86,2.86,0,0,1,20.48,5.9ZM16,1.83A2.17,2.17,0,1,1,13.75,4,2.18,2.18,0,0,1,16,1.83Z"/></svg>