<svg id="main" xmlns="http://www.w3.org/2000/svg" width="32" height="32" viewBox="0 0 32 32"><defs><style>.cls-1{fill:#ffffff;}</style></defs><title>q</title><path class="cls-1" d="M31.69,23.91c-0.6-1.23-1-2.57-1.53-3.84-1.57-3.83-3-7.6-2.81-11.93C27.51,4.42,24,.75,20.3.16a27.74,27.74,0,0,0-4.3,0V0c-0.86,0-1.73.07-2.59,0-4-.36-9.08,3.47-8.95,8.87A19.53,19.53,0,0,1,2.7,17.58c-0.74,1.65-1.33,3.36-2,5-1.24,3.19-1,3.79,1.85,5.68a15.5,15.5,0,0,0,1.75,1,26.21,26.21,0,0,0,19.83,1.39A17.57,17.57,0,0,0,31,27,2.33,2.33,0,0,0,31.69,23.91ZM9.18,28.05a2.52,2.52,0,0,1-.93-0.62,1.86,1.86,0,0,1,.65-0.75,3.52,3.52,0,0,1,1.27.57A2.82,2.82,0,0,1,9.18,28.05Zm3.21-.74a2.46,2.46,0,0,1-1-.43c-0.08-.93-0.37-2,1-2.54v3ZM11.38,17H9.66c-1.61,0-2-.65-1.47-2.17a4,4,0,0,1,4.51-2.16c1.49,0.28,2.07,1.22,2.08,3.07A1,1,0,0,1,13.52,17C12.81,17,12.09,17,11.38,17Zm3.88,10.2-1.48.09V23h1.48v4.23Zm-1.4-5.71a14.71,14.71,0,0,1,1.28-2.88,1.73,1.73,0,0,1,1.64,0A14.42,14.42,0,0,1,18,21.48H13.86Zm4.27,5.69H16.61V23h1.52v4.2ZM17.21,16.31a2.81,2.81,0,0,1,1-3.29,4,4,0,0,1,5.56,2c0.42,1.36.06,1.89-1.34,1.93-0.67,0-1.34,0-2,0a5.87,5.87,0,0,1-1.29,0C18.46,16.83,17.47,16.76,17.21,16.31Zm2.26,8.18,0.5-.18L20.69,27C19.32,27.24,19.32,27.24,19.47,24.49ZM23,28.05a2.52,2.52,0,0,1-.93-0.62,1.86,1.86,0,0,1,.65-0.75,3.52,3.52,0,0,1,1.27.57A2.82,2.82,0,0,1,23,28.05Zm7-2.59a2.58,2.58,0,0,1-.85-0.71c-1.25-3.08-2.45-6.19-3.67-9.28a20.52,20.52,0,0,0-.85-2,4.64,4.64,0,0,0-6.78-2.08,3.35,3.35,0,0,1-3.72,0c-2.76-1.54-5.57-.59-6.87,2.38C5.7,17.24,4.4,20.77,3,24.26a3.49,3.49,0,0,1-.39.91,1.68,1.68,0,0,1-.7.28,5.56,5.56,0,0,1-.22-0.61,0.56,0.56,0,0,1,.09-0.27c1.57-3.93,3.06-7.89,4.76-11.76a5.5,5.5,0,0,1,5.15-3.26,20.46,20.46,0,0,1,3.06,1.07,2.23,2.23,0,0,0,2.39,0c3.46-1.87,6.89-.81,8.48,2.77s3,7.41,4.41,11.13A2.32,2.32,0,0,1,29.94,25.46Z"/></svg>