<svg id="attack" xmlns="http://www.w3.org/2000/svg" width="16" height="15" viewBox="0 0 16 15"><defs><style>.cls-1{fill:#919191;}</style></defs><title>ico</title><path class="cls-1" d="M4.31,1.51l7.92,7.92A5.69,5.69,0,0,1,4.31,1.51M4.24,0A6.69,6.69,0,0,0,13.7,9.49L4.24,0h0Z"/><path class="cls-1" d="M9.82,2.4a1.77,1.77,0,0,0-1.25.51l2.5,2.5a1.77,1.77,0,0,0-1.25-3h0Z"/><path class="cls-1" d="M4.19,12.25A9.88,9.88,0,0,0,5.56,13C5.69,13.38,5.82,13.69,6,14H3.47a10.45,10.45,0,0,1,.72-1.72m-0.31-1.5A9.63,9.63,0,0,0,2.3,15H7.73A9.26,9.26,0,0,1,6.36,12.3a9.07,9.07,0,0,1-2.49-1.55h0Z"/></svg>