<svg id="attack" xmlns="http://www.w3.org/2000/svg" width="16" height="16" viewBox="0 0 16 16"><defs><style>.cls-1{fill:#919191;}</style></defs><title>ico</title><g id="_Группа_" data-name="&lt;Группа&gt;"><path class="cls-1" d="M11.17,2.88a2.37,2.37,0,0,1,2.09,1.18C15.78,8,8,12.88,8,12.88s-7.87-5-5.24-8.82A2.44,2.44,0,0,1,4.88,2.92,6,6,0,0,1,8,4.16a6,6,0,0,1,3.16-1.28m0-1.3h0A6.39,6.39,0,0,0,8,2.59a6.42,6.42,0,0,0-3.13-1A3.72,3.72,0,0,0,1.7,3.33,4.31,4.31,0,0,0,1,6.71C1.79,10.39,6.76,13.62,7.32,14L8,14.42,8.71,14c0.55-.35,5.43-3.53,6.24-7.2a4.42,4.42,0,0,0-.6-3.42,3.66,3.66,0,0,0-3.18-1.78h0Z"/></g></svg>