<svg id="bild" xmlns="http://www.w3.org/2000/svg" width="16" height="16" viewBox="0 0 16 16"><defs><style>.cls-1{fill:#919191;}.cls-2,.cls-3{fill:none;stroke:#919191;stroke-miterlimit:10;}.cls-2{stroke-linecap:round;stroke-width:0.5px;}</style></defs><title>ico_watch</title><path class="cls-1" d="M8,2A6,6,0,1,1,2,8,6,6,0,0,1,8,2M8,1a7,7,0,1,0,7,7A7,7,0,0,0,8,1H8Z"/><path class="cls-1" d="M8,7A1,1,0,1,0,9,8,1,1,0,0,0,8,7H8Z"/><line class="cls-2" x1="8" y1="3.68" x2="8" y2="4.87"/><line class="cls-2" x1="8" y1="11.13" x2="8" y2="12.32"/><line class="cls-2" x1="3.68" y1="8" x2="4.87" y2="8"/><line class="cls-2" x1="11.13" y1="8" x2="12.32" y2="8"/><line class="cls-2" x1="4.95" y1="4.95" x2="5.79" y2="5.79"/><line class="cls-2" x1="10.21" y1="10.21" x2="11.05" y2="11.05"/><line class="cls-2" x1="4.95" y1="11.05" x2="5.79" y2="10.21"/><line class="cls-2" x1="10.21" y1="5.79" x2="11.05" y2="4.95"/><line class="cls-3" x1="8" y1="8" x2="11.05" y2="11.05"/></svg>