<svg id="attack" xmlns="http://www.w3.org/2000/svg" width="16" height="16" viewBox="0 0 16 16"><defs><style>.cls-1{fill:#919191;}</style></defs><title>ico</title><path class="cls-1" d="M14,2L12.73,5.08,5.87,11.94l1,1L6,13.82,4.52,12.31,2.34,14.5,1.5,13.66l2.18-2.18L2.18,10,3,9.11l1,1,6.86-6.86L14,2m1.87-1.87L13.66,1,10.53,2.35l-0.18.08-0.14.14L4.06,8.71,3.74,8.4,3,7.69,2.33,8.4l-0.86.86L0.76,10l0.71,0.71,0.81,0.81L0.8,13l-0.71.71L0.8,14.37,1.63,15.2l0.71,0.71L3,15.2l1.48-1.48,0.81,0.81L6,15.24l0.71-.71,0.86-.86L8.31,13,7.6,12.26l-0.32-.32,6.15-6.15,0.14-.14,0.08-.18L15,2.34l0.95-2.25h0Z"/></svg>