<svg id="attack" xmlns="http://www.w3.org/2000/svg" width="19" height="16" viewBox="0 0 19 16"><defs><style>.cls-1{fill:#919191;}.cls-2,.cls-3,.cls-4,.cls-5{fill:none;stroke:#919191;stroke-miterlimit:10;}.cls-2,.cls-4{stroke-linecap:round;}.cls-2{stroke-width:0.5px;}.cls-4,.cls-5{stroke-width:1.3px;}</style></defs><title>ico</title><path class="cls-1" d="M7.85,7a1,1,0,1,0,1,1,1,1,0,0,0-1-1h0Z"/><line class="cls-2" x1="7.85" y1="3.68" x2="7.85" y2="4.87"/><line class="cls-2" x1="7.85" y1="11.13" x2="7.85" y2="12.32"/><line class="cls-2" x1="3.53" y1="8" x2="4.72" y2="8"/><line class="cls-2" x1="4.8" y1="4.95" x2="5.64" y2="5.79"/><line class="cls-2" x1="4.8" y1="11.05" x2="5.64" y2="10.21"/><line class="cls-3" x1="7.85" y1="8" x2="4.8" y2="11.05"/><polygon class="cls-4" points="17.92 8 14.35 4.43 14.35 5.88 11.58 5.88 11.58 10.12 14.35 10.12 14.35 11.57 17.92 8"/><path class="cls-5" d="M11.58,2.11A7,7,0,1,0,7.81,15a7,7,0,0,0,3.77-1.11"/></svg>