<svg id="attack" xmlns="http://www.w3.org/2000/svg" width="16" height="19" viewBox="0 0 16 19"><defs><style>.cls-1{fill:#919191;}</style></defs><title>ico_location</title><path class="cls-1" d="M8,18.82a7.65,7.65,0,0,1-5.47-13L3.46,6.74a6.35,6.35,0,1,0,9.08,0l0.93-.91A7.65,7.65,0,0,1,8,18.82Z"/><path class="cls-1" d="M8,11l-0.5-.58c-0.12-.14-3-3.54-3-6.74a3.53,3.53,0,0,1,7.06,0c0,3.07-2.91,6.58-3,6.73ZM8,1.48A2.23,2.23,0,0,0,5.77,3.71C5.77,5.7,7.21,7.91,8,9c0.79-1.09,2.24-3.35,2.24-5.25A2.23,2.23,0,0,0,8,1.48Z"/></svg>