<svg id="Группа_1" data-name="Группа 1" xmlns="http://www.w3.org/2000/svg" width="90" height="90" viewBox="0 0 90 90">
  <defs>
    <style>
      .cls-1 {
        fill: #fff;
        fill-rule: evenodd;
      }
    </style>
  </defs>
  <path id="Фигура_8" data-name="Фигура 8" class="cls-1" d="M864.581,629.333c0,2.584-1.645,5.663-9.481,5.663s-9.482-3.079-9.482-5.663c0-3.8,3.6-8.331,8.285-9.01a5.856,5.856,0,1,1,2.394,0C860.978,621,864.581,625.528,864.581,629.333Zm-5.664-14.616a3.818,3.818,0,1,0-3.817,3.735A3.781,3.781,0,0,0,858.917,614.717Zm-3.817,7.5c-3.939,0-7.445,3.978-7.445,7.113,0,2.435,2.5,3.67,7.445,3.67s7.444-1.235,7.444-3.67C862.544,626.2,859.039,622.22,855.1,622.22Z" transform="translate(-810 -575)"/>
</svg>
