<svg xmlns="http://www.w3.org/2000/svg" width="20.82" height="20" viewBox="0 0 20.82 20">
  <defs>
    <style>
      .cls-1 {
        fill: #fff;
        fill-rule: evenodd;
      }
    </style>
  </defs>
  <path id="Фигура_3" data-name="Фигура 3" class="cls-1" d="M1023.16,492.625c-0.44.613-.85,1.244-1.31,1.835-0.95,1.212-1.9,2.426-2.9,3.6a6.83,6.83,0,0,1-2.17,1.737,2.118,2.118,0,0,1-2.23-.128c-0.44-.3-0.86-0.624-1.28-0.95a3.313,3.313,0,0,0-3.62-.394,11.4,11.4,0,0,0-2.69,1.782,0.378,0.378,0,0,0-.06.317c0.56,2.288,1.14,4.574,1.71,6.86,0.1,0.4.2,0.8,0.3,1.213h-2.33c-0.24-.931-0.47-1.858-0.7-2.786q-1.725-6.911-3.46-13.82a0.876,0.876,0,0,0-.08-0.213v-0.106c0.56-.21,1.12-0.408,1.67-0.635a4.357,4.357,0,0,0,.85-0.448A10.293,10.293,0,0,1,1009,488.5h0.57a3.725,3.725,0,0,1,2.34,1.547c0.3,0.373.6,0.752,0.91,1.12a6.173,6.173,0,0,0,2.41,1.905,6.953,6.953,0,0,0,3.97.218,17.757,17.757,0,0,0,3.27-1.007,0.549,0.549,0,0,1,.69.081v0.264Z" transform="translate(-1002.34 -488.5)"/>
</svg>
