<svg id="topmenu" xmlns="http://www.w3.org/2000/svg" width="14" height="14" viewBox="0 0 14 14"><defs><style>.cls-1{fill:#db3535;}</style></defs><title>ico_resurce</title><polygon class="cls-1" points="8.97 5.39 7.76 5.39 7 4.44 6.24 5.39 5.03 5.39 5.31 6.57 4.55 7.52 5.64 8.05 5.91 9.23 7 8.71 8.09 9.23 8.36 8.05 9.45 7.52 8.69 6.57 8.97 5.39"/><path class="cls-1" d="M7,0L0.94,3.5v7L7,14l6.06-3.5v-7ZM9.31,8.81l-0.46,2L7,9.91l-1.85.9-0.46-2-1.85-.9L4.12,6.3l-0.46-2H5.71L7,2.69,8.29,4.3h2.06l-0.46,2,1.29,1.61Z"/></svg>