<svg id="topmenu" xmlns="http://www.w3.org/2000/svg" width="14" height="14" viewBox="0 0 14 14"><defs><style>.cls-1{fill:#fbed6b;}</style></defs><title>ico_resurce</title><path class="cls-1" d="M7.55,7.17C6.77,9.81,6,12.32,7.43,13.9a0.59,0.59,0,0,1,.07.1l1.4-.81C8.3,11.31,9,9,9.62,6.83c0.56-1.86,1.09-3.67.85-5.11L8.1,0.34C9,2.3,8.27,4.76,7.55,7.17Z"/><path class="cls-1" d="M6.46,6.83C7.25,4.19,8,1.68,6.59.1A0.59,0.59,0,0,1,6.52,0l-1.4.81C5.72,2.69,5,5,4.39,7.17,3.83,9,3.3,10.84,3.53,12.28l2.39,1.39C5,11.7,5.75,9.24,6.46,6.83Z"/><path class="cls-1" d="M11.67,2.41a17.15,17.15,0,0,1-1,4.75c-0.6,2-1.16,3.93-.8,5.45l3.4-2V3.36Z"/><path class="cls-1" d="M3.3,6.83c0.6-2,1.16-3.93.8-5.45l-3.4,2v7.28l1.64,1A17.88,17.88,0,0,1,3.3,6.83Z"/></svg>