<svg xmlns="http://www.w3.org/2000/svg" width="54" height="54" viewBox="0 0 54 54">
  <path d="M33.673,41.6a13.262,13.262,0,0,1-3.715.2,19.288,19.288,0,0,1-2.529.046c-1.868-.181-1.865-0.219-2.331-1.924a5.241,5.241,0,0,1-1.879.572,4.14,4.14,0,0,1-1.742-.915c-1.077-.753-0.758-1.755-0.2-3.006-2.221,1.04-2.917-.346-3.709-1.789-1.846-3.363-3.784-6.675-5.684-10.008-1.157-2.029-1.157-2.029.492-3.957l5.69,3.78,1.342-1.913-5.6-3.8c0.658-2.052,1-2.307,2.991-2.081,1.772,0.2,3.544.427,5.3,0.71a1.236,1.236,0,0,0,1.505-.7c0.79-1.435,1.673-2.82,2.564-4.3,1.625,1.011,3.163,1.907,4.621,2.917a2.314,2.314,0,0,1,.693,1.338c0.261,1.167.417,2.357,0.64,3.681A2.091,2.091,0,0,1,35.1,20.4a2.028,2.028,0,0,1,.977,2.712c1.673-.577,2.323.391,2.762,1.514,0.5,1.277.851,2.611,1.292,3.911a9.019,9.019,0,0,1,.783,2.154A11.612,11.612,0,0,1,33.673,41.6ZM28.39,25.1a5.067,5.067,0,1,0,5.173,5.022A5.085,5.085,0,0,0,28.39,25.1ZM28.5,33.521a3.318,3.318,0,0,1-3.331-3.44,3.283,3.283,0,0,1,3.362-3.256,3.33,3.33,0,0,1,3.353,3.423A3.387,3.387,0,0,1,28.5,33.521ZM21.9,13.07a2.567,2.567,0,0,1,3.368-.943l-2.657,4.435A2.587,2.587,0,0,1,21.9,13.07Z" transform="translate(1.016 0.125)"/>
</svg>
