<svg xmlns="http://www.w3.org/2000/svg" width="54" height="54" viewBox="0 0 54 54">
  <path d="M41.259,30.267c-1.546,0-3.093.019-4.639-.008a0.772,0.772,0,0,0-.906.655A16.837,16.837,0,0,1,34.6,33.568a0.643,0.643,0,0,0,.116.917c1.52,1.52,3.015,3.064,4.494,4.574l-1.971,2-3.7-3.6a3.7,3.7,0,0,0-1.258-1.145,3.469,3.469,0,0,0-1.457.635,9.958,9.958,0,0,1-1.629.578,0.809,0.809,0,0,0-.77.963c0.049,1.761.017,3.525,0.017,5.369H25.592c-0.014-.253-0.041-0.507-0.042-0.76,0-1.572-.012-3.143,0-4.714a0.689,0.689,0,0,0-.579-0.811c-1.094-.344-2.147-0.82-3.4-1.313L19.6,38.519l-2.152-2.336C18,35.666,18.638,35.049,19.3,34.46a0.589,0.589,0,0,0,.111-0.858,20.1,20.1,0,0,1-1.144-2.719,0.737,0.737,0,0,0-.854-0.623c-1.786.024-3.572,0.01-5.416,0.01V27.436h8.84c0.052,0.681.093,1.395,0.161,2.105a6.038,6.038,0,0,0,9.276,4.429,5.819,5.819,0,0,0,2.814-5.109c0-.456,0-0.913,0-1.432H42v2.8C41.767,30.24,41.513,30.266,41.259,30.267Zm-9.693-7.78L37.5,16.431l1.867,1.9-6.117,6.006Zm-6.673,8.427a2.913,2.913,0,0,1,.129-4.254,1.425,1.425,0,0,0,.534-1.241c-0.015-3.577-.008-7.155-0.008-10.732v-0.9h2.9v0.874c0,3.6.007,7.2-.008,10.8a1.349,1.349,0,0,0,.513,1.178,2.913,2.913,0,0,1,.171,4.253A3,3,0,0,1,24.893,30.914Zm-6.279-8.683,1.841-1.871,3.261,3.161-2,1.931Z" transform="translate(0 -1.813)"/>
</svg>
