<svg xmlns="http://www.w3.org/2000/svg" width="54" height="54" viewBox="0 0 54 54">
  <path d="M14.282,26.388c0.176-1.015.271-2,.523-2.951a13.12,13.12,0,0,1,17.1-8.9,2.259,2.259,0,0,1,1.226.989,0.894,0.894,0,0,1-.792,1.328,1.678,1.678,0,0,0-.112.524l1.98,0.174a8.416,8.416,0,0,1-.457.973,3.838,3.838,0,0,1-.534.559,1.691,1.691,0,0,0,.71.232c1.149-.224,1.3,1.007,2.043,1.362a2.144,2.144,0,0,1-.059.678c-0.722,0-1.42-.029-2.113.018a1.63,1.63,0,0,0-.6.368,1.556,1.556,0,0,0,.594.375c1.009,0.039,2.02.018,2.98,0.018,0.4,1.04-.148,1.085-0.825,1.106a2.808,2.808,0,0,0-.864.335,2.659,2.659,0,0,0,.9.412c1.441,0.044,2.885.02,4.424,0.02l0.314,2.38H14.282Zm8.509-9.7a3.658,3.658,0,1,0,3.743,3.663A3.693,3.693,0,0,0,22.791,16.683ZM40.632,28.378a1.206,1.206,0,0,1-1.558,1.408c-0.995-.1-2.008-0.021-3.013-0.021l-0.111.443c0.3,0.114.606,0.207,0.892,0.346,0.35,0.171.681,0.381,1.021,0.575a4.353,4.353,0,0,1-1.1.481c-0.575.082-1.182-.045-1.754,0.047a5.121,5.121,0,0,0-.919.543c-0.391.166-.826,0.228-1.227,0.376a3.528,3.528,0,0,0-.607.37,1.672,1.672,0,0,0,.58.384c0.462,0.06.937,0.011,1.406,0.03a1.445,1.445,0,0,1,.655.119c0.169,1.233,1.219.623,2.129,1.01a6.893,6.893,0,0,0-.614.892c-0.6,1.254-1.769.745-2.722,0.974A2,2,0,0,0,32.37,37.43c-0.266,1.014-.957.69-1.55,0.733-0.449.032-.9,0.006-1.56,0.006a4.837,4.837,0,0,0,.439.745,5.837,5.837,0,0,0,.624.511,2.622,2.622,0,0,1-.755.4,12.816,12.816,0,0,1-10.6-2.972,12.935,12.935,0,0,1-4.638-9.463h26.3C40.632,27.763,40.629,28.07,40.632,28.378Z" transform="translate(-0.5 0.125)"/>
</svg>
