<svg class="svg" xmlns="http://www.w3.org/2000/svg" width="90" height="90" viewBox="0 0 90 90"><path d="M34.514,20.91c0.15-.633.265-1.244,0.441-1.842,1.028-3.5.6-4.4-3.052-6.316-0.179.2-.373,0.4-0.55,0.613-4.2,5.078-8.431,10.139-12.584,15.249a30.229,30.229,0,0,0-2.426,3.762c-0.587.992-1.05,2.04-1.6,3.047a4.5,4.5,0,0,1-.769,1.017,2.618,2.618,0,0,1-2.879.526,1.6,1.6,0,0,1-.828-2.006,12.653,12.653,0,0,1,2.987-6.2c2.163-2.532,4.28-5.1,6.46-7.616a1.026,1.026,0,0,0,0-1.614c-1.9-2.22-3.722-4.5-5.657-6.859-0.907.622-1.835,1.161-2.629,1.827a2.823,2.823,0,0,0-.808,3.057c0.266,1.11.582,2.212,0.747,3.391C6.178,19.38,2.955,15.983.241,11.942,5.249,8.8,8.949,4,13.965.857,15.667,2.982,18.54,6.732,20.2,8.8L18.453,9.961l4.53,6.374,4.588-6.393L25.793,8.826c1.671-2.1,4.55-5.846,6.243-7.969,4.967,3.115,8.652,7.911,13.573,11C44.44,15.261,37.846,20.683,34.514,20.91ZM33.232,29.4A11.6,11.6,0,0,1,35.7,34.815c0.216,1.169-.111,1.924-0.9,2.2a2.593,2.593,0,0,1-3.019-.827,12.887,12.887,0,0,1-1.444-2.463,25.327,25.327,0,0,0-4.637-6.952c-0.405-.442-0.763-0.918-1.165-1.4l2.588-3.11C29.216,24.692,31.256,27.024,33.232,29.4Z" transform="translate(22.078 25.984)"/></svg>
