<svg class="storage_ico" xmlns="http://www.w3.org/2000/svg" width="54" height="54" viewBox="0 0 54 54">
  <path class="storage_ico-lock" d="M595.558,47.645H595.38V46.29a2.88,2.88,0,0,0-5.76,0v1.355h-0.178A1.353,1.353,0,0,0,588.087,49v3.038a1.353,1.353,0,0,0,1.355,1.35h6.116a1.353,1.353,0,0,0,1.355-1.35V49A1.353,1.353,0,0,0,595.558,47.645Zm-4.233-1.355a1.175,1.175,0,0,1,2.35,0v1.355h-2.35V46.29Z" transform="translate(-565.5 -19.172)"/>
  <path class="storage_ico-ready" d="M597.3,48.1l-1.6,1.646a0.675,0.675,0,0,1-.972,0l-3.848-3.95a1.383,1.383,0,0,1-.389-1l0.031-1.343a0.658,0.658,0,0,1,.654-0.652l1.4,0.007a1.313,1.313,0,0,1,.933.4L597.3,47.1A0.72,0.72,0,0,1,597.3,48.1Zm-4.725.993-3.48,3.572a0.336,0.336,0,0,1-.483,0L587.6,51.624a0.357,0.357,0,0,1,0-.5l3.48-3.572Z" transform="translate(-565.5 -19.172)"/>
  <path class="storage_ico-inner" d="M607,66.027V59.052H578v6.975h-5.5v-27l20.337-11.61L612.5,38.979V66.027H607Zm-3,0H581V62.041h23v3.985Z" transform="translate(-565.5 -19.172)"/>
  <path class="storage_ico-frame" d="M592.874,21.657L617.5,36.134V70.7h-50V36.142l25.374-14.486" transform="translate(-565.5 -19.172)"/>
</svg>
