<svg class="storage_ico" xmlns="http://www.w3.org/2000/svg" width="54" height="54" viewBox="0 0 54 54">
  <path class="storage_ico-lock" d="M768.058,47.335H767.88V45.981a2.88,2.88,0,0,0-5.76,0v1.354h-0.178a1.352,1.352,0,0,0-1.355,1.35v3.038a1.352,1.352,0,0,0,1.355,1.35h6.116a1.353,1.353,0,0,0,1.355-1.35V48.686A1.353,1.353,0,0,0,768.058,47.335Zm-4.233-1.354a1.175,1.175,0,0,1,2.349,0v1.354h-2.349V45.981Z" transform="translate(-738 -18.859)"/>
  <path class="storage_ico-ready" d="M769.8,48.1l-1.6,1.646a0.675,0.675,0,0,1-.972,0l-3.848-3.95a1.379,1.379,0,0,1-.389-1l0.031-1.343a0.658,0.658,0,0,1,.654-0.652l1.4,0.007a1.313,1.313,0,0,1,.933.4L769.8,47.1A0.72,0.72,0,0,1,769.8,48.1Zm-4.725.993-3.48,3.572a0.336,0.336,0,0,1-.483,0L760.1,51.624a0.357,0.357,0,0,1,0-.5l3.48-3.572Z" transform="translate(-738 -18.859)"/>
  <path class="storage_ico-inner" d="M781.75,31.117l-16.416-4.879-17.084,4.94V63.5a2.348,2.348,0,0,0,2.352,2.343h28.8A2.348,2.348,0,0,0,781.75,63.5V31.117Z" transform="translate(-738 -18.859)"/>
  <path class="storage_ico-frame" d="M765.354,21.045L790,28.37v9.541h-3.25V60.883l0.961,0.038L790,61.01V70.7H740V61.01l2.289-.089,0.961-.038V37.911H740V28.376l25.354-7.331" transform="translate(-738 -18.859)"/>
</svg>
