<svg class="storage_ico" xmlns="http://www.w3.org/2000/svg" width="54" height="54" viewBox="0 0 54 54">
  <path class="storage_ico-lock" d="M680.382,48.335H680.2V46.981a2.88,2.88,0,0,0-5.76,0v1.354h-0.178a1.352,1.352,0,0,0-1.355,1.35v3.038a1.352,1.352,0,0,0,1.355,1.35h6.116a1.353,1.353,0,0,0,1.355-1.35V49.686A1.353,1.353,0,0,0,680.382,48.335Zm-4.233-1.354a1.175,1.175,0,0,1,2.349,0v1.354h-2.349V46.981Z" transform="translate(-650.5 -19.922)"/>
  <path class="storage_ico-ready" d="M682.049,51.09l-1.6,1.646a0.675,0.675,0,0,1-.972,0l-3.848-3.95a1.379,1.379,0,0,1-.389-1l0.031-1.343a0.658,0.658,0,0,1,.654-0.652l1.4,0.007a1.313,1.313,0,0,1,.933.4l3.791,3.891A0.72,0.72,0,0,1,682.049,51.09Zm-4.725.993-3.48,3.572a0.336,0.336,0,0,1-.483,0l-1.011-1.038a0.357,0.357,0,0,1,0-.5l3.48-3.572Z" transform="translate(-650.5 -19.922)"/>
  <path class="storage_ico-inner" d="M656.75,67.027V30.234l17,7.83v-7.83l23,10.631V67.027h-40Zm33.179-37.789,6.821,3.142v4.842l-6.821-3.142V29.238Z" transform="translate(-650.5 -19.922)"/>
  <path class="storage_ico-frame" d="M686.5,22.413l16,7.025v42h-50v-49l15.584,7.109,1.416,0.646V22.437l15.584,7.109,1.416,0.646V22.612" transform="translate(-650.5 -19.922)"/>
</svg>
