<svg class="storage_ico" xmlns="http://www.w3.org/2000/svg" width="54" height="54" viewBox="0 0 54 54">
  <path class="storage_ico-lock" d="M422.132,45.652h-0.178V44.3a2.88,2.88,0,0,0-5.76,0v1.355h-0.178A1.352,1.352,0,0,0,414.661,47v3.038a1.352,1.352,0,0,0,1.355,1.35h6.116a1.353,1.353,0,0,0,1.355-1.35V47A1.353,1.353,0,0,0,422.132,45.652ZM417.9,44.3a1.175,1.175,0,0,1,2.349,0v1.355H417.9V44.3Z" transform="translate(-392 -19.094)"/>
  <path class="storage_ico-ready" d="M423.8,46.1l-1.6,1.646a0.675,0.675,0,0,1-.972,0l-3.848-3.95a1.378,1.378,0,0,1-.389-1l0.031-1.343a0.658,0.658,0,0,1,.654-0.652l1.4,0.007a1.313,1.313,0,0,1,.933.4l3.791,3.891A0.72,0.72,0,0,1,423.8,46.1Zm-4.725.993-3.48,3.572a0.336,0.336,0,0,1-.483,0L414.1,49.631a0.357,0.357,0,0,1,0-.5l3.48-3.572Z" transform="translate(-392 -19.094)"/>
  <path class="storage_ico-inner" d="M419,25.863A19.927,19.927,0,1,1,399,45.79a19.986,19.986,0,0,1,20-19.927" transform="translate(-392 -19.094)"/>
  <path class="storage_ico-frame" d="M419,21.191A24.909,24.909,0,1,1,394,46.1a24.983,24.983,0,0,1,25-24.909" transform="translate(-392 -19.094)"/>
</svg>