<svg class="storage_ico" xmlns="http://www.w3.org/2000/svg" width="54" height="54" viewBox="0 0 54 54">
  <path class="storage_ico-lock" d="M509.882,43.659H509.7V42.3a2.88,2.88,0,0,0-5.76,0v1.355h-0.178a1.352,1.352,0,0,0-1.355,1.35v3.038a1.352,1.352,0,0,0,1.355,1.35h6.116a1.353,1.353,0,0,0,1.355-1.35V45.01A1.353,1.353,0,0,0,509.882,43.659ZM505.649,42.3a1.175,1.175,0,0,1,2.349,0v1.355h-2.349V42.3Z" transform="translate(-479.75 -19.078)"/>
  <path class="storage_ico-ready" d="M511.549,44.112l-1.6,1.646a0.675,0.675,0,0,1-.972,0l-3.848-3.95a1.378,1.378,0,0,1-.389-1l0.031-1.343a0.658,0.658,0,0,1,.654-0.652l1.4,0.007a1.313,1.313,0,0,1,.933.4l3.791,3.891A0.72,0.72,0,0,1,511.549,44.112Zm-4.725.993-3.48,3.572a0.336,0.336,0,0,1-.483,0l-1.011-1.038a0.357,0.357,0,0,1,0-.5l3.48-3.572Z" transform="translate(-479.75 -19.078)"/>
  <path class="storage_ico-inner" d="M491.871,29.011a2.35,2.35,0,0,0-2.346,2.4c0.167,8.216.672,14.365,1.509,18.325,0.7,3.329,4.006,7.26,9.3,11.067a59.887,59.887,0,0,0,6.317,3.938c6.3-3.325,14.586-9.36,15.8-15.019,0.846-3.954,1.356-10.1,1.526-18.308a2.353,2.353,0,0,0-2.349-2.4H491.871Z" transform="translate(-479.75 -19.078)"/>
  <path class="storage_ico-frame" d="M523.471,21.256l0,0c0.874,0.5,1.759.991,2.644,1.477,0.911,0.5,1.854,1.021,2.765,1.548a0.684,0.684,0,0,1,.154.148c0.034,12.425-.537,21.479-1.7,26.91-2.2,10.306-17.965,18.243-20.73,19.562-2.742-1.324-18.291-9.248-20.469-19.56-1.147-5.433-1.711-14.488-1.677-26.916a0.655,0.655,0,0,1,.15-0.148c0.9-.527,1.831-1.046,2.732-1.548,0.869-.485,1.739-0.97,2.6-1.471a9.879,9.879,0,0,0,7.965,3.349l0.249,0h16.984l0.268,0a10.043,10.043,0,0,0,8.06-3.355" transform="translate(-479.75 -19.078)"/>
</svg>
