<svg id="massanger" xmlns="http://www.w3.org/2000/svg" width="22" height="10" viewBox="0 0 22 10"><defs><style>.cls-1{fill:#2a2c33;}.cls-2{fill:#fff;}</style></defs><title>ico</title><path class="cls-1" d="M9.77,8.64L7.9,6.77A4.33,4.33,0,0,0,4.33,0,4.33,4.33,0,0,0,1.27,7.39a4.32,4.32,0,0,0,5.5.51L8.64,9.77a0.8,0.8,0,0,0,1.13,0h0A0.8,0.8,0,0,0,9.77,8.64ZM2.33,6.32a2.82,2.82,0,1,1,2,.83A2.8,2.8,0,0,1,2.33,6.32Z"/><path class="cls-2" d="M21.77,8.64L19.9,6.77A4.33,4.33,0,1,0,18.77,7.9l1.87,1.87a0.8,0.8,0,0,0,1.13,0h0A0.8,0.8,0,0,0,21.77,8.64ZM14.33,6.32a2.82,2.82,0,1,1,2,.83A2.8,2.8,0,0,1,14.33,6.32Z"/></svg>