<?xml version="1.0" encoding="utf-8"?>
<!-- Generator: Adobe Illustrator 19.2.1, SVG Export Plug-In . SVG Version: 6.00 Build 0)  -->
<svg version="1.1" id="main_symbols" xmlns="http://www.w3.org/2000/svg" xmlns:xlink="http://www.w3.org/1999/xlink" x="0px"
	 y="0px" width="22px" height="10px" viewBox="0 0 22 10" style="enable-background:new 0 0 22 10;" xml:space="preserve">
<style type="text/css">
		.st0{fill:#2a2c33;}
	.st1{fill:#FFFFFF;}
</style>
<title>ico_</title>
<path class="st0" d="M7.5,5l2-2c0.7-0.7,0.7-1.8,0-2.5S7.7-0.2,7,0.5l-2,2l-2-2c-0.7-0.7-1.8-0.7-2.5,0s-0.7,1.8,0,2.5l2,2l-2,2
	c-0.7,0.7-0.7,1.8,0,2.5s1.8,0.7,2.5,0l0,0l2-2l2,2c0.7,0.7,1.8,0.7,2.5,0s0.7-1.8,0-2.5L7.5,5z"/>
<path class="st1" d="M19.5,5l2-2c0.7-0.7,0.7-1.8,0-2.5s-1.8-0.7-2.5,0l0,0l-2,2l-2-2c-0.7-0.7-1.8-0.7-2.5,0s-0.7,1.8,0,2.5l2,2
	l-2,2c-0.7,0.7-0.7,1.8,0,2.5s1.8,0.7,2.5,0l2-2l2,2c0.7,0.7,1.8,0.7,2.5,0s0.7-1.8,0-2.5L19.5,5z"/>
</svg>
