<?xml version="1.0" encoding="utf-8"?>
<!-- Generator: Adobe Illustrator 19.2.1, SVG Export Plug-In . SVG Version: 6.00 Build 0)  -->
<svg version="1.1" id="main_symbols" xmlns="http://www.w3.org/2000/svg" xmlns:xlink="http://www.w3.org/1999/xlink" x="0px"
	 y="0px" width="34px" height="16px" viewBox="0 0 34 16" style="enable-background:new 0 0 34 16;" xml:space="preserve">
<style type="text/css">
	.st0{opacity:0.5;}
	.st1{fill:#888EAB;}
	.st2{fill:#FFFFFF;}
</style>
<title>ico_</title>
<g class="st0">
	<g id="_Группа_">
		<g id="_Группа_2">
			<path class="st1" d="M8.7,2L8.7,2c0.1,0.5,0.1,0.8,0.2,1.2c0,0.4,0.3,0.7,0.6,0.9c0.3,0.2,0.6,0.4,1,0.6c0.2,0.1,0.4,0.2,0.6,0.2
				c0.2,0,0.3,0,0.5-0.1l0.8-0.3l0.3-0.1h0.1l0,0.1l0.8,1.3l-0.9,0.7c-0.4,0.3-0.6,0.8-0.5,1.3c0,0.2,0,0.5,0,0.7
				c-0.1,0.5,0.1,1,0.5,1.2l0.8,0.5l0.2,0.1L13,11.8l-1.2-0.5c-0.1-0.1-0.3-0.1-0.4-0.1l0,0c-0.2,0-0.4,0-0.6,0.1L9.7,12
				c-0.3,0.2-0.5,0.5-0.6,0.8C9,13.2,9,13.6,8.9,14H7.1c-0.1-0.4-0.1-0.8-0.2-1.2c-0.1-0.4-0.3-0.7-0.6-0.8l-0.4-0.2l-0.5-0.3
				c-0.4-0.2-0.8-0.3-1.2-0.1l-1.1,0.4l-0.8-1.4l0.1-0.1l0.9-0.7c0.3-0.3,0.5-0.7,0.4-1.1c-0.1-0.3-0.1-0.5,0-0.8
				C3.7,7.2,3.5,6.6,3,6.4v0L2.9,6.2L2.6,6L2.2,5.7L3,4.3l1.2,0.5c0.4,0.2,0.8,0.1,1.1-0.1l0.6-0.3l0.5-0.3c0.3-0.2,0.5-0.5,0.6-0.8
				V3C7,2.7,7,2.3,7.1,2H8.7 M9.4,1h-3C6.3,1.1,6.1,1.3,6.1,1.5C6.1,2,6,2.5,5.9,3.1c0,0,0,0.1-0.1,0.1l-1,0.6c0,0-0.1,0-0.1,0H4.5
				L3,3.2c-0.1,0-0.2,0-0.2,0c-0.2,0-0.3,0.1-0.4,0.3L1.1,5.7C0.9,5.8,1,6.1,1.1,6.2c0,0,0,0,0.1,0L2.3,7c0.1,0.1,0.1,0.1,0.2,0.2
				c0.1,0,0.2,0.2,0.1,0.3c-0.1,0.4-0.1,0.8,0,1.2c0,0,0,0.1-0.1,0.1L1.2,9.9C1.1,10,1,10.2,1.1,10.4c0,0,0,0.1,0.1,0.1l1.3,2.3
				c0.1,0.1,0.2,0.2,0.3,0.2c0.1,0,0.1,0,0.2,0l1.6-0.6h0.1c0.1,0,0.1,0,0.2,0.1c0.3,0.2,0.7,0.4,1,0.6c0,0,0.1,0,0.1,0.1
				c0.1,0.6,0.2,1.1,0.3,1.7c0,0.2,0.2,0.3,0.3,0.3c0,0,0,0,0,0h2.7c0.2,0,0.4-0.1,0.5-0.3c0,0,0-0.1,0-0.1c0.1-0.5,0.2-1.1,0.3-1.6
				c0-0.1,0.1-0.1,0.1-0.1l1.1-0.6h0.1h0.1l1.6,0.6c0.1,0,0.1,0,0.2,0c0.1,0,0.3-0.1,0.3-0.2l1.3-2.3c0-0.1,0.1-0.1,0.1-0.2
				c0-0.1,0-0.2-0.1-0.3l-1.5-1c-0.1,0-0.1-0.1-0.1-0.2c0.1-0.4,0.1-0.7,0-1.1c0-0.1,0-0.3,0.1-0.3c0.4-0.3,0.8-0.7,1.3-1
				c0.2-0.1,0.2-0.3,0.1-0.5c0,0,0,0,0-0.1l-1.3-2.3c-0.1-0.1-0.2-0.2-0.3-0.2c-0.1,0-0.1,0-0.2,0l-0.6,0.2l-1.1,0.4h-0.1
				c0,0-0.1,0-0.1,0c-0.3-0.2-0.7-0.4-1-0.6C10,3.2,9.9,3.1,9.9,3C9.8,2.5,9.8,2,9.7,1.5c0-0.1,0-0.1,0-0.2C9.7,1.2,9.6,1,9.4,1
				L9.4,1L9.4,1z"/>
		</g>
	</g>
	<path class="st1" d="M8,6.9L8,6.9C7.4,6.9,6.9,7.4,6.9,8S7.4,9.1,8,9.1c0,0,0,0,0,0l0,0c0.6,0,1.1-0.5,1.1-1.1
		C9.1,7.4,8.6,6.9,8,6.9C8,6.9,8,6.9,8,6.9L8,6.9z"/>
</g>
<g id="_Группа_3">
	<g id="_Группа_4">
		<path class="st2" d="M26.7,2L26.7,2c0.1,0.5,0.1,0.8,0.2,1.2c0,0.4,0.3,0.7,0.6,0.9c0.3,0.2,0.6,0.4,1,0.6
			c0.3,0.2,0.7,0.2,1.1,0.1l0.8-0.3l0.3-0.1h0.1l0.1,0.1l0.8,1.3l-0.9,0.7c-0.4,0.3-0.6,0.8-0.5,1.3c0,0.2,0,0.5,0,0.7
			c-0.1,0.5,0.1,1,0.5,1.2l0.8,0.5l0.2,0.1L31,11.8l-1.2-0.5c-0.1-0.1-0.3-0.1-0.4-0.1c-0.2,0-0.4,0-0.6,0.1L27.7,12
			c-0.3,0.2-0.5,0.5-0.6,0.8C27,13.2,27,13.6,26.9,14h-1.8c-0.1-0.4-0.1-0.8-0.2-1.2c-0.1-0.4-0.3-0.7-0.6-0.8l-0.4-0.2l-0.5-0.3
			c-0.4-0.2-0.8-0.3-1.2-0.1l-1.1,0.4l-0.8-1.4l0.1-0.1l0.9-0.7c0.3-0.3,0.5-0.7,0.4-1.1c-0.1-0.3-0.1-0.5,0-0.8
			c0.1-0.5-0.1-1.1-0.6-1.3v0l-0.1-0.1L20.6,6l-0.4-0.3L21,4.3l1.1,0.5c0.4,0.2,0.8,0.1,1.1-0.1l0.5-0.3l0.5-0.3
			c0.3-0.2,0.5-0.5,0.5-0.8V3c0-0.3,0.1-0.7,0.1-1L26.7,2 M27.4,1h-3c-0.2,0.1-0.3,0.3-0.3,0.5c0,0.6-0.1,1.1-0.2,1.6
			c0,0,0,0.1-0.1,0.1l-1,0.6c0,0-0.1,0-0.1,0h-0.1L21,3.2c-0.1,0-0.2,0-0.2,0c-0.2,0-0.3,0.1-0.4,0.3l-1.3,2.2
			c-0.1,0.2-0.1,0.4,0.1,0.5c0,0,0,0,0.1,0L20.3,7c0.1,0.1,0.1,0.1,0.2,0.2c0.1,0,0.2,0.2,0.1,0.3c-0.1,0.4-0.1,0.8,0,1.2
			c0,0,0,0.1-0.1,0.1l-1.3,1.1c-0.2,0.1-0.2,0.3-0.2,0.5c0,0,0,0.1,0.1,0.1l1.3,2.3c0.1,0.1,0.2,0.2,0.3,0.2c0.1,0,0.1,0,0.2,0
			l1.6-0.6h0.1c0.1,0,0.1,0,0.2,0.1c0.3,0.2,0.6,0.4,1,0.6c0,0,0.1,0,0.1,0.1c0.1,0.6,0.2,1.1,0.3,1.7c0,0.2,0.2,0.3,0.3,0.3
			c0,0,0,0,0,0h2.8c0.2,0,0.4-0.1,0.5-0.3c0,0,0-0.1,0-0.1c0.1-0.5,0.2-1.1,0.3-1.6c0-0.1,0.1-0.1,0.1-0.1l1.1-0.6h0.1h0.1l1.6,0.6
			c0.1,0,0.1,0,0.2,0c0.1,0,0.3-0.1,0.3-0.2l1.3-2.3c0-0.1,0.1-0.1,0.1-0.2c0-0.1,0-0.2-0.1-0.3l-1.5-1c-0.1,0-0.1-0.1-0.1-0.2
			c0.1-0.4,0.1-0.7,0-1.1c0-0.1,0-0.3,0.1-0.3c0.4-0.3,0.8-0.7,1.3-1c0.2-0.1,0.2-0.3,0.1-0.5c0,0,0,0,0-0.1l-1.3-2.3
			c-0.1-0.1-0.2-0.2-0.3-0.2c-0.1,0-0.1,0-0.2,0l-0.6,0.2l-1.1,0.4h-0.1c0,0-0.1,0-0.1,0c-0.3-0.2-0.7-0.4-1-0.6
			c-0.1,0-0.1-0.1-0.1-0.2c-0.1-0.5-0.2-1-0.2-1.5c0-0.1,0-0.1,0-0.2C27.7,1.2,27.6,1,27.4,1L27.4,1L27.4,1z"/>
	</g>
</g>
<path class="st2" d="M26,7.9C26,7.9,26.1,7.9,26,7.9L26,7.9C26.1,8,26,8,26,7.9C26,8,26,8,26,7.9C26,8,25.9,8,25.9,8l0,0
	C25.9,8,26,8,26,7.9 M26,7L26,7c-0.6-0.1-1.1,0.4-1.2,1c-0.1,0.6,0.4,1.1,1,1.2c0.1,0,0.1,0,0.2,0l0,0c0.6,0.1,1.1-0.4,1.2-1
	s-0.4-1.1-1-1.2C26.1,7,26,7,26,7C26,7,26,7,26,7z"/>
</svg>
