<?xml version="1.0" encoding="utf-8"?>
<!-- Generator: Adobe Illustrator 19.2.1, SVG Export Plug-In . SVG Version: 6.00 Build 0)  -->
<svg version="1.1" id="main_symbols" xmlns="http://www.w3.org/2000/svg" xmlns:xlink="http://www.w3.org/1999/xlink" x="0px"
	 y="0px" width="22px" height="10px" viewBox="0 0 22 10" style="enable-background:new 0 0 22 10;" xml:space="preserve">
<style type="text/css">
	.st0{fill:#2a2c33;}
	.st1{fill:#FFFFFF;}
</style>
<title>ico_</title>
<path class="st0" d="M10,7.3L10,7.3V1.8c0-1-0.8-1.8-1.8-1.8c-1,0-1.8,0.8-1.8,1.8v2L3.1,0.5c-0.7-0.7-1.8-0.7-2.5,0
	c-0.7,0.7-0.7,1.7-0.1,2.4c0,0,0,0,0.1,0.1l3.6,3.5H1.8C0.8,6.5,0,7.3,0,8.3S0.8,10,1.7,10c0,0,0,0,0,0H10V7.3L10,7.3z"/>
<path class="st1" d="M22,7.3L22,7.3V1.8c0-1-0.8-1.8-1.8-1.8c-1,0-1.8,0.8-1.8,1.8v2l-3.4-3.3c-0.7-0.7-1.8-0.7-2.5,0
	c-0.7,0.7-0.7,1.8,0,2.4c0,0,0,0,0,0l3.6,3.6h-2.5c-1,0-1.7,0.8-1.7,1.7s0.8,1.7,1.7,1.7c0,0,0,0,0,0H22V7.3L22,7.3z"/>
</svg>
