<?xml version="1.0" encoding="utf-8"?>
<!-- Generator: Adobe Illustrator 19.2.1, SVG Export Plug-In . SVG Version: 6.00 Build 0)  -->
<svg version="1.1" id="main_symbols" xmlns="http://www.w3.org/2000/svg" xmlns:xlink="http://www.w3.org/1999/xlink" x="0px"
	 y="0px" width="34px" height="16px" viewBox="0 0 34 16" style="enable-background:new 0 0 34 16;" xml:space="preserve">
<style type="text/css">
	.st0{opacity:0.5;}
	.st1{fill:none;stroke:#888EAB;stroke-width:1.3;stroke-linecap:round;stroke-linejoin:round;}
	.st2{fill:none;stroke:#FFFFFF;stroke-width:1.3;stroke-linecap:round;stroke-linejoin:round;}
</style>
<title>ico_</title>
<g class="st0">
	<line class="st1" x1="3.6" y1="4.9" x2="3.6" y2="14.6"/>
	<line class="st1" x1="12.4" y1="4.9" x2="12.4" y2="14.6"/>
	<line class="st1" x1="6.5" y1="4.9" x2="6.5" y2="14.6"/>
	<line class="st1" x1="9.5" y1="4.9" x2="9.5" y2="14.6"/>
	<line class="st1" x1="12.4" y1="14.6" x2="3.6" y2="14.6"/>
	<line class="st1" x1="12.4" y1="4.9" x2="3.6" y2="4.9"/>
	<line class="st1" x1="12.8" y1="2.5" x2="3.2" y2="2.5"/>
	<line class="st1" x1="8.1" y1="2.3" x2="8.1" y2="1.4"/>
</g>
<line class="st2" x1="21.6" y1="4.9" x2="21.6" y2="14.6"/>
<line class="st2" x1="30.4" y1="4.9" x2="30.4" y2="14.6"/>
<line class="st2" x1="24.5" y1="4.9" x2="24.5" y2="14.6"/>
<line class="st2" x1="27.5" y1="4.9" x2="27.5" y2="14.6"/>
<line class="st2" x1="30.4" y1="14.6" x2="21.6" y2="14.6"/>
<line class="st2" x1="30.4" y1="4.9" x2="21.6" y2="4.9"/>
<line class="st2" x1="30.8" y1="2.5" x2="21.2" y2="2.5"/>
<line class="st2" x1="26.1" y1="2.3" x2="26.1" y2="1.4"/>
</svg>
