<svg id="massanger" xmlns="http://www.w3.org/2000/svg" width="14" height="14" viewBox="0 0 14 14"><defs><style>.cls-1{fill:#fff;}</style></defs><title>ico</title><polygon class="cls-1" points="13.24 8.95 12.28 7.99 11.14 9.13 3.49 1.47 0 0.01 1.46 3.5 9.12 11.15 7.98 12.29 8.94 13.25 10.63 11.56 13.06 14 13.99 13.07 11.55 10.63 13.24 8.95"/><polygon class="cls-1" points="4.25 7.72 2.86 9.12 1.72 7.98 0.76 8.94 2.45 10.63 0.01 13.06 0.94 13.99 3.37 11.55 5.06 13.24 6.02 12.28 4.88 11.14 6.28 9.75 4.25 7.72"/><polygon class="cls-1" points="12.54 3.49 14 0 10.51 1.46 7.71 4.26 9.74 6.29 12.54 3.49"/></svg>