<svg id="bild" xmlns="http://www.w3.org/2000/svg" width="22" height="10" viewBox="0 0 22 10"><defs><style>.cls-1{fill:#9aa0b1;}.cls-2{fill:#fff;}</style></defs><title>ico-head_menu_</title><path class="cls-1" d="M1,1H8.61a27.56,27.56,0,0,1-.4,4.59C8,6.47,6.62,7.8,4.79,8.85,4.44,8.65,4,8.39,3.61,8.09,1.78,6.76,1.46,5.85,1.41,5.59A27.78,27.78,0,0,1,1,1M0,0A33.15,33.15,0,0,0,.43,5.8,6.07,6.07,0,0,0,3,8.9,16.67,16.67,0,0,0,4.79,10c1.76-.93,4.07-2.62,4.4-4.2A32.82,32.82,0,0,0,9.63,0H0Z"/><path class="cls-2" d="M12.37,0a33.15,33.15,0,0,0,.43,5.8A6.07,6.07,0,0,0,15.4,8.9,16.67,16.67,0,0,0,17.16,10c1.76-.93,4.07-2.62,4.4-4.2A32.82,32.82,0,0,0,22,0H12.37Z"/></svg>