<svg id="attack" xmlns="http://www.w3.org/2000/svg" width="50" height="14" viewBox="0 0 50 14"><defs><style>.cls-1{fill:#fff;}.cls-2{fill:#9aa0b1;}</style></defs><title>ico-head</title><path class="cls-1" d="M36.33,2.48L33.86,0H26.23l3.7,3.71C29.7,3.78,29.5,3.9,29.31,4V10c0.19,0.05.39,0.25,0.62,0.3L26.23,14h7.64l2.46-2.46C43.61,12.82,50,7,50,7S43.61,1.21,36.33,2.48Zm4.15,6.8A2.27,2.27,0,1,1,42.74,7,2.27,2.27,0,0,1,40.47,9.29Z"/><path class="cls-1" d="M27.63,4.56v4.9a7.45,7.45,0,0,0,.86.41V4.15A7.46,7.46,0,0,0,27.63,4.56Z"/><path class="cls-1" d="M26.86,4.9a7.46,7.46,0,0,0-.86.41v3.4a7.45,7.45,0,0,0,.86.41V4.9Z"/><path class="cls-2" d="M14.47,3.73A3.27,3.27,0,1,0,17.74,7,3.27,3.27,0,0,0,14.47,3.73Zm0,5.55A2.27,2.27,0,1,1,16.74,7,2.27,2.27,0,0,1,14.47,9.27Z"/><path class="cls-2" d="M12.45,2.29a12.32,12.32,0,0,0-2.12.18L7.86,0H0.23L3.93,3.71C3.7,3.76,3.5,3.89,3.31,3.94V10c0.19,0.05.39,0.25,0.62,0.3L0.23,14H7.86l2.47-2.46a12.38,12.38,0,0,0,2.12.18C18.81,11.72,24,7,24,7S18.81,2.29,12.45,2.29Zm-2,8.27L10,10.47l-0.37.37L7.45,13H2.64l2-2L5.92,9.73,4.31,9.36V4.65l1.61-.36L4.64,3l-2-2H7.45L9.62,3.18,10,3.54l0.51-.09a11.37,11.37,0,0,1,2-.17c4.38,0,8.25,2.46,10,3.73-1.71,1.27-5.57,3.71-10,3.71A11.44,11.44,0,0,1,10.5,10.56Z"/><path class="cls-2" d="M1.63,4.55v4.9a7.46,7.46,0,0,0,.86.41V4.14A7.47,7.47,0,0,0,1.63,4.55Z"/><path class="cls-2" d="M0.86,4.89A7.47,7.47,0,0,0,0,5.3V8.7a7.46,7.46,0,0,0,.86.41V4.89Z"/></svg>