<svg id="attack" xmlns="http://www.w3.org/2000/svg" width="30" height="14" viewBox="0 0 30 14"><defs><style>.cls-1{fill:#fff;}.cls-2{fill:#9aa0b1;}</style></defs><title>ico-head</title><path class="cls-1" d="M28.29,4.06c-0.22.31-.43,0.62-0.66,0.92-0.48.61-1,1.21-1.47,1.8A3.44,3.44,0,0,1,25,7.65a1.09,1.09,0,0,1-1.13-.06c-0.22-.15-0.44-0.31-0.65-0.47a1.71,1.71,0,0,0-1.84-.2,5.69,5.69,0,0,0-1.37.89A0.19,0.19,0,0,0,20,8q0.43,1.72.87,3.43L21,12H19.86l-0.35-1.39L17.75,3.69a0.8,0.8,0,0,0,0-.11V3.54l0.85-.32A2.33,2.33,0,0,0,19,3a5.27,5.27,0,0,1,2.11-1h0.29a1.89,1.89,0,0,1,1.19.77L23,3.33a3.17,3.17,0,0,0,1.23,1,3.58,3.58,0,0,0,2,.11,9.13,9.13,0,0,0,1.66-.5,0.28,0.28,0,0,1,.35,0V4.06Z"/><path class="cls-2" d="M13,3.25a1.23,1.23,0,0,0-.91-0.4,1.46,1.46,0,0,0-.54.11,8.09,8.09,0,0,1-1.48.45,3.9,3.9,0,0,1-.72.08,2,2,0,0,1-.75-0.13,2.17,2.17,0,0,1-.84-0.67L7.49,2.31,7.34,2.14A2.89,2.89,0,0,0,5.53,1H4.94A6.16,6.16,0,0,0,2.43,2.17a1.37,1.37,0,0,1-.25.13l-0.57.22L1.36,2.6l-0.65.24v1L0.79,4h0l1.74,6.84,0.36,1.4L3.09,13H6.33L6,11.75l-0.08-.3-0.08-.31-0.24-1L5.13,8.24a3.81,3.81,0,0,1,.7-0.41,1,1,0,0,1,.39-0.1,0.7,0.7,0,0,1,.44.17c0.26,0.19.48,0.36,0.71,0.51a2.07,2.07,0,0,0,1.16.36,2.2,2.2,0,0,0,1-.23,4.43,4.43,0,0,0,1.43-1.12c0.53-.61,1-1.23,1.5-1.83,0.17-.22.34-0.45,0.5-0.68l0.2-.28,0.19-.26V3.54Zm-0.74.81c-0.22.31-.43,0.62-0.67,0.92-0.48.61-1,1.21-1.47,1.8A3.44,3.44,0,0,1,9,7.65a1.21,1.21,0,0,1-.52.13,1.08,1.08,0,0,1-.61-0.19C7.7,7.44,7.48,7.27,7.27,7.11a1.7,1.7,0,0,0-1-.38,2,2,0,0,0-.79.18,5.68,5.68,0,0,0-1.37.89A0.19,0.19,0,0,0,4,8q0.43,1.72.87,3.43L5,12H3.86L3.51,10.61,1.75,3.69a0.65,0.65,0,0,0,0-.11V3.54l0.85-.32A2.35,2.35,0,0,0,3,3,5.27,5.27,0,0,1,5.09,2H5.39a1.89,1.89,0,0,1,1.19.77L7,3.33a3.16,3.16,0,0,0,1.23,1,3,3,0,0,0,1.11.2,4.9,4.9,0,0,0,.9-0.09,9.12,9.12,0,0,0,1.66-.5,0.49,0.49,0,0,1,.17,0,0.23,0.23,0,0,1,.18.08V4.06Z"/></svg>