<svg id="attack" xmlns="http://www.w3.org/2000/svg" width="30" height="14" viewBox="0 0 30 14"><defs><style>.cls-1{fill:#9aa0b1;}.cls-2{fill:#fff;}</style></defs><title>ico-head</title><path class="cls-1" d="M11.67,9.82l0.5-.5,0.71-.71-0.71-.71-0.69-.69-0.71-.71-0.71.71L10,7.33l-0.1-.1,1.81-1.81,0.14-.14,0.08-.18,1-2.49,0.95-2.25-2.25.95-2.49,1-0.18.08L8.8,2.56,7,4.37,5.2,2.57,5.06,2.43,4.88,2.36l-2.49-1L0.13,0.37,1.08,2.62l1,2.49L2.2,5.29,2.34,5.43l1.8,1.8L4,7.33,3.93,7.22,3.23,6.51l-0.71.71L1.83,7.9l-0.71.71L1.83,9.32l0.5,0.5-1,1-0.71.71L1.3,12.26,2,12.93l0.71,0.71,0.71-.71,1-1,0.5,0.5L5.62,13.1l0.71-.71L7,11.72,7.68,12.4l0.71,0.71,0.71-.71,0.5-.5,1,1,0.71,0.71L12,12.93l0.66-.66,0.71-.71-0.71-.71ZM9.51,3.27l2.49-1L11,4.72,9.15,6.52,7.7,5.08ZM5.62,11.69L4.41,10.48,2.67,12.22,2,11.56,3.75,9.82,2.54,8.61l0.69-.69L4,8.74l0.8-.8L6.29,9.38l-0.8.8L6.3,11h0Zm1.28-1.5,0.1-.1,0.1,0.1-0.1.1Zm4.43,2L9.59,10.49,8.38,11.69,7.7,11h0l0.8-.8L7.7,9.38,7.9,9.19,7.19,8.48,5.75,7,5,6.33l-0.19.19L3,4.72,2,2.23l2.49,1,1.8,1.8L6.1,5.27,6.8,6,8.25,7.42,9,8.13l0.19-.19L10,8.75l0.82-.81,0.69,0.69L10.25,9.82,12,11.56Z"/><polygon class="cls-2" points="27.46 8.62 26.77 7.93 25.96 8.75 20.49 3.28 18 2.23 19.04 4.72 24.51 10.19 23.7 11.01 24.38 11.69 25.59 10.49 27.33 12.23 27.99 11.56 26.25 9.82 27.46 8.62"/><polygon class="cls-2" points="21.04 7.74 20.04 8.74 19.22 7.92 18.54 8.61 19.75 9.82 18 11.56 18.67 12.22 20.41 10.48 21.61 11.69 22.3 11 21.48 10.19 22.48 9.19 21.04 7.74"/><polygon class="cls-2" points="26.95 4.72 28 2.23 25.51 3.27 23.51 5.27 24.95 6.72 26.95 4.72"/></svg>