<svg class="svg" xmlns="http://www.w3.org/2000/svg" width="80" height="80" viewBox="0 0 80 80"><path d="M0.506,30.242c0.415-2.414.64-4.765,1.236-7.018A31.052,31.052,0,0,1,31.689.208,30.485,30.485,0,0,1,42.161,2.066a5.349,5.349,0,0,1,2.9,2.352c0.645,1.431.068,2.852-1.872,3.158a4.008,4.008,0,0,0-.264,1.247L47.6,9.237a20.013,20.013,0,0,1-1.08,2.313,9.06,9.06,0,0,1-1.262,1.329,5.728,5.728,0,0,0,1.531.565,0.781,0.781,0,0,0,.149-0.014,3.244,3.244,0,0,1,.626-0.064c2.159,0,2.587,2.529,4.2,3.3a5.112,5.112,0,0,1-.14,1.612c-0.944,0-1.871-.021-2.788-0.021-0.74,0-1.474.014-2.206,0.063a3.855,3.855,0,0,0-1.414.875,3.672,3.672,0,0,0,1.4.891c1.144,0.044,2.289.056,3.422,0.056,1.229,0,2.443-.014,3.624-0.014,0.945,2.474-.349,2.581-1.949,2.63a6.614,6.614,0,0,0-2.043.8,6.274,6.274,0,0,0,2.132.979c1.616,0.049,3.234.063,4.876,0.063,1.82,0,3.669-.016,5.582-0.016,0.256,1.955.48,3.664,0.742,5.66H0.506ZM20.651,7.165h-0.03a8.7,8.7,0,1,0-.033,17.39h0.061A8.7,8.7,0,1,0,20.651,7.165ZM62.8,34.975c0.028,2.259-.818,3.388-2.945,3.388a7.323,7.323,0,0,1-.739-0.04,27.137,27.137,0,0,0-2.748-.121c-1.456,0-2.919.071-4.375,0.071L51.73,39.326c0.7,0.27,1.433.491,2.107,0.822,0.828,0.408,1.611.907,2.413,1.366a10.247,10.247,0,0,1-2.592,1.145,7.9,7.9,0,0,1-1.125.07c-0.3,0-.6-0.01-0.906-0.021s-0.607-.021-0.908-0.021a7.621,7.621,0,0,0-1.207.083c-0.771.124-1.4,0.962-2.173,1.292-0.925.4-1.954,0.543-2.9,0.894A8.369,8.369,0,0,0,43,45.834a3.965,3.965,0,0,0,1.371.915,10.528,10.528,0,0,0,1.37.074c0.221,0,.441,0,0.662-0.007s0.448-.007.672-0.007c0.207,0,.414,0,0.62.012a3.394,3.394,0,0,1,1.548.282c0.4,2.933,2.882,1.482,5.034,2.4a16.4,16.4,0,0,0-1.451,2.122c-1.412,2.981-4.182,1.773-6.435,2.315-1.219.294-2.844,1.475-3.126,2.558a1.948,1.948,0,0,1-2.114,1.784c-0.206,0-.415-0.013-0.626-0.025s-0.423-.025-0.632-0.025c-0.1,0-.2,0-0.291.01-0.406.029-.815,0.038-1.25,0.038-0.7,0-1.479-.023-2.439-0.023a11.517,11.517,0,0,0,1.038,1.772,13.855,13.855,0,0,0,1.475,1.216,6.186,6.186,0,0,1-1.785.95,35.009,35.009,0,0,1-5.213.4,29.869,29.869,0,0,1-19.841-7.468c-6.821-5.8-10.35-13.282-10.964-22.5H62.8C62.8,33.512,62.788,34.243,62.8,34.975Z" transform="translate(8.25 8.594)"/></svg>
