<svg class="svg" xmlns="http://www.w3.org/2000/svg" width="80" height="80" viewBox="0 0 80 80"><path d="M62.376,35.406c-1.823,0-3.646.017-5.468,0.017-1.448,0-2.9-.008-4.343-0.032h-0.1a1.607,1.607,0,0,0-1.82,1.385A35.6,35.6,0,0,1,48.3,42.385a1.359,1.359,0,0,0,.246,1.94c3.214,3.213,6.378,6.477,9.506,9.67l-4.168,4.22L46.063,50.6c-0.876-.855-1.644-2.188-2.662-2.42a1,1,0,0,0-.221-0.024c-0.843,0-1.888.96-2.862,1.366a21.075,21.075,0,0,1-3.446,1.221,1.711,1.711,0,0,0-1.629,2.037c0.1,3.724.036,7.452,0.036,11.351H29.237c-0.031-.535-0.087-1.071-0.088-1.607-0.008-3.322-.026-6.645.009-9.966a1.456,1.456,0,0,0-1.224-1.715c-2.314-.728-4.541-1.734-7.181-2.775l-4.2,4.788L12,47.913c1.173-1.093,2.526-2.4,3.932-3.641a1.244,1.244,0,0,0,.235-1.815,42.478,42.478,0,0,1-2.419-5.749,1.542,1.542,0,0,0-1.737-1.318H11.941c-1.7.023-3.4,0.03-5.118,0.03-2.089,0-4.2-.009-6.338-0.009V29.42h18.7c0.109,1.441.2,2.95,0.341,4.452a12.509,12.509,0,0,0,12.7,11.351,12.952,12.952,0,0,0,6.919-1.987,12.3,12.3,0,0,0,5.953-10.8c0.007-.965,0-1.931,0-3.027H63.942v5.914C63.45,35.35,62.913,35.4,62.376,35.406Zm-20.5-16.448,12.548-12.8,3.948,4.007-12.938,12.7ZM32.212,38.6a6.263,6.263,0,0,1-4.455-1.825,6.156,6.156,0,0,1,.274-8.994,3.013,3.013,0,0,0,1.131-2.624c-0.032-7.563-.017-15.126-0.017-22.689V0.56h6.133V2.407c0,7.614.015,15.228-.017,22.842a2.853,2.853,0,0,0,1.086,2.49,6.156,6.156,0,0,1,.361,8.992A6.257,6.257,0,0,1,32.212,38.6ZM14.476,18.419l3.895-3.956,6.9,6.684-4.229,4.083Z" transform="translate(7.781 7.656)"/></svg>
