<svg class="svg" xmlns="http://www.w3.org/2000/svg" width="80" height="80" viewBox="0 0 80 80"><path d="M60.159,46.335c-1.142-2.347-1.9-4.879-2.885-7.305-2.955-7.276-5.652-14.454-5.3-22.674C52.267,9.294,45.606,2.309,38.663,1.2c-2.643-.423-5.411-0.069-8.123-0.069V0.957c-1.628,0-3.268.125-4.883-.021C18.1,0.249,8.522,7.528,8.767,17.8A37.351,37.351,0,0,1,5.457,34.31C4.057,37.438,2.95,40.7,1.716,43.9c-2.337,6.065-1.976,7.212,3.5,10.8a29.2,29.2,0,0,0,3.3,1.874,49.136,49.136,0,0,0,37.427,2.636,33.089,33.089,0,0,0,12.977-7.083C60.679,50.476,61.319,48.72,60.159,46.335ZM17.686,54.21a4.757,4.757,0,0,1-1.749-1.173c0.408-.5.781-1.373,1.233-1.417,0.6-.058,1.266.528,2.4,1.078C18.651,53.475,18.122,54.259,17.686,54.21Zm6.062-1.416c-0.748-.318-1.794-0.52-1.82-0.812-0.157-1.775-.7-3.806,1.82-4.82v5.632ZM21.822,33.189V33.2c-1.081,0-2.163.015-3.244,0-3.032-.052-3.823-1.228-2.78-4.116,1.1-3.033,4.777-4.808,8.52-4.108,2.8,0.524,3.907,2.32,3.929,5.828,0.011,1.785-.676,2.458-2.371,2.4C24.527,33.152,23.174,33.189,21.822,33.189Zm7.326,19.38-2.8.179v-8.22h2.8v8.041ZM26.5,41.714c0.9-2.181,1.372-4.03,2.409-5.474,0.373-.52,2.724-0.5,3.095.028,1.02,1.453,1.469,3.308,2.32,5.446H26.5Zm8.066,10.808H31.7V44.544h2.862v7.979ZM32.838,31.9c-1.107-1.921.157-5.185,1.879-6.251,3.6-2.228,9.248-.142,10.484,3.87,0.8,2.583.121,3.584-2.524,3.672-1.26.042-2.523,0.007-3.784,0.007a11,11,0,0,1-2.425-.029C35.19,32.875,33.326,32.745,32.838,31.9ZM37.1,47.446l0.951-.341,1.351,5.1C36.818,52.662,36.818,52.662,37.1,47.446Zm6.641,6.764A4.758,4.758,0,0,1,42,53.038c0.409-.5.781-1.373,1.234-1.417,0.6-.058,1.266.528,2.4,1.078C44.71,53.475,44.181,54.259,43.745,54.21Zm13.117-4.92a4.873,4.873,0,0,1-1.6-1.348C52.9,42.083,50.641,36.183,48.332,30.3a39.185,39.185,0,0,0-1.611-3.726c-2.654-5.122-7.754-6.823-12.789-3.948a6.28,6.28,0,0,1-7.02-.026C21.7,19.669,16.4,21.49,13.95,27.127,11.111,33.663,8.656,40.366,6.034,47a6.667,6.667,0,0,1-.739,1.731,3.159,3.159,0,0,1-1.313.54,10.609,10.609,0,0,1-.417-1.156,1.065,1.065,0,0,1,.172-0.5c2.97-7.462,5.766-15,8.981-22.353,1.724-3.944,5.131-5.965,9.727-6.2a38.438,38.438,0,0,1,5.777,2.03,4.179,4.179,0,0,0,4.5-.065c6.521-3.552,13-1.549,16,5.268,3.046,6.936,5.615,14.082,8.33,21.161A4.446,4.446,0,0,1,56.862,49.29Z" transform="translate(9.453 8.687)"/></svg>
