<svg class="svg" xmlns="http://www.w3.org/2000/svg" width="80" height="80" viewBox="0 0 80 80"><path d="M63.812,63.994H45.6c1.152-2.885,2.367-5.486,3.218-8.2a24.573,24.573,0,0,0,1.308-6.76c0.153-8.229.06-16.462,0.061-24.694V21.034c0.895,0,1.661-.009,2.379-0.009,0.425,0,.833,0,1.241.014,3.834,0.1,5.457,1.686,5.48,5.515,0.04,6.735.135,13.473-.034,20.2A22.9,22.9,0,0,0,61.4,57.876C62.306,59.694,62.907,61.665,63.812,63.994Zm-22.54-6.646q-5.071.017-10.142,0.018-4.051,0-8.1-.012c-2.458-.008-6.54-3.534-6.553-5.828-0.058-10-.025-20.011-0.025-30.352H47.812c0.074,0.867.2,1.666,0.2,2.464q0.021,13.475,0,26.949C48.014,53.82,44.508,57.337,41.272,57.348Zm-2.565-31.37A18.738,18.738,0,0,0,36,25.81c-1.234,0-2.478.069-3.711,0.069s-2.484-.067-3.721-0.067a19.279,19.279,0,0,0-2.7.162c-0.909.128-1.673,1.289-2.5,1.981,0.845,0.684,1.664,1.918,2.54,1.96q3.137,0.149,6.284.146,3.289,0,6.574-.148c0.805-.036,1.559-1.214,2.337-1.866C40.306,27.325,39.586,26.106,38.707,25.978ZM38.5,34.958q-3.106-.147-6.221-0.148-3.181,0-6.357.156c-0.88.044-1.7,1.253-2.552,1.925,0.824,0.7,1.58,1.884,2.486,2.014a18.993,18.993,0,0,0,2.7.165c1.237,0,2.483-.068,3.72-0.068v0.014c1.2,0,2.407.079,3.6,0.079a15.547,15.547,0,0,0,2.533-.177c0.985-.162,1.8-1.36,2.691-2.09C40.234,36.175,39.392,35,38.5,34.958ZM16.572,18.98c-0.65-6.409,1.408-11.489,6.518-15.2A15.619,15.619,0,0,1,32.246.92a15.82,15.82,0,0,1,8.322,2.295A15.431,15.431,0,0,1,47.743,18.98H16.572ZM32.319,4.535H32.244a4.279,4.279,0,1,0-.087,8.557h0.076A4.279,4.279,0,1,0,32.319,4.535Zm8.938,8a0.792,0.792,0,0,0-.136.011c-0.761.132-1.335,1.345-1.991,2.084,0.7,0.605,1.4,1.691,2.1,1.691h0c0.814,0,1.627-.954,3.187-1.987C42.893,13.457,41.977,12.54,41.257,12.54ZM16.671,58.534c0.8,1.653,1.36,3.422,2.141,5.425H0.769a18.713,18.713,0,0,1,.868-2.531c3.111-5.972,4-12.31,3.613-18.987C4.966,37.5,5.192,32.52,5.2,27.558c0-5.082,1.362-6.537,6.311-6.537l0.39,0c0.646,0.009,1.292.073,2.27,0.132,0.055,1.022.153,2,.154,2.983,0.012,7.4.164,14.8-.055,22.188A25.58,25.58,0,0,0,16.671,58.534Z" transform="translate(7.703 7.547)"/></svg>
