<svg class="svg" xmlns="http://www.w3.org/2000/svg" width="26" height="26" viewBox="0 0 26 26"><path d="M17.821,3.862a0.5,0.5,0,0,1-.306.2,2.5,2.5,0,0,1-.579.059q-8.145,0-16.291,0H0.113C0.074,3.756.034,3.46,0.012,3.163A1.107,1.107,0,0,1,1.277,1.82c1.8-.008,3.608,0,5.413,0q4.9,0,9.8,0A1.357,1.357,0,0,1,17.821,3.862ZM9.83,1.4a8.208,8.208,0,0,1-.875.006V1.421c-0.259,0-.52.013-0.778,0A0.715,0.715,0,0,1,7.436.748,0.677,0.677,0,0,1,8.094.006a10.729,10.729,0,0,1,1.8,0,0.646,0.646,0,0,1,.595.7A0.67,0.67,0,0,1,9.83,1.4Zm7.825,4.238c-0.076.8-.151,1.614-0.23,2.423q-0.568,5.816-1.137,11.631c-0.106,1.078-.206,2.157-0.318,3.235a1.122,1.122,0,0,1-1.192,1.068q-5.827.01-11.654,0A1.066,1.066,0,0,1,1.96,22.96c-0.176-1.608-.323-3.22-0.483-4.83-0.25-2.5-.5-5-0.75-7.5C0.564,8.974.415,7.316,0.255,5.6,3.882,5.6,7.2,5.635,17.655,5.635Zm-4.048,16.7a0.962,0.962,0,0,0,1.04-1.048c0.061-.8.119-1.6,0.179-2.393q0.329-4.389.657-8.777c0.046-.626.1-1.252,0.119-1.879a1.036,1.036,0,0,0-.733-0.954,0.9,0.9,0,0,0-1.12.554,1.694,1.694,0,0,0-.127.545c-0.062.719-.109,1.44-0.163,2.16-0.261,3.489-.523,6.979-0.79,10.55V21.2A0.968,0.968,0,0,0,13.607,22.337ZM7.969,14.853c0,2.152-.005,4.305,0,6.458a0.956,0.956,0,0,0,.965,1.029,0.993,0.993,0,0,0,1.014-.994c0.007-.11,0-0.22,0-0.33q0.007-4.525.013-9.049c0-1.21,0-2.419-.019-3.629a0.977,0.977,0,0,0-.783-1.009,0.915,0.915,0,0,0-1.039.441,1.508,1.508,0,0,0-.158.722c-0.012,2.121-.007,4.241-0.007,6.362H7.969ZM2.34,8.756H2.331q0.19,2.536.381,5.072C2.9,16.364,3.093,18.9,3.3,21.435a0.94,0.94,0,0,0,1.039.9,0.975,0.975,0,0,0,.926-1.066c-0.028-.47-0.068-0.939-0.1-1.409Q4.784,14.881,4.408,9.9C4.363,9.309,4.336,8.711,4.256,8.121a0.953,0.953,0,0,0-1.027-.813,0.967,0.967,0,0,0-.918.978C2.311,8.443,2.33,8.6,2.34,8.756Z" transform="translate(4 1)"/></svg>
