<svg xmlns="http://www.w3.org/2000/svg" width="65" height="65" viewBox="0 0 65 65">
  <defs>
    <style>
      .cls-1 {
        fill: #8990ad;
        fill-rule: evenodd;
      }
    </style>
  </defs>
  <path id="Фигура_32_copy" data-name="Фигура 32 copy" class="cls-1" d="M662.774,119.083c-0.474-2.181-.971-4.277-1.367-6.392a1.151,1.151,0,0,0-1.41-1.182c-1.413.109-3.223-.414-4.144,0.27s-0.921,2.515-1.325,3.845c-0.342,1.128-.346,2.686-1.115,3.265s-2.308.23-3.509,0.235c-3.644.016-3.642,0.006-4.42-3.515-0.228-1.036-.512-2.063-0.693-3.107a0.988,0.988,0,0,0-1.183-.988c-1.206.056-2.419,0.057-3.625,0a1.023,1.023,0,0,0-1.2.977c-0.431,1.905-.959,3.788-1.371,5.7a1.034,1.034,0,0,1-1.226.958c-1.769-.036-3.541-0.047-5.309.005a1.094,1.094,0,0,1-1.284-1.051c-0.419-1.906-.96-3.786-1.388-5.691a0.956,0.956,0,0,0-1.135-.89c-1.164.04-2.334,0.06-3.5-.007a1.133,1.133,0,0,0-1.389,1.072c-0.426,2.078-.941,4.139-1.425,6.2a1.679,1.679,0,0,1-.2.332c-2.161,0-4.4.034-6.633-.043a1.431,1.431,0,0,1-.777-0.944q-0.814-2.812-1.488-5.665a1.012,1.012,0,0,0-1.229-.95c-0.6.053-1.208,0.009-1.812,0.009-2.785,0-2.779,0-3.346,2.736-0.31,1.495-.641,2.986-0.969,4.478a1.354,1.354,0,0,1-.182.292l-1.112-.137c0.879-5.415,1.7-10.738,2.617-16.046,0.884-5.143,1.883-10.267,2.776-15.409a1.345,1.345,0,0,1,1.677-1.358c1.33,0.1,2.679-.032,4.01.063a1.383,1.383,0,0,1,1.025.781,25.873,25.873,0,0,1,.715,4.743c0.091,4.62.033,9.242,0.033,13.9,0.808-4.058,1.618-8.121,2.423-12.159a2.306,2.306,0,0,1,.447-0.13c2.836-.128,2.816-0.131,3.474-2.929,0.327-1.389.326-3.251,1.237-3.995,0.858-.7,2.727-0.128,4.135-0.27,1.43-.144,2.15.319,2.274,1.769,0.309,3.629.705,7.251,1.01,10.881a63.705,63.705,0,0,0,.7,6.728c0.478-4.034.955-8.067,1.425-12.039a1.969,1.969,0,0,1,.366-0.132c2.574-.19,2.575-0.189,3.186-2.709,0.291-1.2.618-2.386,0.85-3.594a0.961,0.961,0,0,1,1.149-.889c1.381,0.03,2.765.06,4.143-.01a1.169,1.169,0,0,1,1.448,1.157c0.751,4.905,1.546,9.8,2.319,14.706a19.262,19.262,0,0,0,.791,3.621c0.15-4.059.3-8.119,0.445-12.083,0.962-.221,2.076-0.159,2.573-0.674,0.543-.564.517-1.659,0.736-2.523,0.251-.988.559-1.966,0.729-2.967a1.324,1.324,0,0,1,1.676-1.237,24.753,24.753,0,0,0,3.623,0,1.287,1.287,0,0,1,1.589,1.31c1,5.769,2.089,11.524,3.085,17.293,0.807,4.681,1.53,9.375,2.308,14.178Zm-53.254-3.939a5.852,5.852,0,0,1,.383.835c0.513,1.8,1.042,3.59,1.487,5.4A1.08,1.08,0,0,0,612.7,122.4c0.894-.072,1.8-0.016,2.837-0.016v10.984l0.314,0.037q0.678-3.233,1.357-6.467c0.261-1.246.463-2.509,0.816-3.729a2.605,2.605,0,0,1,.981-0.82l0.128,0c1.1-.069,2.5.235,3.217-0.315,0.674-.515.641-1.934,0.9-2.958,0.243-.946.482-1.893,0.692-2.847,0.143-.652.257-1.185,1.187-1.153a1.184,1.184,0,0,1,1.4,1.083c0.256,1.331.663,2.633,1,3.949,0.541,2.118.539,2.119,2.775,2.335,0.318,3.632.638,7.293,0.958,10.953l0.274,0.029,1.378-11.077c1.6,0,3.109-.069,4.6.024a1.39,1.39,0,0,0,1.749-1.3c0.338-1.7.883-3.367,1.257-5.066a1.318,1.318,0,0,1,2.511-.012,23.43,23.43,0,0,0,1.113,4.572c1.644,3.861,1.837,8,2.653,12.017,0.057,0.279.143,0.552,0.216,0.828l0.225-.068c0.139-3.634.277-7.269,0.42-11,2.242,0,4.351-.054,6.456.024a1.3,1.3,0,0,0,1.56-1.209c0.378-1.654.883-3.279,1.344-4.913a2.516,2.516,0,0,1,.607-1.134c2.573,9.726,3.863,19.65,5.8,29.524l-1.239.23c-0.452-1.993-.961-3.913-1.3-5.862a1.283,1.283,0,0,0-1.636-1.243c-1.073.08-2.164-.05-3.233,0.058a1.452,1.452,0,0,0-1.026.789c-0.574,1.777-1,3.6-1.561,5.382a1.421,1.421,0,0,1-.938.876c-2.107.081-4.218,0.041-6.431,0.041-0.479-1.993-.987-3.914-1.387-5.856a1.309,1.309,0,0,0-1.607-1.293c-1.326.115-3.069-.411-3.889,0.243-0.877.7-.9,2.444-1.273,3.74-0.291,1.017-.543,2.046-0.838,3.163-2.194,0-4.347.034-6.5-.038a1.32,1.32,0,0,1-.847-0.839c-0.51-1.752-.952-3.524-1.369-5.3a1.028,1.028,0,0,0-1.224-.962,31.345,31.345,0,0,1-3.5,0,1.02,1.02,0,0,0-1.211.973c-0.456,2.025-.956,4.04-1.467,6.171-2.245,0-4.438.029-6.629-.037a1.258,1.258,0,0,1-.73-0.815q-0.817-2.679-1.507-5.4a0.975,0.975,0,0,0-1.15-.888c-1.459.069-3.3-.427-4.269,0.27-0.882.632-.827,2.536-1.17,3.883a16.486,16.486,0,0,0-.466,2.111c-0.106.9-.576,0.908-1.416,0.538,1.866-9.781,3.209-19.7,5.532-29.449Z" transform="translate(-601 -82.984)"/>
</svg>
