<svg xmlns="http://www.w3.org/2000/svg" width="25.313" height="23.344" viewBox="0 0 25.313 23.344">
  <defs>
    <style>
      .cls-1 {
        fill: #8990ad;
        fill-rule: evenodd;
      }
    </style>
  </defs>
  <path id="Фигура_32_copy_2" data-name="Фигура 32 copy 2" class="cls-1" d="M718.159,236.328c-0.623.546-1.238,1.054-1.814,1.6a1.163,1.163,0,0,1-.992.351c-0.3-.03-0.608.006-0.911-0.014a0.387,0.387,0,0,1-.268-0.15,12.169,12.169,0,0,1-1.717-4.026,12.559,12.559,0,0,1,.112-6.112A12.717,12.717,0,0,1,715,223.218a12.381,12.381,0,0,1,3.5-2.962,12.638,12.638,0,0,1,6.992-1.667,12.666,12.666,0,0,1,10.722,18.123c-0.238.49-.528,0.955-0.809,1.424l-0.245.134c-0.452.013-.9,0.009-1.355,0l-0.189-.056c-0.688-.686-1.37-1.378-2.054-2.069l-0.034-.062L732.657,235l1.866,1.925c0.15-.27.268-0.465,0.37-0.669a11.492,11.492,0,0,0,1.2-5,0.255,0.255,0,0,0-.311-0.314c-0.694.019-1.389,0-2.084,0.01-0.176,0-.249-0.043-0.244-0.232,0.012-.449,0-0.9,0-1.374h2.451a11.246,11.246,0,0,0-2.239-5.07l-1.716,1.784-1.157-1.215,1.8-1.752a11.191,11.191,0,0,0-7.265-3.111v2.892h-1.613v-2.868a11.233,11.233,0,0,0-6.524,2.913l1.786,1.735-1.206,1.184-1.657-1.73a10.608,10.608,0,0,0-2.4,5.216c0.092,0,.183.014,0.273,0.015,0.6,0,1.2.009,1.8,0a0.214,0.214,0,0,1,.263.27c-0.013.432,0,.866,0,1.323-0.12.006-.213,0.014-0.306,0.015-0.652,0-1.3.01-1.954,0a0.219,0.219,0,0,0-.266.271,11.212,11.212,0,0,0,1.068,4.792c0.139,0.3.3,0.582,0.468,0.9l2.047-1.786Zm12.286,2.665v2.93H719.06l-0.019-.2c0-.834,0-1.668-0.005-2.5a0.206,0.206,0,0,1,.254-0.251q5.457,0.008,10.916,0Zm-10.2-11.619c0.37,0.268.718,0.516,1.062,0.77,1.248,0.919,2.494,1.843,3.746,2.757a1.19,1.19,0,0,0,.425.17,1.134,1.134,0,0,1-.142,2.239,1.113,1.113,0,0,1-1.2-.859,2.548,2.548,0,0,0-.668-0.97c-1.062-1.346-2.144-2.678-3.217-4.015Z" transform="translate(-712.125 -218.594)"/>
</svg>
