<svg xmlns="http://www.w3.org/2000/svg" width="54.15" height="54.219" viewBox="0 0 54.15 54.219">
  <defs>
    <style>
      .cls-1 {
        fill: #4f5361;
        fill-rule: evenodd;
      }
    </style>
  </defs>
  <path id="Фигура_31_копия" data-name="Фигура 31 копия" class="cls-1" d="M1821.18,797.84c-3.17,3.2-7.01,4.969-10.3,4.975h-0.01a6.162,6.162,0,0,1-6.53-6.568c0-3.16,1.61-6.831,4.54-9.931l-3.08-3.08,0.7-.707,3.08,3.078c3.09-2.95,6.75-4.58,9.91-4.586h0.01a6.161,6.161,0,0,1,6.52,6.568C1826.02,790.859,1824.3,794.674,1821.18,797.84Zm2.32-14.344a5.55,5.55,0,0,0-4.01-1.475h-0.02c-2.8,0-6.27,1.5-9.18,4.293l0.46,0.457-0.71.708-0.46-.456c-2.77,2.938-4.25,6.413-4.24,9.224a5.18,5.18,0,0,0,5.54,5.568h0.01c2.93,0,6.58-1.64,9.58-4.678,2.97-3,4.56-6.633,4.55-9.548A5.57,5.57,0,0,0,1823.5,783.5Zm-8.97,10.853a3.083,3.083,0,1,1,2.18-.9A3.085,3.085,0,0,1,1814.53,794.349Zm-17.22-19.6,0.71-.708,4.24,4.243-0.71.707Zm-8.48-8.486,0.71-.707,4.24,4.243-0.71.707Zm-8.49-8.485,0.71-.707,4.24,4.243-0.7.707Zm-8.48-8.485,0.71-.707,4.24,4.242-0.71.708Z" transform="translate(-1771.88 -748.594)"/>
</svg>
