<svg xmlns="http://www.w3.org/2000/svg" width="24" height="29" viewBox="0 0 24 29">
  <defs>
    <style>
      .cls-1 {
        fill: #fff;
        fill-rule: evenodd;
      }
    </style>
  </defs>
  <path id="Фигура_1" data-name="Фигура 1" class="cls-1" d="M1335.88,392.659a2.867,2.867,0,0,1-1.64,1.772,11.909,11.909,0,0,1-3.75,1.111,37.863,37.863,0,0,1-5.55.407c-0.17,0-.33.028-0.5,0.042h-0.77c-0.27-.016-0.54-0.043-0.8-0.047a37.147,37.147,0,0,1-5.31-.4,11.674,11.674,0,0,1-3.77-1.114,5.263,5.263,0,0,1-1.07-.772,2.289,2.289,0,0,1-.7-1.63,3.472,3.472,0,0,1,1.02-2.946,11.569,11.569,0,0,1,1.05-.939,21.019,21.019,0,0,1,5.13-2.748c0.12-.048.24-0.093,0.37-0.142,0.37,1.343.72,2.68,1.1,4.009a24.341,24.341,0,0,0,1.44,3.865c0.49-1.392.97-2.762,1.45-4.149-0.19-.13-0.43-0.267-0.64-0.441a1.091,1.091,0,0,1-.03-1.832,0.3,0.3,0,0,1,.07-0.051,1.446,1.446,0,0,1,1.09-.432,2.023,2.023,0,0,1,1.42,1.1,0.823,0.823,0,0,1-.18.971,11.273,11.273,0,0,1-.91.747c0.24,0.639.52,1.315,0.77,2,0.23,0.682.43,1.378,0.67,2.15a42.219,42.219,0,0,0,2.52-7.9c0.42,0.162.84,0.306,1.25,0.477a17.459,17.459,0,0,1,4.8,2.754,4.171,4.171,0,0,1,1.47,2.062A4.293,4.293,0,0,1,1335.88,392.659Zm-8.22-10.621a2.4,2.4,0,0,0-.57,1.585,0.909,0.909,0,0,0,.01.33,0.557,0.557,0,0,1-.23.639,4.255,4.255,0,0,1-5.92-.2,0.4,0.4,0,0,1-.09-0.392,2.022,2.022,0,0,0-.43-1.847,11,11,0,0,1-2.8-8.263,6.1,6.1,0,0,1,5.6-5.852c0.13-.014.25-0.038,0.38-0.058h0.78a15.166,15.166,0,0,1,1.78.362,5.836,5.836,0,0,1,4.03,4.424,9.592,9.592,0,0,1-.38,5.508A10.587,10.587,0,0,1,1327.66,382.038Z" transform="translate(-1312.015 -367.485)"/>
</svg>
