<svg class="svg" xmlns="http://www.w3.org/2000/svg" width="80" height="80" viewBox="0 0 80 80"><path d="M47.3,62.576a11.155,11.155,0,0,1-3.627.48c-0.56,0-1.126-.018-1.692-0.036s-1.134-.036-1.694-0.036c-0.248,0-.494,0-0.739.012-1.262.044-2.534,0.161-3.794,0.161-0.5,0-.992-0.018-1.483-0.066-3.9-.379-3.891-0.457-4.863-4.014-1.23.411-2.495,1.2-3.687,1.2q-0.117,0-.234-0.011c-1.263-.117-2.505-1.119-3.634-1.909-2.247-1.572-1.581-3.662-.418-6.273a6.849,6.849,0,0,1-2.866.757c-2.487,0-3.623-2.211-4.873-4.49C9.84,41.339,5.8,34.427,1.831,27.473c-2.414-4.234-2.414-4.235,1.027-8.257L14.73,27.1l2.8-3.992L5.856,15.193c1.115-3.479,1.8-4.484,4.244-4.484a18.132,18.132,0,0,1,2,.142c3.7,0.422,7.394.892,11.068,1.481a5.185,5.185,0,0,0,.817.073,2.45,2.45,0,0,0,2.325-1.54c1.648-3,3.49-5.885,5.348-8.979C35.044,4,38.253,5.865,41.3,7.975a4.826,4.826,0,0,1,1.446,2.792c0.545,2.435.87,4.919,1.335,7.682A4.405,4.405,0,0,1,47.069,17.1a5.734,5.734,0,0,1,3.212,1.251c1.935,1.355,3.137,2.86,2.039,5.659a5.856,5.856,0,0,1,1.9-.359c2.131,0,3.138,1.656,3.865,3.518,1.041,2.665,1.776,5.448,2.7,8.162,0.514,1.515,1.55,2.972,1.633,4.494C62.922,49.129,56.112,59.548,47.3,62.576Zm-10.759-32.7-0.222,0A8.838,8.838,0,0,0,36.5,47.551c0.077,0,.154,0,0.231,0A8.837,8.837,0,0,0,36.537,29.876Zm0.005,15.643H36.506a6.719,6.719,0,0,1-6.747-6.967,6.648,6.648,0,0,1,6.77-6.6h0.038a6.745,6.745,0,0,1,6.79,6.932A6.861,6.861,0,0,1,36.542,45.519ZM22.734,3.047A4.921,4.921,0,0,1,27.082.554a7.77,7.77,0,0,1,2.679.526l-5.544,9.255C21.725,8.145,21.24,5.45,22.734,3.047Z" transform="translate(8.719 8.141)"/></svg>
