<svg class="svg" xmlns="http://www.w3.org/2000/svg" width="26" height="26" viewBox="0 0 26 26"><path d="M19.665,12.734a0.366,0.366,0,0,1,.175.416,1.042,1.042,0,0,1-.118.292q-0.909,1.576-1.826,3.148a0.5,0.5,0,0,1-.43.318,0.82,0.82,0,0,1-.294-0.068c-0.734-.289-1.467-0.58-2.2-0.864l-0.219,0q-0.725.4-1.439,0.83l-0.157.2c-0.124.731-.236,1.464-0.348,2.2a0.531,0.531,0,0,1-.631.536H8.926c-0.172,0-.344,0-0.516,0a0.442,0.442,0,0,1-.5-0.423c-0.119-.763-0.233-1.528-0.36-2.289l-0.159-.219c-0.439-.259-0.894-0.492-1.325-0.764a0.449,0.449,0,0,0-.243-0.084A0.479,0.479,0,0,0,5.638,16c-0.713.29-1.431,0.569-2.148,0.848a0.827,0.827,0,0,1-.294.066,0.514,0.514,0,0,1-.447-0.324q-0.89-1.533-1.78-3.066a0.485,0.485,0,0,1,.143-0.759c0.6-.48,1.2-0.956,1.8-1.438l0.111-.17a4.14,4.14,0,0,1,.011-1.616A0.323,0.323,0,0,0,2.857,9.16a3.172,3.172,0,0,1-.319-0.235c-0.489-.366-0.979-0.731-1.466-1.1A0.526,0.526,0,0,1,.906,7.036L2.678,3.987a0.608,0.608,0,0,1,.533-0.362,0.88,0.88,0,0,1,.33.074c0.7,0.284,1.392.566,2.084,0.857a0.308,0.308,0,0,0,.121.028,0.327,0.327,0,0,0,.171-0.059c0.473-.286.955-0.559,1.429-0.843l0.1-.155c0.117-.739.239-1.476,0.333-2.218A0.659,0.659,0,0,1,8.2.689H12.3a0.434,0.434,0,0,1,.294.5l0.026,0.222c0.108,0.69.22,1.378,0.322,2.069a0.305,0.305,0,0,0,.18.254C13.59,3.989,14.05,4.25,14.5,4.525a0.317,0.317,0,0,0,.167.056,0.329,0.329,0,0,0,.123-0.027c0.5-.2,1-0.395,1.5-0.591,0.253-.1.5-0.2,0.758-0.3a0.764,0.764,0,0,1,.259-0.053,0.5,0.5,0,0,1,.438.3q0.9,1.549,1.8,3.1a0.476,0.476,0,0,1-.133.732c-0.57.456-1.137,0.916-1.716,1.361a0.4,0.4,0,0,0-.185.461,3.9,3.9,0,0,1-.042,1.468,0.255,0.255,0,0,0,.138.289C18.293,11.794,18.976,12.269,19.665,12.734Zm-9.41-5.822H10.247a3.43,3.43,0,0,0-3.4,3.353,3.43,3.43,0,0,0,3.4,3.354h0.011a3.431,3.431,0,0,0,3.4-3.344A3.43,3.43,0,0,0,10.255,6.912Z" transform="translate(2.672 2.781)"/></svg>
