<svg class="svg" version="1.1" id="Слой_1" xmlns="http://www.w3.org/2000/svg" xmlns:xlink="http://www.w3.org/1999/xlink" x="0px" y="0px" width="26px" height="26px" viewBox="0 0 26 26" style="enable-background:new 0 0 26 26;" xml:space="preserve">
<g>
	<path d="M22.5,13c0-5.3-4.3-9.6-9.6-9.6S3.3,7.8,3.3,13c0,5.3,4.3,9.6,9.6,9.6c1.3,0,2.6-0.3,3.8-0.8c0.4,0.4,0.9,0.6,1.5,0.6
		c1.2,0,2.1-0.9,2.1-2.1c0-0.3-0.1-0.7-0.2-1C21.6,17.7,22.5,15.5,22.5,13z M19.3,18.6c-0.3-0.2-0.7-0.3-1.1-0.3
		c-1.2,0-2.1,0.9-2.1,2.1c0,0.2,0,0.4,0.1,0.5c-1,0.4-2.1,0.6-3.2,0.6c-4.7,0-8.5-3.8-8.5-8.5c0-4.7,3.8-8.5,8.5-8.5
		c4.7,0,8.5,3.8,8.5,8.5C21.4,15.2,20.6,17.1,19.3,18.6z"/>
	<path d="M14.8,7.3c-0.1-0.9-0.9-1.6-1.8-1.6s-1.7,0.7-1.8,1.6c-2.4,0.8-4.1,3-4.1,5.7c0,0.4,0,0.8,0.1,1.2
		c-0.5,0.3-0.9,0.9-0.9,1.6c0,1.1,0.9,1.9,1.9,1.9c0.3,0,0.6-0.1,0.9-0.2c1.1,0.9,2.4,1.5,3.9,1.5c3.3,0,6-2.7,6-6
		C18.9,10.4,17.2,8.1,14.8,7.3z M12.9,18c-1.2,0-2.3-0.4-3.1-1.2c0.2-0.3,0.3-0.6,0.3-1c0-1.1-0.9-1.9-1.9-1.9c0,0,0,0,0,0
		C8,13.6,8,13.3,8,13c0-2.1,1.4-3.9,3.3-4.6c0.3,0.6,0.9,1,1.7,1c0.7,0,1.3-0.4,1.7-1c1.9,0.7,3.3,2.5,3.3,4.6
		C17.8,15.8,15.6,18,12.9,18z"/>
	<polygon points="15.2,12.7 15.5,12.2 15,12 15.1,11.4 14.6,11.4 14.5,10.8 14,11 13.8,10.5 13.3,10.8 12.9,10.3 12.6,10.8 
		12.1,10.5 11.9,11 11.3,10.8 11.3,11.4 10.7,11.4 10.9,12 10.3,12.2 10.6,12.7 10.2,13 10.6,13.4 10.3,13.9 10.9,14.1 10.7,14.6 
		11.3,14.7 11.3,15.2 11.9,15.1 12.1,15.6 12.6,15.3 12.9,15.8 13.3,15.3 13.8,15.6 14,15.1 14.5,15.2 14.6,14.7 15.1,14.6 15,14.1 
		15.5,13.9 15.2,13.4 15.6,13 	"/>
</g>
</svg>
