<svg xmlns="http://www.w3.org/2000/svg" width="47" height="47" viewBox="0 0 47 47">
  <defs>
    <style>
      .cls-1 {
        fill: #505260;
        fill-rule: evenodd;
      }
    </style>
  </defs>
  <path id="Фигура_1" data-name="Фигура 1" class="cls-1" d="M20.825,14h4.283a0.455,0.455,0,0,1,.307.527,0.727,0.727,0,0,0,.027.233c0.113,0.723.23,1.446,0.335,2.171a0.36,0.36,0,0,0,.183.264c0.489,0.269.974,0.546,1.45,0.837a0.323,0.323,0,0,0,.292.024c0.519-.211,1.041-0.414,1.562-0.62,0.262-.1.521-0.212,0.786-0.308a0.6,0.6,0,0,1,.732.262q0.939,1.626,1.877,3.251a0.6,0.6,0,0,1-.145.773c-0.593.477-1.183,0.958-1.785,1.424a0.417,0.417,0,0,0-.194.484,4.106,4.106,0,0,1-.044,1.54,0.29,0.29,0,0,0,.123.289c0.727,0.492,1.446,1,2.172,1.488a0.385,0.385,0,0,1,.182.437,1.1,1.1,0,0,1-.123.306q-0.949,1.654-1.9,3.3a0.61,0.61,0,0,1-.753.264c-0.767-.3-1.533-0.61-2.3-0.908a0.338,0.338,0,0,0-.252.018q-0.762.428-1.511,0.878a0.278,0.278,0,0,0-.13.192c-0.129.767-.246,1.536-0.363,2.305a0.555,0.555,0,0,1-.658.562h-2.7c-0.41,0-.82,0-1.229,0a0.463,0.463,0,0,1-.525-0.444c-0.124-.8-0.243-1.6-0.376-2.4A0.315,0.315,0,0,0,20,30.928c-0.465-.278-0.949-0.526-1.405-0.816a0.476,0.476,0,0,0-.438-0.042c-0.745.3-1.494,0.6-2.244,0.891a0.626,0.626,0,0,1-.77-0.272q-0.929-1.609-1.857-3.218a0.623,0.623,0,0,1,.148-0.8c0.626-.5,1.254-1,1.878-1.51a0.269,0.269,0,0,0,.116-0.178,4.37,4.37,0,0,1,.012-1.7,0.341,0.341,0,0,0-.184-0.4,3.341,3.341,0,0,1-.333-0.247c-0.51-.384-1.021-0.766-1.529-1.153-0.394-.3-0.376-0.606,0-1.08a8.849,8.849,0,0,0,1.514-2.588c0.228-.659.549-0.869,1.058-0.66,0.725,0.3,1.452.594,2.173,0.9a0.313,0.313,0,0,0,.286-0.021c0.5-.3,1-0.589,1.5-0.889a0.276,0.276,0,0,0,.114-0.17c0.122-.775.249-1.549,0.348-2.327A0.69,0.69,0,0,1,20.825,14ZM19.411,24.048a3.555,3.555,0,1,0,3.55-3.518A3.587,3.587,0,0,0,19.411,24.048Z" transform="translate(0.453 -0.5)"/>
</svg>
