<svg class="svg" xmlns="http://www.w3.org/2000/svg" width="20" height="20" viewBox="0 0 20 20"><path d="M17.33,12.1c-0.982,4.587-8.391,7.9-8.391,7.9S1.622,16.684.652,12.1A60.347,60.347,0,0,1,0,1.581,0.512,0.512,0,0,1,.244,1.239C0.927,0.84,1.626.469,2.31,0.071A0.461,0.461,0,0,1,2.534-.006a0.325,0.325,0,0,1,.244.144,3.439,3.439,0,0,0,2.8,1.177h6.764A3.5,3.5,0,0,0,15.177.138a0.33,0.33,0,0,1,.248-0.144,0.47,0.47,0,0,1,.226.077c0.692,0.4,1.4.769,2.091,1.168a0.514,0.514,0,0,1,.252.342A59.73,59.73,0,0,1,17.33,12.1Z"/></svg>
