<svg id="Группа_1" data-name="Группа 1" xmlns="http://www.w3.org/2000/svg" width="80" height="80" viewBox="0 0 80 80">
  <defs>
    <style>
      .cls-1 {
        fill: #fff;
      }

      .cls-1, .cls-4 {
        fill-rule: evenodd;
      }

      .cls-2 {
        fill: #de0615;
      }

      .cls-3 {
        fill: #f59e00;
      }

      .cls-4 {
        fill: #ea5a0b;
      }
    </style>
  </defs>
  <path id="Фигура_2" data-name="Фигура 2" class="cls-1" d="M79.109,125.7v-3.458a2,2,0,0,0-2.119-2.171,2.134,2.134,0,0,0-1.934.977,2.023,2.023,0,0,0-1.819-.977,1.886,1.886,0,0,0-1.658.8v-0.666H70.473V125.7H71.59v-3.147a1.318,1.318,0,0,1,1.393-1.459,1.227,1.227,0,0,1,1.244,1.447V125.7h1.117v-3.147a1.329,1.329,0,0,1,1.393-1.459,1.224,1.224,0,0,1,1.255,1.447V125.7h1.117Zm17.94-5.491h-2v-1.666H93.928v1.666H92.765v1h1.163v2.6c0,1.275.449,2.033,1.865,2.033a2.82,2.82,0,0,0,1.5-.425l-0.346-.976a2.21,2.21,0,0,1-1.059.31,0.788,0.788,0,0,1-.841-0.919v-2.62h2v-1Zm10.214-.138a1.7,1.7,0,0,0-1.5.8v-0.666h-1.094V125.7h1.1v-3.09A1.267,1.267,0,0,1,107,121.116a1.958,1.958,0,0,1,.748.137l0.369-1.034a2.577,2.577,0,0,0-.852-0.149h0Zm-15.441.574a4.123,4.123,0,0,0-2.245-.574c-1.393,0-2.245.655-2.245,1.746,0,0.9.622,1.436,1.854,1.609l0.564,0.08c0.656,0.092,1.013.322,1.013,0.632,0,0.425-.484.7-1.3,0.7a2.856,2.856,0,0,1-1.831-.575l-0.564.862a4.117,4.117,0,0,0,2.384.712c1.589,0,2.464-.735,2.464-1.78,0-.965-0.668-1.46-1.877-1.632l-0.564-.08a0.717,0.717,0,1,1,.115-1.275,3.552,3.552,0,0,1,1.716.471Zm16.7,2.31a2.74,2.74,0,0,0,2.89,2.883,2.885,2.885,0,0,0,1.98-.655l-0.575-.861a2.423,2.423,0,0,1-1.44.494,1.868,1.868,0,0,1,0-3.722,2.423,2.423,0,0,1,1.44.494l0.575-.862a2.885,2.885,0,0,0-1.98-.655,2.741,2.741,0,0,0-2.89,2.884h0Zm-7.738-2.884a2.659,2.659,0,0,0-2.718,2.872,2.7,2.7,0,0,0,2.8,2.9,3.351,3.351,0,0,0,2.256-.769l-0.587-.816a2.622,2.622,0,0,1-1.6.574,1.617,1.617,0,0,1-1.693-1.424h4.111c0.011-.15.023-0.3,0.023-0.46a2.609,2.609,0,0,0-2.591-2.872h0Zm-0.023,1.023a1.4,1.4,0,0,1,1.451,1.39H99.236a1.47,1.47,0,0,1,1.52-1.39h0Zm-14.9,1.861v-2.746H84.751v0.666a2.182,2.182,0,0,0-1.785-.8,2.889,2.889,0,0,0,0,5.767,2.182,2.182,0,0,0,1.785-.8V125.7h1.106v-2.745Zm-4.456,0a1.721,1.721,0,0,1,1.716-1.861,1.871,1.871,0,0,1,0,3.722,1.721,1.721,0,0,1-1.716-1.861h0Zm42.489-2.884a1.7,1.7,0,0,0-1.5.8v-0.666H121.3V125.7H122.4v-3.09a1.267,1.267,0,0,1,1.221-1.493,1.958,1.958,0,0,1,.748.137l0.369-1.034a2.577,2.577,0,0,0-.852-0.149h0Zm8.868,4.833a0.546,0.546,0,0,1,.217.043,0.557,0.557,0,0,1,.177.117,0.551,0.551,0,0,1,.119.173,0.525,0.525,0,0,1,.043.212,0.517,0.517,0,0,1-.043.211,0.551,0.551,0,0,1-.119.173,0.577,0.577,0,0,1-.177.118,0.546,0.546,0,0,1-.217.043,0.56,0.56,0,0,1-.22-0.043,0.559,0.559,0,0,1-.3-0.291,0.517,0.517,0,0,1-.043-0.211,0.525,0.525,0,0,1,.043-0.212,0.551,0.551,0,0,1,.119-0.173,0.536,0.536,0,0,1,.177-0.117A0.56,0.56,0,0,1,132.757,124.9Zm0,0.97a0.409,0.409,0,0,0,.165-0.033,0.447,0.447,0,0,0,.134-0.091,0.39,0.39,0,0,0,.09-0.135,0.434,0.434,0,0,0,0-.332,0.4,0.4,0,0,0-.09-0.134,0.413,0.413,0,0,0-.134-0.091,0.426,0.426,0,0,0-.165-0.032,0.452,0.452,0,0,0-.168.032,0.407,0.407,0,0,0-.135.091,0.413,0.413,0,0,0-.091.134,0.434,0.434,0,0,0,0,.332,0.407,0.407,0,0,0,.091.135,0.44,0.44,0,0,0,.135.091A0.434,0.434,0,0,0,132.757,125.873Zm0.033-.68a0.229,0.229,0,0,1,.15.043,0.144,0.144,0,0,1,.053.119,0.138,0.138,0,0,1-.042.1,0.2,0.2,0,0,1-.12.05L133,125.7h-0.13l-0.154-.189h-0.049V125.7h-0.109v-0.506h0.235Zm-0.126.095v0.135h0.124a0.126,0.126,0,0,0,.069-0.017,0.056,0.056,0,0,0,.025-0.051,0.057,0.057,0,0,0-.025-0.051,0.126,0.126,0,0,0-.069-0.016h-0.124Zm-13.013-2.334v-2.746h-1.1v0.666a2.182,2.182,0,0,0-1.785-.8,2.889,2.889,0,0,0,0,5.767,2.182,2.182,0,0,0,1.785-.8V125.7h1.1v-2.745Zm-4.456,0a1.72,1.72,0,0,1,1.716-1.861,1.871,1.871,0,0,1,0,3.722,1.72,1.72,0,0,1-1.716-1.861h0Zm15.568,0V118h-1.106v2.872a2.18,2.18,0,0,0-1.784-.8,2.889,2.889,0,0,0,0,5.767,2.18,2.18,0,0,0,1.784-.8V125.7h1.106v-2.745Zm-4.456,0a1.72,1.72,0,0,1,1.715-1.861,1.871,1.871,0,0,1,0,3.722A1.72,1.72,0,0,1,126.307,122.954Z" transform="translate(-60.5 -60)"/>
  <circle id="Эллипс_2" data-name="Эллипс 2" class="cls-2" cx="27" cy="34.5" r="20.5"/>
  <circle id="Эллипс_2_копия" data-name="Эллипс 2 копия" class="cls-3" cx="53" cy="34.5" r="20.5"/>
  <path id="Эллипс_2_копия_2" data-name="Эллипс 2 копия 2" class="cls-4" d="M93,94.5a20.456,20.456,0,0,1,7.5-15.849,20.5,20.5,0,0,1,0,31.7A20.458,20.458,0,0,1,93,94.5Z" transform="translate(-60.5 -60)"/>
</svg>