<svg xmlns="http://www.w3.org/2000/svg" width="22" height="22" viewBox="0 0 22 22">
  <defs>
    <style>
      .cls-1 {
        fill: #0087f0;
        fill-rule: evenodd;
      }
    </style>
  </defs>
  <path id="Фигура_4" data-name="Фигура 4" class="cls-1" d="M1418,548a11,11,0,1,1,11-11A11.009,11.009,0,0,1,1418,548Zm0-19.556a8.556,8.556,0,1,0,8.56,8.556A8.568,8.568,0,0,0,1418,528.444Zm-1.16,13.258a1.215,1.215,0,0,1-.86-0.359l-4-3.992,1.73-1.728,3.13,3.128,5.45-5.445,1.73,1.728-6.31,6.309A1.238,1.238,0,0,1,1416.84,541.7Z" transform="translate(-1407 -526)"/>
</svg>
