<svg xmlns="http://www.w3.org/2000/svg" width="27" height="27" viewBox="0 0 27 27">
  <defs>
    <style>
      .cls-1 {
        fill: #fff;
        fill-rule: evenodd;
      }
    </style>
  </defs>
  <path id="Фигура_31_copy_14" data-name="Фигура 31 copy 14" class="cls-1" d="M26.454,11.951a3.565,3.565,0,0,0,.012,3.138c0.143,0.3.249,0.623,0.373,0.934a1.6,1.6,0,0,1-.5,1.949,6.976,6.976,0,0,1-.728.578,3.83,3.83,0,0,0-1.709,2.975c-0.2,1.888-.524,2.207-2.371,2.391A3.83,3.83,0,0,0,18.55,25.61a6.08,6.08,0,0,1-.68.844,1.546,1.546,0,0,1-1.765.427,8.245,8.245,0,0,1-.79-0.315,4.052,4.052,0,0,0-3.65,0c-1.651.73-2.042,0.639-3.072-.8a4.314,4.314,0,0,0-3.376-1.884c-1.5-.121-1.963-0.575-2.083-2.074a4.354,4.354,0,0,0-1.939-3.427c-1.363-.966-1.48-1.419-0.782-2.948A4.359,4.359,0,0,0,.4,11.571c-0.685-1.5-.566-1.962.746-2.893A4.44,4.44,0,0,0,3.136,5.191c0.118-1.49.589-1.93,2.1-2.055A4.291,4.291,0,0,0,8.6,1.233c0.987-1.4,1.431-1.508,3.009-.8A4.333,4.333,0,0,0,15.405.428c1.561-.706,2-0.592,3,0.82a4.322,4.322,0,0,0,3.375,1.889c1.5,0.13,1.976.58,2.087,2.071a4.354,4.354,0,0,0,2,3.478,1.963,1.963,0,0,1,1.118,1.865C26.855,10.9,26.686,11.438,26.454,11.951ZM13.543,5.59a7.923,7.923,0,1,0,7.88,7.982A7.943,7.943,0,0,0,13.543,5.59Zm3.105,8.87a1.058,1.058,0,0,0-.357,1.088c0.184,0.957.334,1.921,0.53,3.069-1.03-.539-1.892-1.034-2.8-1.437a1.422,1.422,0,0,0-1.04,0c-0.907.405-1.772,0.9-2.8,1.444,0.191-1.114.336-2.052,0.518-2.982a1.176,1.176,0,0,0-.39-1.224c-0.7-.646-1.321-1.369-2.034-2.12,0.983-.152,1.945-0.341,2.916-0.433a1.048,1.048,0,0,0,.96-0.724c0.392-.865.839-1.706,1.348-2.724,0.478,0.964.915,1.792,1.3,2.643a1.156,1.156,0,0,0,1.066.817c0.948,0.075,1.887.271,2.921,0.431C18.044,13.057,17.371,13.785,16.648,14.46Z"/>
</svg>
