<svg xmlns="http://www.w3.org/2000/svg" width="24" height="24" viewBox="0 0 24 24">
  <defs>
    <style>
      .cls-1 {
        fill: #f4c83b;
        fill-rule: evenodd;
      }
    </style>
  </defs>
  <path id="ico-treasure-7" class="cls-1" d="M19.979,19.2l0.069-.12-3.488-3.624A5.828,5.828,0,0,0,17.646,12a5.807,5.807,0,0,0-5.682-5.9A5.807,5.807,0,0,0,6.282,12a6.1,6.1,0,0,0,1.086,3.456L3.88,19.08,4,19.2,1.986,18V6l10-6,10,6V18ZM9.239,14.856A4.176,4.176,0,0,1,8.107,12a3.967,3.967,0,0,1,3.88-4.032A3.967,3.967,0,0,1,15.868,12a4.073,4.073,0,0,1-1.132,2.856l-0.647.672,4.412,4.56L11.988,24,5.474,20.088l4.412-4.56Z"/>
</svg>
