<svg xmlns="http://www.w3.org/2000/svg" width="17" height="17" viewBox="0 0 17 17">
  <path fill="#8D8FA9" d="M1451.65,596.01a1.379,1.379,0,0,0-.99.413l-4.17,4.165-4.17-4.165a1.379,1.379,0,0,0-.99-0.413,1.419,1.419,0,0,0-1,.413l-1.92,1.922a1.41,1.41,0,0,0,0,1.993l4.16,4.165-4.16,4.165a1.411,1.411,0,0,0,0,1.994l1.92,1.922a1.422,1.422,0,0,0,1,.412,1.382,1.382,0,0,0,.99-0.412l4.17-4.166,4.17,4.166a1.407,1.407,0,0,0,1.99,0l1.92-1.922a1.393,1.393,0,0,0,0-1.994l-4.16-4.165,4.16-4.165a1.392,1.392,0,0,0,0-1.993l-1.92-1.922a1.385,1.385,0,0,0-1-.413" transform="translate(-1438 -596)"/>
</svg>
