<svg xmlns="http://www.w3.org/2000/svg" width="100" height="80" viewBox="0 0 100 80">
  <defs>
    <style>
      .cls-1 {
        fill-rule: evenodd;
      }
    </style>
  </defs>
  <path class="cls-1" d="M284,51H204a10.029,10.029,0,0,0-10,10v60a10.029,10.029,0,0,0,10,10h80a10.029,10.029,0,0,0,10-10V61A10.029,10.029,0,0,0,284,51Zm0,70H204V61h80v60Zm-45-19.5H214v9h25v-9Zm0-15H214v9h25v-9Zm0-15H214v9h25v-9Zm34.5,32s-8.5-2.224-8.5-6.589c0-4.161,5.5-5.911,5.5-14.411,0-6.9-2.1-11-9-11s-9,4.1-9,11c0,8.5,5.5,10.25,5.5,14.411,0,4.365-8.5,6.589-8.5,6.589-0.5,0-.5,7-0.5,7h25S274,103.5,273.5,103.5Z" transform="translate(-194 -51)"/>
</svg>
