<svg xmlns="http://www.w3.org/2000/svg" width="95" height="95" viewBox="0 0 95 95">
  <defs>
    <style>
      .cls-1 {
        fill: #717585;
        fill-rule: evenodd;
      }
    </style>
  </defs>
  <path id="Фигура_6" data-name="Фигура 6" class="cls-1" d="M721.739,134.544a7.248,7.248,0,0,1-2.616,4.3,4.662,4.662,0,0,1-3.278,1.161c-1.559-.067-3.124,0-4.686-0.03a0.854,0.854,0,0,1-.63-0.321q-3.677-6.281-7.31-12.586a1.016,1.016,0,0,1-.046-0.2l12.038-6.9c0.129,0.2.253,0.386,0.364,0.576,1.606,2.745,3.2,5.5,4.819,8.234a9.256,9.256,0,0,1,1.429,4.044,0.729,0.729,0,0,0,.1.217v0.366C721.86,133.786,721.812,134.167,721.739,134.544ZM707.675,119.79a0.766,0.766,0,0,1-.728.52c-4.316-.007-8.631.01-12.946,0.019-0.059,0-.117-0.016-0.345-0.048l4.083-2.375c-0.113-.211-0.2-0.387-0.3-0.556q-3.673-6.349-7.347-12.7a4.736,4.736,0,0,0-2.236-2.1h0.527q7.614-.02,15.226-0.043a2.319,2.319,0,0,1,2.219,1.244c1.228,2.161,2.49,4.3,3.739,6.452,0.121,0.209.246,0.417,0.41,0.7l4.206-2.392c-0.16.3-.235,0.455-0.32,0.6Q710.77,114.448,707.675,119.79Zm-18.693-14.344c0.907,1.4,1.722,2.864,2.541,4.32a0.906,0.906,0,0,1,.026.756q-3.637,6.3-7.319,12.575a1.316,1.316,0,0,1-.136.143l-12.074-6.918c0.427-.735.812-1.4,1.2-2.069q2.25-3.854,4.5-7.706a7.181,7.181,0,0,1,9.8-2.538A4.624,4.624,0,0,1,688.982,105.446Zm-12.669,17.667c2.242,3.766,4.463,7.543,6.621,11.419l-4.045-2.3c-0.144.23-.275,0.429-0.395,0.635q-3.638,6.232-7.276,12.463a4.483,4.483,0,0,0-.719,3.214c-0.117-.184-0.24-0.366-0.351-0.555q-3.812-6.483-7.625-12.967a2.386,2.386,0,0,1-.043-2.643c1.286-2.152,2.543-4.322,3.81-6.485,0.112-.191.214-0.388,0.343-0.624l-4.026-2.366,0.057-.112c4.357,0,8.715,0,13.072.013A0.786,0.786,0,0,1,676.313,123.113Zm-4.046,23.037c0.84-1.514,1.727-3,2.623-4.485a0.864,0.864,0,0,1,.588-0.4c4.891-.019,9.782-0.011,14.672-0.006a1.061,1.061,0,0,1,.2.06V155.14h-0.608c-3.555,0-7.11.009-10.665,0a7.141,7.141,0,0,1-7.215-7.6A3.393,3.393,0,0,1,672.267,146.15Zm28.043-9.245c0.046-.079.108-0.147,0.267-0.362v4.776h0.851c4.686,0,9.372-.009,14.057.007a5.478,5.478,0,0,0,3.424-.9c-0.06.131-.109,0.269-0.18,0.393q-3.825,6.615-7.652,13.229a2.236,2.236,0,0,1-2.115,1.206c-2.548-.026-5.1-0.008-7.645-0.008h-0.754V160a3.9,3.9,0,0,1-.327-0.394q-3.168-5.44-6.319-10.892a0.822,0.822,0,0,1-.027-0.693Q697.079,142.45,700.31,136.905Z" transform="translate(-644.5 -83.75)"/>
</svg>
