<svg xmlns="http://www.w3.org/2000/svg" width="24" height="24" viewBox="0 0 24 24">
  <defs>
    <style>
      .cls-1 {
        fill-rule: evenodd;
      }
    </style>
  </defs>
  <path id="ico-treasure-8" class="cls-1" d="M11.988,24l-10-6V6l10-6,10,6V18Zm0-17.9A5.807,5.807,0,0,0,6.306,12a5.807,5.807,0,0,0,5.682,5.9A5.792,5.792,0,0,0,17.669,12,5.792,5.792,0,0,0,11.988,6.1Zm0,9.936A3.967,3.967,0,0,1,8.107,12a3.967,3.967,0,0,1,3.88-4.032A3.952,3.952,0,0,1,15.868,12,3.952,3.952,0,0,1,11.988,16.032Z"/>
</svg>
