<svg xmlns="http://www.w3.org/2000/svg" width="80" height="80" viewBox="0 0 80 80">
  <defs>
    <style>
      .cls-1 {
        fill: #fff;
        fill-rule: evenodd;
      }
    </style>
  </defs>
  <path id="ico-buy-apple" class="cls-1" d="M131.785,104.961c-0.5,1.35-.986,2.606-1.438,3.729s-0.916,2.14-1.379,3.037a22.549,22.549,0,0,1-1.422,2.4,10.147,10.147,0,0,1-1.63,1.85,8.995,8.995,0,0,1-1.938,1.382c-0.584.288-.967,0.464-1.173,0.542l-0.249.094-0.787-1.927,0.244-.111a14.331,14.331,0,0,0,1.431-.756,7.7,7.7,0,0,0,1.512-1.207,15.135,15.135,0,0,0,1.414-1.711,12.17,12.17,0,0,0,1.371-2.568,2.527,2.527,0,0,0,.2-0.668,1.929,1.929,0,0,0-.2-0.662l-6.459-16.731H123.7l4.516,11.638c0.241,0.635.477,1.3,0.7,1.979,0.115,0.353.222,0.687,0.323,1.01h0.08c0.1-.309.205-0.632,0.315-0.974,0.224-.685.471-1.389,0.734-2.087l4.223-11.566H137Zm-14.674,2.849h-0.088c-0.134.16-.271,0.32-0.43,0.477a6.786,6.786,0,0,1-1.234.975,6.539,6.539,0,0,1-1.6.712,6.888,6.888,0,0,1-1.957.268,5.831,5.831,0,0,1-2.351-.445,4.838,4.838,0,0,1-1.68-1.165,4.755,4.755,0,0,1-.986-1.65,5.531,5.531,0,0,1-.327-1.85,5.676,5.676,0,0,1,2.752-5.011c1.74-1.128,4.36-1.691,7.714-1.676v-0.2a11.151,11.151,0,0,0-.126-1.569,4.8,4.8,0,0,0-.537-1.625,3.409,3.409,0,0,0-1.222-1.266,4.182,4.182,0,0,0-2.234-.512,7.283,7.283,0,0,0-2.17.336,7.373,7.373,0,0,0-1.959.939l-0.277.188-0.765-1.8,0.184-.128a8.424,8.424,0,0,1,2.5-1.2,9.9,9.9,0,0,1,2.669-.359,6.537,6.537,0,0,1,3.114.657,5.244,5.244,0,0,1,1.909,1.707,6.359,6.359,0,0,1,.938,2.323,13.2,13.2,0,0,1,.244,2.5v6.941c0,0.707.011,1.416,0.035,2.123a14.061,14.061,0,0,0,.214,2.015l0.06,0.326h-2.181Zm-0.184-7.418h-0.285c-0.743,0-1.526.038-2.326,0.115a10.317,10.317,0,0,0-2.727.626,5.086,5.086,0,0,0-2.017,1.377,3.436,3.436,0,0,0-.773,2.35,3.869,3.869,0,0,0,.269,1.523,3,3,0,0,0,.7,1.027,2.882,2.882,0,0,0,1,.6,3.581,3.581,0,0,0,1.192.2,5.506,5.506,0,0,0,1.814-.279,4.651,4.651,0,0,0,1.384-.745,4.8,4.8,0,0,0,.987-1.057,5.074,5.074,0,0,0,.608-1.22,4,4,0,0,0,.167-0.978v-3.547Zm-13.836-2.868a7.946,7.946,0,0,1-2.859,1.5,12.482,12.482,0,0,1-3.567.489,15.378,15.378,0,0,1-2.6-.2v10.52H91.8V84.865l0.228-.039c0.709-.124,1.5-0.235,2.349-0.333a25.015,25.015,0,0,1,2.839-.149,12.223,12.223,0,0,1,3.861.547,7.067,7.067,0,0,1,2.71,1.588,6.622,6.622,0,0,1,1.406,2.19,7.85,7.85,0,0,1,.5,2.895,8.118,8.118,0,0,1-.7,3.461A7.257,7.257,0,0,1,103.091,97.524Zm-0.1-8.2a4.249,4.249,0,0,0-1.266-1.639,5.918,5.918,0,0,0-1.988-.981,9.305,9.305,0,0,0-2.585-.338,18.859,18.859,0,0,0-1.976.09c-0.435.048-.805,0.1-1.1,0.155V97.229a7.554,7.554,0,0,0,1.137.192c0.5,0.048,1.041.072,1.615,0.072a7.394,7.394,0,0,0,4.893-1.478,5.356,5.356,0,0,0,1.723-4.307A5.859,5.859,0,0,0,102.987,89.324ZM78.761,110.01c-1.86.033-2.462-1.118-4.59-1.115s-2.794,1.082-4.559,1.151c-1.834.069-3.226-1.844-4.4-3.548-2.39-3.478-4.217-9.829-1.769-14.131A6.806,6.806,0,0,1,69.2,88.854c1.8-.037,3.493,1.215,4.594,1.215s3.163-1.5,5.331-1.287a6.5,6.5,0,0,1,5.09,2.774A6.364,6.364,0,0,0,81.208,96.9a6.2,6.2,0,0,0,3.736,5.675,15.339,15.339,0,0,1-1.92,3.983C81.862,108.271,80.658,109.968,78.761,110.01Zm-5.7-21.544a5.864,5.864,0,0,1,1.471-4.338A6.222,6.222,0,0,1,78.626,82a6.216,6.216,0,0,1-1.448,4.477A5.136,5.136,0,0,1,73.056,88.466Z" transform="translate(-59.641 -60)"/>
</svg>
