<svg class="svg" xmlns="http://www.w3.org/2000/svg" width="38" height="22" viewBox="0 0 38 22"><path d="M1814.57,101.852v-7.7a11.745,11.745,0,0,1,1.37-.648v9A11.566,11.566,0,0,1,1814.57,101.852Zm17.14,3.576a19.8,19.8,0,0,1-3.37-.285l-3.9,3.868h-12.1l5.87-5.815c-0.36-.081-0.69-0.39-0.98-0.472V93.187c0.29-.083.62-0.279,0.98-0.361l-5.87-5.839h12.1l3.9,3.884a19.758,19.758,0,0,1,3.37-.286c10.08,0,18.29,7.437,18.29,7.437S1841.79,105.428,1831.71,105.428Zm3.2-11A3.576,3.576,0,1,0,1838.5,98,3.584,3.584,0,0,0,1834.91,94.424Zm-21.56,6.9a12.029,12.029,0,0,1-1.36-.646V95.327a11.981,11.981,0,0,1,1.36-.648v6.64Z" transform="translate(-1812 -87)"/></svg>
