<svg xmlns="http://www.w3.org/2000/svg" width="20" height="20" viewBox="0 0 20 20">
  <defs>
    <style>
      .cls-1 {
        fill: #50535f;
        fill-rule: evenodd;
      }
    </style>
  </defs>
  <path id="Фигура_7" data-name="Фигура 7" class="cls-1" d="M1246.84,488.961h-14.23a1.84,1.84,0,0,1-1.86-1.824v-7.865a1.841,1.841,0,0,1,1.86-1.824h1.26v-2.717a5.856,5.856,0,0,1,11.71,0v2.717h1.26a1.841,1.841,0,0,1,1.86,1.824v7.865A1.84,1.84,0,0,1,1246.84,488.961Zm-4.73-14.23a2.385,2.385,0,0,0-4.77,0v2.717h4.77v-2.717Z" transform="translate(-1229.72 -468.969)"/>
</svg>
