<svg xmlns="http://www.w3.org/2000/svg" width="22" height="22" viewBox="0 0 22 22">
  <defs>
    <style>
      .cls-1 {
        fill: #ee4036;
        fill-rule: evenodd;
      }
    </style>
  </defs>
  <path id="Фигура_7" data-name="Фигура 7" class="cls-1" d="M1446,548a11,11,0,1,1,11-11A11.019,11.019,0,0,1,1446,548Zm0-19.912a8.911,8.911,0,1,0,8.91,8.91A8.924,8.924,0,0,0,1446,528.088Zm2.97,13.811-2.91-2.911-3.04,3.036-1.48-1.479,2.98-2.973-2.98-2.973,1.48-1.479,2.91,2.911,3.04-3.036,1.48,1.478-2.98,2.974,2.98,2.974Z" transform="translate(-1435 -526)"/>
</svg>
