<svg class="svg" xmlns="http://www.w3.org/2000/svg" width="26" height="26" viewBox="0 0 26 26"><path d="M1874.87,31.394a2.751,2.751,0,0,1-4.39,3.168A12.589,12.589,0,1,1,1874.87,31.394Zm-9.38-19.462a11.065,11.065,0,1,0,4.23,21.294,2.74,2.74,0,0,1,2.67-3.4,2.72,2.72,0,0,1,1.45.418A11.062,11.062,0,0,0,1865.49,11.932Zm0,18.969a7.864,7.864,0,0,1-5.2-1.958,2.489,2.489,0,0,1-1.08.245,2.55,2.55,0,0,1-1.46-4.641,7.927,7.927,0,0,1,5.34-9.078,2.435,2.435,0,0,1,4.81,0A7.905,7.905,0,0,1,1865.49,30.9Zm4.5-3.4A6.381,6.381,0,0,0,1867.65,17a2.434,2.434,0,0,1-4.31,0,6.359,6.359,0,0,0-4.21,6,6.572,6.572,0,0,0,.09,1.095,2.548,2.548,0,0,1,2.2,3.8A6.351,6.351,0,0,0,1869.99,27.5Zm-4.97-1.51-0.62.388-0.28-.681-0.72.176-0.05-.734-0.73-.054,0.17-.715-0.68-.278,0.39-.625L1861.94,23l0.56-.475-0.39-.625,0.68-.278-0.17-.715,0.73-.054,0.05-.734,0.72,0.176,0.28-.681L1865.02,20l0.47-.562L1865.97,20l0.62-.388,0.28,0.681,0.71-.176,0.06,0.734,0.73,0.054-0.18.715,0.68,0.278-0.38.625L1869.05,23l-0.56.475,0.38,0.625-0.68.278,0.18,0.715-0.73.053-0.06.734-0.71-.176-0.28.681-0.62-.388-0.48.562Z" transform="translate(-1852.91 -10.406)"/></svg>
