<svg xmlns="http://www.w3.org/2000/svg" width="47" height="47" viewBox="0 0 47 47">
  <defs>
    <style>
      .cls-1 {
        fill: #505260;
        fill-rule: evenodd;
      }
    </style>
  </defs>
  <path id="Фигура_2" data-name="Фигура 2" class="cls-1" d="M33.853,32.268a2.371,2.371,0,0,1-1.359,1.456,9.846,9.846,0,0,1-3.108.913,31.56,31.56,0,0,1-4.6.334c-0.136,0-.273.023-0.409,0.035H23.732c-0.221-.014-0.442-0.036-0.663-0.039a30.941,30.941,0,0,1-4.393-.33,9.742,9.742,0,0,1-3.131-.915,4.548,4.548,0,0,1-.888-0.634,1.894,1.894,0,0,1-.58-1.339,2.871,2.871,0,0,1,.846-2.421,9.967,9.967,0,0,1,.871-0.772A17.518,17.518,0,0,1,20.045,26.3c0.1-.039.2-0.076,0.307-0.117,0.306,1.1.6,2.2,0.916,3.295a19.844,19.844,0,0,0,1.191,3.177l1.2-3.41c-0.159-.107-0.359-0.22-0.534-0.363a0.893,0.893,0,0,1-.022-1.5,0.509,0.509,0,0,1,.054-0.042,1.215,1.215,0,0,1,.907-0.355,1.678,1.678,0,0,1,1.178.9,0.678,0.678,0,0,1-.151.8,9.645,9.645,0,0,1-.756.614c0.2,0.525.437,1.081,0.637,1.648s0.362,1.132.562,1.766a34.422,34.422,0,0,0,2.084-6.493c0.352,0.133.7,0.252,1.034,0.392a14.449,14.449,0,0,1,3.982,2.263,3.389,3.389,0,0,1,1.215,1.695A3.449,3.449,0,0,1,33.853,32.268ZM27.046,23.54a1.941,1.941,0,0,0-.478,1.3,0.733,0.733,0,0,0,.012.271,0.458,0.458,0,0,1-.194.525,3.544,3.544,0,0,1-4.9-.161,0.316,0.316,0,0,1-.077-0.323,1.65,1.65,0,0,0-.353-1.518,9,9,0,0,1-2.325-6.79,5.108,5.108,0,0,1,1.8-3.651,5.161,5.161,0,0,1,2.841-1.158c0.106-.011.211-0.031,0.316-0.048H24.33a12.59,12.59,0,0,1,1.479.3,4.8,4.8,0,0,1,3.338,3.635,7.788,7.788,0,0,1-.315,4.526A8.779,8.779,0,0,1,27.046,23.54Z" transform="translate(-0.516)"/>
</svg>
