<svg xmlns="http://www.w3.org/2000/svg" width="80" height="80" viewBox="0 0 80 80">
  <defs>
    <style>
      .cls-1 {
        fill: #006bb2;
        fill-rule: evenodd;
      }
    </style>
  </defs>
  <path id="ico-buy-wm" class="cls-1" d="M130.856,105.52l-3.733-4.16,4.146-3.747L135,101.774ZM121.822,89l4.146-3.746,3.733,4.161-4.145,3.746Zm-5.3-12.364,4.146-3.746,3.733,4.161-4.147,3.746Zm-7.237-9.056-8.14,7.287-4.835-5.3L81.149,83.285,90.87,94.038,87.05,97.41l9.575,10.769-3.8,3.364,13.683,15.286,8.122-7.5,7.022,8.042a37.27,37.27,0,0,1-4.594,3.063A34.511,34.511,0,0,1,99.868,135a35,35,0,0,1,0-70,34.52,34.52,0,0,1,15.279,3.551q1.087,0.518,2.174,1.145l-3.21,2.884Zm10.159,43.95-5.6-6.241,6.221-5.622,5.6,6.244Zm0.9-18.81-6.217,5.62-5.6-6.24,6.22-5.622Zm-5.733-12.55L108.4,85.787l-5.6-6.244,6.219-5.619ZM95.872,76.083l7.465,8.322L95.044,91.9l-7.465-8.323ZM115.169,113l-8.292,7.5-7.468-8.325,8.293-7.493ZM101.805,90.293l7.467,8.325-8.292,7.492-7.467-8.322Zm23.729,21.978,5.6,6.241-6.219,5.62-5.6-6.24Z" transform="translate(-60 -60)"/>
</svg>
