<svg id="ico-buy-maestro" xmlns="http://www.w3.org/2000/svg" width="80" height="80" viewBox="0 0 80 80">
  <defs>
    <style>
      .cls-1 {
        fill: #deddde;
      }

      .cls-1, .cls-4 {
        fill-rule: evenodd;
      }

      .cls-2 {
        fill: #eb001b;
      }

      .cls-3 {
        fill: #00a0df;
      }

      .cls-4 {
        fill: #7673c0;
      }
    </style>
  </defs>
  <path id="Фигура_3" data-name="Фигура 3" class="cls-1" d="M87.256,125.7v-3.437a2.042,2.042,0,0,0-2.159-2.178,2.13,2.13,0,0,0-1.929.974,2.018,2.018,0,0,0-1.815-.974,1.816,1.816,0,0,0-1.608.814v-0.676H78.551V125.7h1.206v-3.036a1.283,1.283,0,0,1,1.344-1.456,1.2,1.2,0,0,1,1.194,1.444V125.7H83.5v-3.036a1.293,1.293,0,0,1,1.344-1.456,1.192,1.192,0,0,1,1.206,1.444V125.7h1.206Zm6.73-2.739v-2.738H92.792v0.664a2.086,2.086,0,0,0-1.734-.8,2.88,2.88,0,0,0,0,5.753,2.086,2.086,0,0,0,1.734-.8V125.7h1.194v-2.739Zm-4.444,0a1.662,1.662,0,1,1,1.665,1.754A1.645,1.645,0,0,1,89.542,122.961Zm30-2.882a3.1,3.1,0,0,1,1.178.22,2.878,2.878,0,0,1,.937.606,2.764,2.764,0,0,1,.619.913,3.031,3.031,0,0,1,0,2.287,2.764,2.764,0,0,1-.619.913,2.878,2.878,0,0,1-.937.606,3.264,3.264,0,0,1-2.356,0,2.854,2.854,0,0,1-.934-0.606,2.8,2.8,0,0,1-.616-0.913,3.031,3.031,0,0,1,0-2.287,2.8,2.8,0,0,1,.616-0.913,2.854,2.854,0,0,1,.934-0.606A3.1,3.1,0,0,1,119.542,120.079Zm0,1.127a1.8,1.8,0,0,0-.682.128,1.6,1.6,0,0,0-.544.361,1.673,1.673,0,0,0-.362.555,2,2,0,0,0,0,1.424,1.679,1.679,0,0,0,.362.554,1.6,1.6,0,0,0,.544.361,1.881,1.881,0,0,0,1.364,0,1.64,1.64,0,0,0,.548-0.361,1.668,1.668,0,0,0,.364-0.554,1.986,1.986,0,0,0,0-1.424,1.663,1.663,0,0,0-.364-0.555,1.64,1.64,0,0,0-.548-0.361A1.8,1.8,0,0,0,119.542,121.206Zm-19.057,1.755a2.628,2.628,0,0,0-2.607-2.876,2.879,2.879,0,0,0,.08,5.753,3.342,3.342,0,0,0,2.251-.768l-0.585-.882a2.622,2.622,0,0,1-1.6.572,1.524,1.524,0,0,1-1.642-1.34h4.077C100.474,123.271,100.485,123.122,100.485,122.961ZM96.4,122.48a1.412,1.412,0,0,1,1.458-1.329,1.362,1.362,0,0,1,1.39,1.329H96.4Zm9.118-.859a3.548,3.548,0,0,0-1.711-.47c-0.655,0-1.045.241-1.045,0.642,0,0.366.413,0.47,0.93,0.538l0.563,0.08c1.194,0.172,1.917.676,1.917,1.639,0,1.043-.918,1.788-2.5,1.788a3.96,3.96,0,0,1-2.377-.711l0.562-.928a2.931,2.931,0,0,0,1.826.573c0.816,0,1.252-.24,1.252-0.665,0-.309-0.31-0.481-0.965-0.573l-0.562-.08c-1.229-.172-1.895-0.722-1.895-1.615,0-1.089.9-1.754,2.285-1.754a4.116,4.116,0,0,1,2.24.573Zm5.739-.31H109.3v2.476a0.755,0.755,0,0,0,.793.916,2.208,2.208,0,0,0,1.056-.309l0.345,1.02a2.814,2.814,0,0,1-1.493.424c-1.413,0-1.906-.757-1.906-2.029v-2.5h-1.114v-1.088H108.1v-1.662H109.3v1.662h1.953v1.088Zm4.133-1.226a2.562,2.562,0,0,1,.85.149l-0.368,1.123a1.948,1.948,0,0,0-.746-0.137,1.166,1.166,0,0,0-1.171,1.409V125.7h-1.195v-5.477h1.183v0.664a1.62,1.62,0,0,1,1.447-.8h0Zm8.269,4.818a0.541,0.541,0,0,1,.216.043,0.557,0.557,0,0,1,.177.117,0.551,0.551,0,0,1,.119.173,0.525,0.525,0,0,1,.043.212,0.517,0.517,0,0,1-.043.211,0.551,0.551,0,0,1-.119.173,0.577,0.577,0,0,1-.177.118,0.541,0.541,0,0,1-.216.043,0.562,0.562,0,0,1-.221-0.043,0.559,0.559,0,0,1-.3-0.291,0.517,0.517,0,0,1-.043-0.211,0.525,0.525,0,0,1,.043-0.212,0.551,0.551,0,0,1,.119-0.173,0.536,0.536,0,0,1,.177-0.117A0.562,0.562,0,0,1,123.656,124.9Zm0,0.97a0.407,0.407,0,0,0,.164-0.033,0.447,0.447,0,0,0,.134-0.091,0.429,0.429,0,0,0,.091-0.135,0.447,0.447,0,0,0,0-.332,0.422,0.422,0,0,0-.225-0.225,0.407,0.407,0,0,0-.164-0.033,0.427,0.427,0,0,0-.168.033,0.414,0.414,0,0,0-.136.09,0.429,0.429,0,0,0-.091.135,0.434,0.434,0,0,0,0,.332A0.425,0.425,0,0,0,123.656,125.873Zm0.032-.68a0.229,0.229,0,0,1,.15.043,0.144,0.144,0,0,1,.053.118,0.139,0.139,0,0,1-.042.1,0.2,0.2,0,0,1-.12.05L123.9,125.7h-0.13l-0.154-.19h-0.049v0.19h-0.109v-0.506h0.235Zm-0.126.095v0.135h0.124a0.126,0.126,0,0,0,.069-0.017,0.065,0.065,0,0,0,0-.1,0.126,0.126,0,0,0-.069-0.016h-0.124Z" transform="translate(-60.5 -60)"/>
  <circle id="Эллипс_2" data-name="Эллипс 2" class="cls-2" cx="27" cy="34.5" r="20.5"/>
  <circle id="Эллипс_2_копия" data-name="Эллипс 2 копия" class="cls-3" cx="53" cy="34.5" r="20.5"/>
  <path id="Эллипс_2_копия_2" data-name="Эллипс 2 копия 2" class="cls-4" d="M93,94.5a20.456,20.456,0,0,1,7.5-15.849,20.5,20.5,0,0,1,0,31.7A20.458,20.458,0,0,1,93,94.5Z" transform="translate(-60.5 -60)"/>
</svg>
