<svg class="svg" xmlns="http://www.w3.org/2000/svg" width="24" height="24" viewBox="0 0 24 24"><path d="M1429.6,9.992h0.82l0.11,0.018a11.034,11.034,0,0,1,2.38.344,11.862,11.862,0,0,1,7.81,6.251,11.337,11.337,0,0,1,1.23,4.22l0.06,0.787V22.38l-0.02.165c-0.06.536-.08,1.078-0.18,1.607a12.015,12.015,0,0,1-10.39,9.757,11.932,11.932,0,0,1-9.81-3.361,11.726,11.726,0,0,1-3.42-10.583,11.424,11.424,0,0,1,3.22-6.332,11.8,11.8,0,0,1,7.68-3.6Zm-8.42,5.726a10.9,10.9,0,0,0-1.99,5.693h0.16c1.29,0,2.58,0,3.87,0,0.12,0,.15-0.038.16-0.159a13.628,13.628,0,0,1,.37-2.62c0.11-.461.24-0.917,0.36-1.369-0.49-.234-0.99-0.457-1.48-0.713S1421.68,16,1421.18,15.718Zm17.64-.019a16.291,16.291,0,0,1-2.93,1.554l0.01,0.058a15.015,15.015,0,0,1,.74,3.983c0,0.108.05,0.118,0.14,0.118q1.95,0,3.9,0h0.14A10.764,10.764,0,0,0,1438.82,15.7Zm-19.63,6.887a10.833,10.833,0,0,0,2.01,5.7,15.682,15.682,0,0,1,2.9-1.542,15.556,15.556,0,0,1-.74-4.163h-4.17Zm19.63,5.705a10.787,10.787,0,0,0,2-5.706h-4.17a15.152,15.152,0,0,1-.73,4.164A16.021,16.021,0,0,1,1438.82,28.292Zm-9.4-2.675V25.492c0-.928,0-1.856.01-2.785,0-.112-0.04-0.13-0.14-0.13q-2.31,0-4.62,0l-0.13.005a13.77,13.77,0,0,0,.67,3.765A15.772,15.772,0,0,1,1429.42,25.617Zm6.06-3.03-0.09-.006q-2.34,0-4.68,0c-0.11,0-.12.047-0.12,0.13v2.784l0.01,0.125a15.9,15.9,0,0,1,4.22.738A14.2,14.2,0,0,0,1435.48,22.587Zm-0.7-4.94a15.754,15.754,0,0,1-4.18.728l-0.01.112v2.807c0,0.112.05,0.119,0.14,0.119q2.31,0,4.62,0l0.13-.008A14.1,14.1,0,0,0,1434.78,17.647Zm-9.55,0a14.159,14.159,0,0,0-.69,3.757l0.12,0.007c1.55,0,3.1,0,4.64,0a0.107,0.107,0,0,0,.13-0.133c-0.01-.924-0.01-1.848-0.01-2.771V18.375A15.857,15.857,0,0,1,1425.23,17.647Zm0.38,9.818a14.01,14.01,0,0,0,3.81,5.242V26.8A13.581,13.581,0,0,0,1425.61,27.465Zm4.99,5.246a14.118,14.118,0,0,0,3.81-5.246,13.4,13.4,0,0,0-3.81-.654v5.9ZM1429.42,11.4a14.045,14.045,0,0,0-3.77,5.153,14.64,14.64,0,0,0,3.77.65V11.4Zm1.18,5.8a14.594,14.594,0,0,0,3.77-.652,14.1,14.1,0,0,0-3.77-5.151v5.8Zm7.49-2.421a10.76,10.76,0,0,0-5.72-3.345,15.617,15.617,0,0,1,3.1,4.719A14.569,14.569,0,0,0,1438.09,14.783Zm-13.54,1.367a15.433,15.433,0,0,1,3.1-4.714,10.767,10.767,0,0,0-5.72,3.341A13.582,13.582,0,0,0,1424.55,16.149Zm2.97,16.379a15.415,15.415,0,0,1-3.02-4.678,14.626,14.626,0,0,0-2.57,1.358A10.765,10.765,0,0,0,1427.52,32.528Zm8.01-4.672c-0.21.428-.4,0.855-0.62,1.267s-0.45.811-.7,1.2-0.53.772-.81,1.141-0.59.71-.9,1.077a10.9,10.9,0,0,0,5.59-3.333A14.756,14.756,0,0,0,1435.53,27.856Z" transform="translate(-1418.03 -10)"/></svg>
