<svg xmlns="http://www.w3.org/2000/svg" width="31" height="18" viewBox="0 0 31 18">
  <path fill="#8D8FA9" d="M1475.33,610.642h-2.22a1.136,1.136,0,0,1-1.26-1.278c0-.329-0.01-0.657,0-0.985a1.108,1.108,0,0,1,1.1-1.124c1.86,0,3.72,0,5.59,0,1.84,0,3.67,0,5.51,0a1.092,1.092,0,0,1,1.1,1.118c0.01,0.339.01,0.68,0.01,1.02a1.133,1.133,0,0,1-1.22,1.25h-8.61m12.69,0c-0.21,0-.42,0-0.62,0a1.121,1.121,0,0,1-1.15-1.148c0-.374,0-0.75.01-1.124a1.1,1.1,0,0,1,1.1-1.115q0.84-.008,1.68-0.008c0.55,0,1.11,0,1.67.009a1.1,1.1,0,0,1,1.09,1.092q0.015,0.6,0,1.2a1.1,1.1,0,0,1-1.08,1.1c-0.22,0-.45.007-0.67,0.007-0.34,0-.68,0-1.03,0l-1,0m-21.05,0c-0.21,0-.41,0-0.62,0a1.119,1.119,0,0,1-1.15-1.177v-1.09a1.11,1.11,0,0,1,1.1-1.12q0.84-.008,1.68-0.008t1.68,0.008a1.1,1.1,0,0,1,1.09,1.123c0.01,0.374.01,0.75,0,1.124a1.106,1.106,0,0,1-1.11,1.139c-0.22,0-.43,0-0.64,0l-1.02,0-1.01,0m9.4-4.508c-0.05,0-.09,0-0.13,0a1.106,1.106,0,0,1-1.06-1.086c-0.02-.4-0.01-0.8,0-1.2a1.1,1.1,0,0,1,1.11-1.106c0.17,0,.34,0,0.5,0,0.19,0,.38,0,0.57,0a1.12,1.12,0,0,1,1.15,1.176v0.527c0.1,1.184-.34,1.7-1.36,1.7-0.1,0-.19,0-0.29-0.013-0.06,0-.13-0.006-0.19-0.006l-0.15,0-0.15,0m-9.64,0c-0.14,0-.29,0-0.43,0a1.116,1.116,0,0,1-1.1-1.119c-0.01-.375,0-0.75,0-1.125a1.113,1.113,0,0,1,1.11-1.143c0.37,0,.73-0.007,1.1-0.007s0.74,0,1.12.007a1.1,1.1,0,0,1,1.11,1.136c0.01,0.363.01,0.727,0,1.09a1.114,1.114,0,0,1-1.16,1.162c-0.13,0-.27,0-0.4,0h-1.02l-0.33,0m5.2,0c-0.05,0-.09,0-0.14,0a1.107,1.107,0,0,1-1.04-1.065c-0.02-.421-0.02-0.844,0-1.264a1.093,1.093,0,0,1,1.05-1.055c0.18-.007.35-0.01,0.53-0.01,0.2,0,.41,0,0.61.007a1.125,1.125,0,0,1,1.14,1.154v0.562c0.09,1.146-.32,1.689-1.38,1.689-0.09,0-.18,0-0.29-0.013-0.06,0-.12-0.006-0.18-0.006l-0.15,0-0.15,0m9.35,0.023c-1.28,0-1.7-.429-1.7-1.722,0-1.264.4-1.715,1.68-1.715h0.02c1.23,0,1.77.392,1.66,1.739,0.1,1.251-.39,1.7-1.66,1.7m4.43,0h0c-1.27,0-1.7-.426-1.7-1.723,0.01-1.258.4-1.714,1.68-1.714h0.03c1.21,0,1.76.388,1.65,1.74,0.1,1.245-.39,1.7-1.66,1.7m-10.29-4.516c-1.03,0-1.45-.532-1.36-1.7,0.02-.151,0-0.305.01-0.457a1.124,1.124,0,0,1,1.21-1.252c0.2,0,.39,0,0.59,0q0.225,0,.45.006a1.111,1.111,0,0,1,1.08,1.1q0.015,0.563,0,1.125a1.116,1.116,0,0,1-1.16,1.164h-0.52c-0.1.009-.2,0.014-0.3,0.014m-8.86,0c-1.03,0-1.45-.532-1.36-1.7,0.01-.175,0-0.352,0-0.527a1.124,1.124,0,0,1,1.15-1.182c0.19,0,.39-0.006.59-0.006,0.17,0,.34,0,0.51.008a1.1,1.1,0,0,1,1.08,1.1c0.02,0.374.01,0.749,0.01,1.124a1.122,1.122,0,0,1-1.16,1.165h-0.52c-0.11.009-.21,0.014-0.3,0.014m17.57-.014h-0.07a1.118,1.118,0,0,1-1.13-1.128c-0.01-.386-0.01-0.773,0-1.159a1.111,1.111,0,0,1,1.08-1.1c0.17-.006.35-0.008,0.52-0.008,0.19,0,.39,0,0.59.006a1.115,1.115,0,0,1,1.14,1.18c0.01,0.176,0,.351,0,0.527,0.1,1.172-.33,1.7-1.36,1.7-0.09,0-.19,0-0.29-0.012-0.06,0-.12-0.007-0.18-0.007l-0.15,0-0.15,0m5.96,4.509c-0.16,0-.31,0-0.47,0a1.122,1.122,0,0,1-1.15-1.181c0-.8-0.01-1.6,0-2.394a1.156,1.156,0,0,0-.57-1.091,1.123,1.123,0,0,1-.54-1.034c0.01-.364-0.01-0.728,0-1.092a1.107,1.107,0,0,1,1.09-1.1q0.555-.01,1.11-0.01,0.57,0,1.14.009a1.1,1.1,0,0,1,1.1,1.15c0.01,0.939,0,1.878,0,2.816,0,0.9.01,1.808,0,2.711a1.118,1.118,0,0,1-1.18,1.218l-0.53,0m-10.24-4.5c-1.03,0-1.44-.548-1.36-1.671,0.02-.221,0-0.446.01-0.668a1.105,1.105,0,0,1,1.05-1.06q0.315-.014.63-0.013c0.2,0,.41,0,0.61.014a1.1,1.1,0,0,1,1.04,1.073q0.015,0.579,0,1.159a1.114,1.114,0,0,1-1.14,1.153l-0.2,0-0.35,0c-0.1.009-.2,0.013-0.29,0.013m-8.54.011h0c-1.27,0-1.7-.427-1.7-1.724,0-1.258.4-1.714,1.68-1.714h0.02c1.22,0.006,1.77.389,1.66,1.74,0.1,1.246-.39,1.7-1.66,1.7M1478.5,596h-13.1a2.243,2.243,0,0,0-2.4,2.433V611.56a2.244,2.244,0,0,0,2.42,2.449h26.21a2.24,2.24,0,0,0,2.38-2.414V598.428a2.243,2.243,0,0,0-2.4-2.433H1478.5" transform="translate(-1463 -596)"/>
</svg>
