<svg xmlns="http://www.w3.org/2000/svg" width="24" height="24" viewBox="0 0 24 24">
  <defs>
    <style>
      .cls-1 {
        fill: #db3535;
        fill-rule: evenodd;
      }
    </style>
  </defs>
  <path id="ico-treasure-6" class="cls-1" d="M11.988,24l-10-6V6l10-6,10,6V18Zm5.52-16.632h-3.4l-2.125-2.76L9.863,7.368h-3.4L7.229,10.8l-2.1,2.76L8.176,15.1l0.762,3.432,3.049-1.536,3.049,1.536L15.8,15.1l3.072-1.536L16.746,10.8ZM14.228,13.8l-0.439,2.016-1.8-.888-1.8.888L9.747,13.8l-1.8-.912,1.247-1.632L8.731,9.24H10.74l1.247-1.632L13.235,9.24h2.009l-0.462,2.016,1.247,1.632Z"/>
</svg>
