<svg xmlns="http://www.w3.org/2000/svg" xmlns:xlink="http://www.w3.org/1999/xlink" width="24" height="24" viewBox="0 0 24 24">
  <defs>
    <style>
      .cls-1 {
        fill: #fff466;
        fill-rule: evenodd;
      }
    </style>
    <clipPath id="clip-path">
      <rect width="24" height="24"/>
    </clipPath>
  </defs>
  <g clip-path="url(#clip-path)">
    <path id="ico-treasure-2" class="cls-1" d="M16.594,21.616c-0.577-2.595.311-5.887,1.265-9.346a31.556,31.556,0,0,0,1.532-8.145l2.6,1.634V18.252ZM15,22.625l-2.22,1.394a1.027,1.027,0,0,0-.111-0.168c-2.22-2.715-1.043-7.016.2-11.557C14,8.161,15.151,3.932,13.73.568L17.5,2.947c0.377,2.475-.466,5.574-1.354,8.77C15.107,15.513,14.041,19.405,15,22.625Zm-4.706.817-3.8-2.379c-0.377-2.475.466-5.574,1.354-8.77C8.891,8.5,9.956,4.6,9,1.385l2.22-1.393a1.015,1.015,0,0,0,.111.168c2.22,2.715,1.043,7.016-.2,11.557C10,15.849,8.846,20.078,10.289,23.442ZM4.584,19.886l-2.6-1.634V5.758L7.381,2.37c0.577,2.595-.311,5.886-1.266,9.346A32.9,32.9,0,0,0,4.584,19.886Z"/>
  </g>
</svg>
