<svg xmlns="http://www.w3.org/2000/svg" width="80" height="80" viewBox="0 0 80 80">
  <defs>
    <style>
      .cls-1 {
        fill: #006bb2;
        fill-rule: evenodd;
      }
    </style>
  </defs>
  <path id="Фигура_1" data-name="Фигура 1" class="cls-1" d="M99.628,88.408l-5.076,23.239H88.412l5.077-23.239h6.139Zm25.834,15,3.232-8.728,1.859,8.728h-5.091Zm6.852,8.234h5.678l-4.959-23.239H127.8a2.794,2.794,0,0,0-2.617,1.7l-9.212,21.534h6.449l1.278-3.471h7.878Zm-16.029-7.587c0.028-6.132-8.658-6.474-8.6-9.213,0.018-.833.83-1.72,2.6-1.947a11.8,11.8,0,0,1,6.054,1.04l1.079-4.929a16.867,16.867,0,0,0-5.745-1.028c-6.07,0-10.339,3.158-10.374,7.682-0.04,3.346,3.05,5.21,5.373,6.325,2.394,1.138,3.2,1.87,3.185,2.885-0.018,1.561-1.911,2.251-3.672,2.278a13.051,13.051,0,0,1-6.306-1.471l-1.115,5.1a19.067,19.067,0,0,0,6.826,1.234c6.455,0,10.674-3.12,10.692-7.952M90.856,88.408l-9.95,23.239h-6.49L69.52,93.1a2.555,2.555,0,0,0-1.459-2.041A26.107,26.107,0,0,0,62,89.083l0.146-.674H72.6a2.847,2.847,0,0,1,2.833,2.367l2.588,13.45L84.4,88.408h6.451" transform="translate(-60 -59.984)"/>
</svg>