<?xml version="1.0" encoding="utf-8"?>
<!-- Generator: Adobe Illustrator 18.0.0, SVG Export Plug-In . SVG Version: 6.00 Build 0)  -->
<!DOCTYPE svg PUBLIC "-//W3C//DTD SVG 1.1//EN" "http://www.w3.org/Graphics/SVG/1.1/DTD/svg11.dtd">
<svg version="1.1" id="Layer_1" xmlns="http://www.w3.org/2000/svg" xmlns:xlink="http://www.w3.org/1999/xlink" x="0px" y="0px"
	 viewBox="0 0 100 100" enable-background="new 0 0 100 100" xml:space="preserve">
<g>
	<polygon fill="#BC2726" points="64.1,38.5 55.4,38.5 50,31.7 44.6,38.5 35.9,38.5 37.9,46.9 32.5,53.7 40.3,57.5 42.2,65.9 
		50,62.2 57.8,65.9 59.7,57.5 67.5,53.7 62.1,46.9 	"/>
	<path fill="#BC2726" d="M50,0L6.7,25v50L50,100l43.3-25V25L50,0z M66.5,62.9l-3.3,14.3L50,70.8l-13.2,6.4l-3.3-14.3l-13.2-6.4
		L29.4,45l-3.3-14.3h14.7L50,19.2l9.2,11.5h14.7L70.6,45l9.2,11.5L66.5,62.9z"/>
</g>
</svg>
