<?xml version="1.0" encoding="utf-8"?>
<!-- Generator: Adobe Illustrator 18.0.0, SVG Export Plug-In . SVG Version: 6.00 Build 0)  -->
<!DOCTYPE svg PUBLIC "-//W3C//DTD SVG 1.1//EN" "http://www.w3.org/Graphics/SVG/1.1/DTD/svg11.dtd">
<svg version="1.1" id="Layer_1" xmlns="http://www.w3.org/2000/svg" xmlns:xlink="http://www.w3.org/1999/xlink" x="0px" y="0px"
	 viewBox="0 0 100 100" enable-background="new 0 0 100 100" xml:space="preserve">
<g>
	<path fill="#673F6D" d="M59.1,64.7l2.8-2.8c3.2-3.2,4.9-7.4,4.9-11.9c0-9.3-7.6-16.8-16.8-16.8S33.2,40.7,33.2,50
		c0,4.5,1.8,8.7,4.9,11.9l2.8,2.8L21.8,83.7L50,100l28.2-16.3L59.1,64.7z"/>
	<path fill="#673F6D" d="M50,0L6.7,25v50l8.7,5l-0.5-0.5L30,64.4c-3-4.2-4.7-9.2-4.7-14.4c0-13.6,11.1-24.6,24.6-24.6
		c13.6,0,24.6,11.1,24.6,24.6c0,5.3-1.6,10.3-4.7,14.4l15.1,15.1L84.6,80l8.7-5V25L50,0z"/>
</g>
</svg>
