<?xml version="1.0" encoding="utf-8"?>
<!-- Generator: Adobe Illustrator 18.0.0, SVG Export Plug-In . SVG Version: 6.00 Build 0)  -->
<!DOCTYPE svg PUBLIC "-//W3C//DTD SVG 1.1//EN" "http://www.w3.org/Graphics/SVG/1.1/DTD/svg11.dtd">
<svg version="1.1" id="Layer_1" xmlns="http://www.w3.org/2000/svg" xmlns:xlink="http://www.w3.org/1999/xlink" x="0px" y="0px"
	 viewBox="0 0 100 100" enable-background="new 0 0 100 100" xml:space="preserve">
<g>
	<path fill="#AFAD5C" d="M53.9,51.2C48.3,70.1,43,88,53,99.3c0.2,0.2,0.3,0.4,0.5,0.7l10-5.8c-4.3-13.4,0.5-29.6,5.2-45.4
		c4-13.3,7.8-26.2,6.1-36.5L57.8,2.4C64.2,16.4,59,34,53.9,51.2z"/>
	<path fill="#AFAD5C" d="M46.1,48.8C51.7,29.9,57,12,47,0.7c-0.2-0.2-0.3-0.4-0.5-0.7l-10,5.8c4.3,13.4-0.5,29.6-5.2,45.4
		c-4,13.3-7.8,26.2-6.1,36.5l17.1,9.9C35.8,83.6,41,66,46.1,48.8z"/>
	<path fill="#AFAD5C" d="M83.3,17.2c0,10.7-3.4,22.4-6.9,33.9c-4.3,14.4-8.3,28.1-5.7,38.9l24.3-14V24L83.3,17.2z"/>
	<path fill="#AFAD5C" d="M23.5,48.8c4.3-14.4,8.3-28.1,5.7-38.9L4.9,24v52l11.7,6.8C16.6,72.1,20.1,60.4,23.5,48.8z"/>
</g>
</svg>
