<svg xmlns="http://www.w3.org/2000/svg" width="30" height="20" viewBox="0 0 30 20">
  <defs>
    <style>
      .cls-1 {
        fill: #fff;
        fill-rule: evenodd;
      }
    </style>
  </defs>
  <path id="Фигура_5" data-name="Фигура 5" class="cls-1" d="M944.994,506.372c0.523-.55,1.024-1.1,1.553-1.632a27.277,27.277,0,0,1,5.115-4.055,17.715,17.715,0,0,1,6-2.389,13.212,13.212,0,0,1,6.414.428,18.493,18.493,0,0,1,3.877,1.733,28.053,28.053,0,0,1,6.908,5.779c0.044,0.049.083,0.1,0.137,0.167-0.288.319-.567,0.641-0.86,0.95a28.266,28.266,0,0,1-5.528,4.58,18.368,18.368,0,0,1-5.748,2.449,13.254,13.254,0,0,1-7.129-.385,20.383,20.383,0,0,1-5.4-2.769,28.823,28.823,0,0,1-5.185-4.672C945.105,506.506,945.064,506.455,944.994,506.372Zm12.455,0.385a9.771,9.771,0,0,0,.426,2.549,11.176,11.176,0,0,1,4.259,0,9.775,9.775,0,0,0,.419-2.548h-5.1Zm4.685-3.28a11.192,11.192,0,0,1-4.262,0,9.682,9.682,0,0,0-.419,2.543h5.1A9.745,9.745,0,0,0,962.134,503.477Zm3.374,7.083a6.786,6.786,0,0,0,1.423-3.8h-3.644a10.763,10.763,0,0,1-.437,2.7A11.229,11.229,0,0,1,965.508,510.56Zm1.424-4.537a6.814,6.814,0,0,0-1.424-3.8,11.314,11.314,0,0,1-2.659,1.094,10.874,10.874,0,0,1,.442,2.706h3.641Zm-13.858.738a6.8,6.8,0,0,0,1.423,3.8,11.285,11.285,0,0,1,2.66-1.091,10.829,10.829,0,0,1-.442-2.707h-3.641Zm1.421-4.537a6.792,6.792,0,0,0-1.419,3.8c0.048,0,.078.007,0.108,0.007,1.136,0,2.272,0,3.408,0,0.118,0,.125-0.053.135-0.147,0.054-.512.1-1.025,0.183-1.533,0.053-.347.151-0.687,0.231-1.041A11.194,11.194,0,0,1,954.5,502.224Zm3.627,0.561a10.2,10.2,0,0,0,3.776,0,10.143,10.143,0,0,0-1.891-3.1A9.752,9.752,0,0,0,958.122,502.785Zm0,7.214a9.809,9.809,0,0,0,1.883,3.1,9.483,9.483,0,0,0,1.88-3.1A10.238,10.238,0,0,0,958.117,510Zm0.957-10.405a6.971,6.971,0,0,0-4.086,2.059,9.1,9.1,0,0,0,2.365.956c0.257-.522.488-1.051,0.773-1.551S958.754,500.083,959.074,499.594Zm0,13.595c-0.319-.487-0.658-0.955-0.943-1.453s-0.52-1.037-.783-1.569a10.18,10.18,0,0,0-2.369.954A6.985,6.985,0,0,0,959.074,513.189Zm1.813,0.007a7.007,7.007,0,0,0,4.139-2.075,10.188,10.188,0,0,0-2.4-.962A11.087,11.087,0,0,1,960.887,513.2Zm0-13.609a11.035,11.035,0,0,1,1.733,3.028,8.838,8.838,0,0,0,2.394-.967A7.017,7.017,0,0,0,960.885,499.587Z" transform="translate(-945 -496.407)"/>
</svg>
