<svg xmlns="http://www.w3.org/2000/svg" width="20" height="19.907" viewBox="0 0 20 19.907">
  <defs>
    <style>
      .cls-1 {
        fill: #fff;
        fill-rule: evenodd;
      }
    </style>
  </defs>
  <path id="Фигура_4" data-name="Фигура 4" class="cls-1" d="M1430.25,502.359a0.493,0.493,0,0,0-.23-0.339c-0.61-.4-1.24-0.768-1.86-1.164a0.261,0.261,0,0,0-.42.066,2.99,2.99,0,0,1-2.61,1.171h-5.85a2.937,2.937,0,0,1-2.58-1.171,0.262,0.262,0,0,0-.42-0.066c-0.61.4-1.23,0.766-1.84,1.164a0.513,0.513,0,0,0-.22.339,67.821,67.821,0,0,0,.58,10.473c0.87,4.568,7.38,7.864,7.38,7.864s6.6-3.3,7.48-7.864A66.6,66.6,0,0,0,1430.25,502.359Z" transform="translate(-1412.235 -500.781)"/>
</svg>
