<svg xmlns="http://www.w3.org/2000/svg" width="20" height="19.594" viewBox="0 0 20 19.594">
  <defs>
    <style>
      .cls-1 {
        fill: #fff;
        fill-rule: evenodd;
      }
    </style>
  </defs>
  <path id="Фигура_4" data-name="Фигура 4" class="cls-1" d="M771.248,515.229c1.2-.447,2.3-0.875,3.424-1.26a1.316,1.316,0,0,1,.663.111c0.328,0.092.649,0.208,1.051,0.339a2.494,2.494,0,0,0-.13-0.484,2.3,2.3,0,0,1,.054-2.224c0.347-.733.6-1.51,0.908-2.313a3.114,3.114,0,0,1,.292.218c1.045,1.022,2.1,2.039,3.12,3.08a0.738,0.738,0,0,1,.163.585c-0.16.746-.365,1.484-0.57,2.221-0.139.5-.015,0.664,0.49,0.786,1.559,0.376,3.112.776,4.661,1.186a1.2,1.2,0,0,1,.474.333c1.517,1.48,3.042,2.951,4.525,4.463a2.874,2.874,0,0,1,.635,1.175,4.1,4.1,0,0,1-.393,3.569,4.52,4.52,0,0,1-5.794,1.485,1.6,1.6,0,0,1-.341-0.28c-1.548-1.517-3.1-3.033-4.636-4.561a1.454,1.454,0,0,1-.373-0.611c-0.4-1.491-.789-2.988-1.168-4.485-0.107-.423-0.3-0.531-0.769-0.407-0.768.2-1.536,0.4-2.309,0.577a0.615,0.615,0,0,1-.484-0.09C773.592,517.541,772.461,516.421,771.248,515.229Z" transform="translate(-771.25 -509.406)"/>
</svg>
