<svg xmlns="http://www.w3.org/2000/svg" width="19.188" height="19.188" viewBox="0 0 19.188 19.188">
  <defs>
    <style>
      .cls-1 {
        fill: #fff;
        fill-rule: evenodd;
      }
    </style>
  </defs>
  <path id="Фигура_2" data-name="Фигура 2" class="cls-1" d="M954.812,494.055l-3.838,3.839L948.2,495.12l3.838-3.838,4.778-2Zm-0.349,6.168,1.315,1.315-2.314,2.314,3.34,3.34-1.273,1.273-3.34-3.34-2.314,2.314-1.315-1.315,1.564-1.564-10.493-10.493-2-4.777,4.778,2L952.9,501.787Zm-15.8,1.3,1.315-1.315,1.563,1.564,1.914-1.914,2.774,2.774-1.914,1.913,1.564,1.564-1.315,1.315-2.314-2.314-3.34,3.339-1.273-1.272,3.34-3.34Z" transform="translate(-937.625 -489.281)"/>
</svg>
