<svg xmlns="http://www.w3.org/2000/svg" width="40" height="40" viewBox="0 0 40 40">
  <defs>
    <style>
      .cls-1 {
        fill: #fff;
        fill-rule: evenodd;
      }
    </style>
  </defs>
  <path id="Фигура_5" data-name="Фигура 5" class="cls-1" d="M1226.28,769.838a4.037,4.037,0,0,1-6.43,4.635A18.529,18.529,0,1,1,1226.28,769.838Zm-13.78-28.5a16.168,16.168,0,1,0,0,32.335,16.033,16.033,0,0,0,6.18-1.229,4.441,4.441,0,0,1-.1-0.9,4.037,4.037,0,0,1,6.13-3.446A16.153,16.153,0,0,0,1212.5,741.334Zm0,27.789a11.607,11.607,0,0,1-7.68-2.893,3.7,3.7,0,0,1-1.56.34,3.731,3.731,0,0,1-2.17-6.772,11.614,11.614,0,0,1,7.88-13.373,3.584,3.584,0,0,1,7.06,0A11.622,11.622,0,0,1,1212.5,769.123Zm3.14-20.369a3.581,3.581,0,0,1-6.29,0,9.309,9.309,0,0,0-6.16,8.747,9.418,9.418,0,0,0,.14,1.6,3.733,3.733,0,0,1,3.21,5.528A9.3,9.3,0,1,0,1215.64,748.754Zm1.25,9.443,0.57,0.916-1,.407,0.26,1.047-1.08.078-0.08,1.076-1.04-.258-0.41,1-0.92-.568-0.69.823-0.7-.823-0.92.568-0.41-1-1.04.257-0.08-1.075-1.08-.079,0.26-1.047-1-.407,0.57-.916-0.82-.7,0.82-.7-0.57-.916,1-.407-0.26-1.047,1.08-.078,0.08-1.075,1.05,0.257,0.4-1,0.92,0.568,0.7-.823,0.69,0.824,0.92-.569,0.41,1,1.04-.258,0.08,1.075,1.08,0.079-0.26,1.047,1,0.407-0.57.916,0.83,0.7Z" transform="translate(-1192.5 -737.5)"/>
</svg>
