<svg class="svg" xmlns="http://www.w3.org/2000/svg" width="20" height="20" viewBox="0 0 20 20"><path fill="#ffffff" d="M206.55,31.548a9.992,9.992,0,0,1-7.48-.056,1.627,1.627,0,0,0-1.188-.009q-1.845.672-3.693,1.335c-0.063.023-.127,0.041-0.228,0.074,0.113-.446.217-0.86,0.322-1.275,0.212-.834.412-1.672,0.641-2.5a1.235,1.235,0,0,0-.2-1.091,8.873,8.873,0,0,1,.447-10.7,9.647,9.647,0,0,1,6.889-3.579l0.181-.038h1.315c0.508,0.077,1.022.13,1.524,0.236a9.47,9.47,0,0,1,7.446,7.486c0.052,0.3.093,0.6,0.139,0.907v1.246c-0.077.461-.122,0.93-0.237,1.382A9.185,9.185,0,0,1,206.55,31.548Zm-8.178-9.716a1.476,1.476,0,1,0,1.522,1.46A1.485,1.485,0,0,0,198.372,21.832Zm4.527,0a1.476,1.476,0,1,0,1.5,1.479A1.485,1.485,0,0,0,202.9,21.832Zm4.508,0a1.476,1.476,0,1,0,1.5,1.457A1.487,1.487,0,0,0,207.407,21.832Z" transform="translate(-193.156 -13.719)"/></svg>
