<svg xmlns="http://www.w3.org/2000/svg" width="80" height="80" viewBox="0 0 80 80">
  <defs>
    <style>
      .cls-1 {
        fill: #ff9e16;
        fill-rule: evenodd;
      }
    </style>
  </defs>
  <path id="ico-buy-qiwi" class="cls-1" d="M117.355,112.327c-0.7-.261-0.765.566-0.589,1.105a4.757,4.757,0,0,0,1.309,2.42c0.371,0.226.812-.294,0.531-1.556A2.929,2.929,0,0,0,117.355,112.327Zm-5.545,2.337c-0.011-.008-0.019-0.008-0.03-0.016a0.152,0.152,0,0,1-.053-0.014c-0.024-.008-0.044-0.019-0.066-0.025a0.081,0.081,0,0,1-.038,0l-0.107-.033a1.728,1.728,0,0,0-1.249.225,2.054,2.054,0,0,0-.276,2.852,2.586,2.586,0,0,0,1.2.954,0.06,0.06,0,0,1,.036.011,0.31,0.31,0,0,0,.047.014,0.272,0.272,0,0,0,.064.016,0.083,0.083,0,0,1,.04.014,0.772,0.772,0,0,0,.1.025,1.637,1.637,0,0,0,1.251-.223,2.038,2.038,0,0,0,.281-2.843A2.442,2.442,0,0,0,111.81,114.664Zm23.284,19.978c-2.023-4.114-5.611-7.133-9.5-9.449a21.157,21.157,0,0,0-4.2-1.8c-3.051-.987-6-1.215-9.446-1.8a18.161,18.161,0,0,1-7.38-3.236,12.292,12.292,0,0,1-3.089-3.228,4.267,4.267,0,0,1-.867-1.537,9.974,9.974,0,0,0,.539,5.287c-10.012-.448-18.789-6-22.809-12.723-7.4-12.377-4.793-27.378,5.074-34s24.905-1.952,32.957,10.009c5.054,7.507,6.347,16.241,4.182,23.344-0.017.055-.036,0.107-0.053,0.162a8.888,8.888,0,0,0-8.186-1.523c4.288-.443,7.678,2.967,7.678,2.967a12.084,12.084,0,0,1,1.411,1.477c0.1,0.132.2,0.266,0.294,0.409a11.667,11.667,0,0,1,2.121,4.936c8.513-10.793,9.92-25.741,2.386-37.351C116.618,61.779,96.158,58,80.53,68.126S60,98.456,69.6,113.251c7.885,12.173,26.383,15.886,36.986,12.531A27.417,27.417,0,0,1,133.88,134.6a8.542,8.542,0,0,1,1.274,2.019,0.334,0.334,0,0,0,.487.195C135.734,136.767,136,136.462,135.094,134.642Z" transform="translate(-60.219 -59.656)"/>
</svg>
