<svg xmlns="http://www.w3.org/2000/svg" width="24" height="24" viewBox="0 0 24 24">
  <defs>
    <style>
      .cls-1 {
        fill: #6ec941;
      }

      .cls-1, .cls-2 {
        fill-rule: evenodd;
      }
    </style>
  </defs>
  <path id="Фигура_27_copy" data-name="Фигура 27 copy" class="cls-1" d="M604.992,60a12,12,0,1,1-12-12A12,12,0,0,1,604.992,60Z" transform="translate(-581 -48)"/>
  <path id="Фигура_27_copy_4" data-name="Фигура 27 copy 4" class="cls-2" d="M594.855,63.108a1.609,1.609,0,0,0-.43-1.16,3.979,3.979,0,0,0-1.474-.835,9.252,9.252,0,0,1-3.045-1.585,3.114,3.114,0,0,1-.993-2.466,3.191,3.191,0,0,1,.993-2.419,4.381,4.381,0,0,1,2.675-1.113V51.641h1.47v1.907a3.774,3.774,0,0,1,3.465,4.051l-0.028.044h-2.633a2.515,2.515,0,0,0-.448-1.6,1.484,1.484,0,0,0-1.225-.562,1.506,1.506,0,0,0-1.183.436,1.666,1.666,0,0,0-.388,1.154,1.538,1.538,0,0,0,.411,1.113,4.24,4.24,0,0,0,1.511.838,9.841,9.841,0,0,1,3.027,1.634,3.079,3.079,0,0,1,.984,2.434,3.167,3.167,0,0,1-.989,2.443,4.482,4.482,0,0,1-2.689,1.081v1.74H592.4V66.623a4.892,4.892,0,0,1-2.855-1.163,3.608,3.608,0,0,1-1.09-2.932l0.018-.044H591.1a2.17,2.17,0,0,0,.568,1.687,2.084,2.084,0,0,0,1.446.51,1.8,1.8,0,0,0,1.29-.425A1.514,1.514,0,0,0,594.855,63.108Z" transform="translate(-581 -48)"/>
</svg>
