<svg xmlns="http://www.w3.org/2000/svg" width="70" height="70" viewBox="0 0 70 70">
  <defs>
    <style>
      .cls-1 {
        fill: #db3535;
        fill-rule: evenodd;
      }
    </style>
  </defs>
  <path id="Фигура_2" data-name="Фигура 2" class="cls-1" d="M43.782,27.41H38.055L34.5,22.922,30.946,27.41H25.22l1.316,5.544-3.555,4.488,5.134,2.508,1.251,5.544L34.5,43.052l5.134,2.442,1.251-5.544,5.134-2.508-3.554-4.488ZM34.5,2L6,18.5v33L34.5,68,63,51.5v-33ZM45.362,43.514L43.19,52.952,34.5,48.728l-8.689,4.224L23.64,43.514,14.951,39.29l5.99-7.59-2.172-9.438h9.676l6.056-7.59,6.056,7.59h9.676L48.061,31.7l6.056,7.59Z" transform="translate(0.5)"/>
</svg>
