<svg id="main" xmlns="http://www.w3.org/2000/svg" xmlns:xlink="http://www.w3.org/1999/xlink" width="8" height="8" viewBox="0 0 8 8"><defs><style>.cls-1{fill:url(#linear-gradient);}.cls-2{fill:url(#linear-gradient-2);}.cls-3{fill:url(#linear-gradient-3);}</style><linearGradient id="linear-gradient" y1="4" x2="8" y2="4" gradientUnits="userSpaceOnUse"><stop offset="0" stop-color="#e74138"/><stop offset="1" stop-color="#e74138"/></linearGradient><linearGradient id="linear-gradient-2" y1="6.2" x2="3.59" y2="6.2" xlink:href="#linear-gradient"/><linearGradient id="linear-gradient-3" x1="4.41" y1="1.8" x2="8" y2="1.8" xlink:href="#linear-gradient"/></defs><title>q</title><polygon class="cls-1" points="7.57 5.11 7.02 4.56 6.37 5.22 1.99 0.84 0 0.01 0.83 2 5.21 6.37 4.56 7.02 5.11 7.57 6.07 6.61 7.46 8 8 7.47 6.6 6.08 7.57 5.11"/><polygon class="cls-2" points="2.43 4.41 1.63 5.21 0.98 4.56 0.43 5.11 1.4 6.07 0.01 7.46 0.54 8 1.93 6.6 2.89 7.57 3.44 7.02 2.79 6.37 3.59 5.57 2.43 4.41"/><polygon class="cls-3" points="7.17 1.99 8 0 6.01 0.83 4.41 2.44 5.56 3.59 7.17 1.99"/></svg>