<svg id="bild" xmlns="http://www.w3.org/2000/svg" width="14" height="14" viewBox="0 0 14 14"><defs><style>.cls-1{fill:#fcfcfc;}</style></defs><title>ico-cart_white</title><g id="YuFEqX.tif"><path class="cls-1" d="M0.65,1.56A0.75,0.75,0,0,1,1,1,0.72,0.72,0,0,1,1.27.9a2.65,2.65,0,0,1,2.14.73A2.63,2.63,0,0,1,4.07,3Q4.55,5.44,5,7.84a1,1,0,0,0,1,.84l0.51,0H9.84a0.26,0.26,0,0,0,.25-0.13c0.31-.51.65-1,0.94-1.53s0.62-1.2.93-1.81a0.73,0.73,0,0,1,.88-0.41,0.71,0.71,0,0,1,.49.89,5.66,5.66,0,0,1-.3.65,25.18,25.18,0,0,1-1.57,2.8,2.94,2.94,0,0,1-.72.8,1,1,0,0,1-.6.19H6.29a2.82,2.82,0,0,1-1.8-.58A2.54,2.54,0,0,1,3.58,8Q3.11,5.64,2.63,3.26A2.3,2.3,0,0,0,2.57,3a0.94,0.94,0,0,0-1-.68,1.78,1.78,0,0,1-.38,0A0.68,0.68,0,0,1,.67,1.74a0.31,0.31,0,0,0,0-.06V1.56Z"/><path class="cls-1" d="M10,13.11a3.62,3.62,0,0,1-.44-0.16A1.21,1.21,0,0,1,9,11.62,1.22,1.22,0,1,1,11,12.74a1.25,1.25,0,0,1-.64.34l-0.08,0H10Z"/><path class="cls-1" d="M5.64,13.11a2.91,2.91,0,0,1-.46-0.17,1.17,1.17,0,0,1-.61-1.2A1.22,1.22,0,1,1,6,13.08l-0.07,0H5.64Z"/><path class="cls-1" d="M7,3.83c0-.47.05-0.91,0.08-1.36,0-.23,0-0.45.05-0.68a0.27,0.27,0,0,1,.16-0.25,1.64,1.64,0,0,1,1.31,0,0.24,0.24,0,0,1,.16.21c0,0.49.08,1,.12,1.47,0,0.17,0,.34,0,0.51a0.09,0.09,0,0,0,.11.1H10a0.29,0.29,0,0,1,.26.49,17.65,17.65,0,0,1-2,2.31,0.27,0.27,0,0,1-.42,0,17.13,17.13,0,0,1-2-2.32,0.27,0.27,0,0,1,0-.42A0.45,0.45,0,0,1,6,3.83H7Z"/></g></svg>