<svg id="attack" xmlns="http://www.w3.org/2000/svg" width="14" height="13" viewBox="0 0 14 13"><defs><style>.cls-1{fill:#919191;}</style></defs><title>ico-destination</title><path class="cls-1" d="M5.39,1.5a1.89,1.89,0,0,1,1.19.77L7,2.83a3.17,3.17,0,0,0,1.23,1A3,3,0,0,0,9.38,4a4.89,4.89,0,0,0,.9-0.09,9.12,9.12,0,0,0,1.66-.5,0.49,0.49,0,0,1,.17,0,0.23,0.23,0,0,1,.18.08V3.56c-0.22.31-.43,0.62-0.66,0.92-0.48.61-1,1.21-1.47,1.8A3.45,3.45,0,0,1,9,7.15a1.21,1.21,0,0,1-.52.13,1.08,1.08,0,0,1-.61-0.19C7.69,6.94,7.48,6.77,7.27,6.61a1.7,1.7,0,0,0-1-.38,2,2,0,0,0-.79.18,5.69,5.69,0,0,0-1.37.89,0.19,0.19,0,0,0,0,.16q0.43,1.72.87,3.43L5,11.5H3.86L3.51,10.11,1.75,3.19a0.81,0.81,0,0,0,0-.11V3l0.85-.32A2.33,2.33,0,0,0,3,2.49a5.27,5.27,0,0,1,2.11-1H5.39M5.48,0.2H5l-0.1,0a6.51,6.51,0,0,0-2.63,1.2l-0.19.1-0.56.21-0.26.09-0.85.31V3.35L0.5,3.58v0L1.57,7.75l0.68,2.68L2.6,11.82l0.25,1H6.72L6.31,11.18,6.26,11l-0.1-.4L6,10,5.47,7.87A3.27,3.27,0,0,1,5.95,7.6a0.73,0.73,0,0,1,.27-0.07,0.4,0.4,0,0,1,.26.11C6.73,7.84,7,8,7.2,8.17a2.36,2.36,0,0,0,1.32.41,2.51,2.51,0,0,0,1.08-.26,4.75,4.75,0,0,0,1.53-1.19c0.53-.61,1-1.24,1.51-1.84,0.18-.22.34-0.46,0.51-0.69l0.19-.28L13.59,4V2.93l-0.34-.37a1.52,1.52,0,0,0-1.13-.5,1.75,1.75,0,0,0-.65.13A7.81,7.81,0,0,1,10,2.62a3.6,3.6,0,0,1-.66.07,1.72,1.72,0,0,1-.64-0.11A1.92,1.92,0,0,1,8,2L7.73,1.64,7.57,1.45a3.18,3.18,0,0,0-2-1.23H5.48Z"/></svg>