<svg xmlns="http://www.w3.org/2000/svg" width="24" height="14" viewBox="0 0 24 14"><path fill="#e74138" d="M1.632,9.449v-4.9A7.467,7.467,0,0,1,2.494,4.14V9.86A7.442,7.442,0,0,1,1.632,9.449Zm8.695,2.092L7.862,14H0.225l3.7-3.7C3.7,10.252,3.5,10.056,3.31,10V3.941C3.5,3.889,3.7,3.764,3.93,3.712L0.225,0H7.862l2.464,2.469C17.614,1.2,24,7.014,24,7.014S17.614,12.809,10.326,11.541Zm4.146-6.814A2.273,2.273,0,1,0,16.741,7,2.271,2.271,0,0,0,14.472,4.727ZM0.862,9.11A7.442,7.442,0,0,1,0,8.7V5.3A7.467,7.467,0,0,1,.862,4.89V9.11Z"/></svg>
