<svg id="main" xmlns="http://www.w3.org/2000/svg" width="13.99" height="14" viewBox="0 0 13.99 14"><defs><style>.cls-1{fill:#fff;}</style></defs><title>Fear_Universe_new (1)</title><g id="QOXdgi.tif"><path class="cls-1" d="M14,5.47c-0.07.18-.15,0.46-0.27,0.72a1.85,1.85,0,0,0,0,1.63C13.8,8,13.85,8.14,13.92,8.3a0.83,0.83,0,0,1-.26,1,3.62,3.62,0,0,1-.38.3,2,2,0,0,0-.89,1.54c-0.11,1-.27,1.14-1.23,1.24a2,2,0,0,0-1.55.88,3.15,3.15,0,0,1-.35.44,0.8,0.8,0,0,1-.92.22,4.31,4.31,0,0,1-.41-0.16,2.1,2.1,0,0,0-1.89,0c-0.86.38-1.06,0.33-1.59-.41a2.24,2.24,0,0,0-1.75-1A1,1,0,0,1,1.63,11.3a2.26,2.26,0,0,0-1-1.78A1,1,0,0,1,.22,8a2.26,2.26,0,0,0,0-2A0.94,0.94,0,0,1,.6,4.5a2.3,2.3,0,0,0,1-1.81A1,1,0,0,1,2.72,1.62a2.22,2.22,0,0,0,1.74-1A1,1,0,0,1,6,.22a2.25,2.25,0,0,0,2,0A1,1,0,0,1,9.55.64a2.24,2.24,0,0,0,1.75,1A1,1,0,0,1,12.38,2.7a2.26,2.26,0,0,0,1,1.8A1,1,0,0,1,14,5.47ZM7,2.89A4.11,4.11,0,1,0,11.11,7,4.12,4.12,0,0,0,7,2.89Z"/><path class="cls-1" d="M4.29,6.37c0.51-.08,1-0.18,1.51-0.22a0.54,0.54,0,0,0,.5-0.38c0.2-.45.44-0.88,0.7-1.41,0.25,0.5.47,0.93,0.67,1.37a0.6,0.6,0,0,0,.55.42c0.49,0,1,.14,1.51.22C9.36,6.77,9,7.14,8.63,7.49a0.55,0.55,0,0,0-.19.56c0.1,0.5.17,1,.27,1.59-0.53-.28-1-0.54-1.45-0.75a0.74,0.74,0,0,0-.54,0c-0.47.21-.92,0.47-1.45,0.75,0.1-.58.17-1.06,0.27-1.55a0.61,0.61,0,0,0-.2-0.63C5,7.13,4.66,6.76,4.29,6.37Z"/></g></svg>