<svg id="topmenu" xmlns="http://www.w3.org/2000/svg" xmlns:xlink="http://www.w3.org/1999/xlink" width="20" height="20" viewBox="0 0 20 20"><defs><style>.cls-1{fill:#888eab;}</style><symbol id="New_Symbol_197" data-name="New Symbol 197" viewBox="0 0 235.63 246.04"><path class="cls-1" d="M46.3,28.83l6.38-5.53C64.53,13,78.42,6.88,93.59,3.44,119.13-2.35,144.26-1,168.56,9c32.54,13.39,52.92,37.92,62.87,71.23C243.14,119.39,230,156,195.83,181a124,124,0,0,1-59.64,23.72C109.8,207.81,86,201.12,66,183.33c-14.33-12.79-19.36-29.47-16.82-48.4a99.07,99.07,0,0,1,2.47-11.43C55.17,109.91,63.45,100.23,75.91,94c13.21-6.63,27-9.59,41.8-7.37,18.42,2.75,32,20.63,32.33,36a8.16,8.16,0,0,0,.32,1.11c2.12-1.53,4.3-2.72,6-4.41,6.31-6.26,7.31-14.15,6.2-22.47-2-15.18-12.13-23.56-25.28-28.94-12.07-4.94-24.74-6.17-37.73-5.15a103.48,103.48,0,0,0-36.89,9.9C44.09,81.53,31.31,95.89,23.93,114.9c-9.05,23.33-9.37,46.77.55,70,4.38,10.25,11.65,18.37,19.73,25.82,16.65,15.38,36.15,24.78,58.7,27.46,23.37,2.78,45.54-1.76,66.68-11.74,5.71-2.7,11.15-6,16.71-9a5.47,5.47,0,0,1,2.54-.86c-0.71.89-1.36,1.84-2.15,2.65A79,79,0,0,1,160,236.95c-18.75,7.86-38.3,10.27-58.45,8.57-18.74-1.58-36.23-7.06-52-17.33C24.13,211.66,8.76,188,2.39,158.73c-8.31-38.2,5.43-68.46,35.46-92,18.3-14.35,39.3-22.64,62.35-25.39s44.43,2.93,63.31,16.39c21.25,15.13,28.34,39.74,20.44,65.52-4.49,14.65-13.78,24.48-27.38,30.57-12.22,5.48-24.92,7.81-38.43,5.87C99.5,157,85.48,138.5,85.63,122.32a48.32,48.32,0,0,0-5.84,4c-5.77,5.41-7.55,12.33-7.06,20,1.06,16.51,11.14,26,25.37,31.84,12.47,5.16,25.57,6.32,39,5.16A101.69,101.69,0,0,0,173,173.5c23.19-11.25,36.74-30.24,42.73-54.81,4.72-19.36,3.66-38.48-4.33-57C206.41,50.28,198.21,41.36,189,33.29,172.66,19,153.77,10.37,132.2,7.94c-23.56-2.66-45.88,2-67.1,12.22-5.47,2.63-10.68,5.78-16,8.69-0.63.34-1.27,0.66-1.9,1Z"/></symbol></defs><title>ico_vortex</title><use width="235.62" height="246.04" transform="translate(19.57 20) rotate(180) scale(0.08 0.08)" xlink:href="#New_Symbol_197"/></svg>