<svg id="massanger" xmlns="http://www.w3.org/2000/svg" width="9" height="30" viewBox="0 0 9 30"><defs><style>.cls-1{fill:#161616;}</style></defs><title>chat_arrow_l</title><path d="M6.2,11.46L4,9.3A13.91,13.91,0,0,1,.5.76V0H0V30H0.5V29.24A13.91,13.91,0,0,1,4,20.7L6.2,18.54A5,5,0,0,0,6.2,11.46Z"/><path class="cls-1" d="M6.55,11.11L4.39,8.95A13.52,13.52,0,0,1,1,.76V0H0V0.76A14.46,14.46,0,0,0,3.68,9.65l2.17,2.17a4.51,4.51,0,0,1,0,6.36L3.68,20.35A14.46,14.46,0,0,0,0,29.24V30H1V29.24a13.52,13.52,0,0,1,3.39-8.18l2.17-2.17A5.51,5.51,0,0,0,6.55,11.11Z"/></svg>