<svg id="bild" xmlns="http://www.w3.org/2000/svg" width="103" height="62" viewBox="0 0 103 62"><defs><style>.cls-1{fill:#919191;}</style></defs><title>r</title><path class="cls-1" d="M33.63,46.91l1.14-4.67,1.09-4.41a0.8,0.8,0,0,0-.47-1c-2.51-1.49-5-3-7.48-4.56-1.28-.78-1.32-1.73,0-2.52q3.66-2.25,7.36-4.43a1,1,0,0,0,.56-1.4c-0.75-2.85-1.44-5.71-2.13-8.58-0.28-1.17.46-1.82,1.71-1.53,1.9,0.45,3.8.93,5.7,1.4,1,0.25,2,.49,3,0.77a0.8,0.8,0,0,0,1-.48Q47.25,12,49.39,8.42c0.17-.28.34-0.57,0.54-0.83a1.13,1.13,0,0,1,1.88-.07,23.66,23.66,0,0,1,1.3,2c1.23,2,2.46,4,3.66,6a0.76,0.76,0,0,0,1,.39c2.89-.72,5.78-1.41,8.67-2.11a1.23,1.23,0,0,1,1.65,1.63q-0.94,4-1.95,8c-0.32,1.27-.37,1.31.72,2,2.32,1.44,4.66,2.83,7,4.24,1.15,0.7,1.38,1.53.6,2.23a5.56,5.56,0,0,1-.83.54c-2.26,1.38-4.5,2.79-6.79,4.1a1.38,1.38,0,0,0-.75,1.81c0.63,2.45,1.24,4.91,1.83,7.38,0.19,0.76.58,1.62-.14,2.26s-1.47.18-2.21,0c-2.65-.63-5.29-1.29-8-1.9a1,1,0,0,0-.83.41c-1.47,2.33-2.9,4.69-4.33,7-0.14.24-.27,0.48-0.42,0.71a1.21,1.21,0,0,1-2.24,0c-1.1-1.75-2.15-3.53-3.23-5.29-0.5-.82-1-1.63-1.52-2.46a0.75,0.75,0,0,0-1-.39c-2.67.66-5.35,1.3-8,1.94a9.54,9.54,0,0,1-1.05.22A1.16,1.16,0,0,1,33.63,46.91ZM64.42,31A13.5,13.5,0,1,0,50.93,44.54,13.49,13.49,0,0,0,64.42,31Zm7,0L66.7,28.14V33.9ZM30.4,31l4.74,2.88V28.13Zm11-13.3-5-1.19,1.23,5.15Zm19.14,0,3.61,3.93,1.26-5.13ZM41.36,44.32l-3.73-3.9-1.19,5.13Zm24.09,1.23-1.26-5-3.86,3.76Zm-14.53-35L48,15.24h5.78ZM48,46.81l2.89,4.72,2.85-4.72H48Z"/><path class="cls-1" d="M84.08,22.11c0.55,0,1-.05,1.52-0.12l8.09-1.22a5.79,5.79,0,0,1,1.07-.08,1,1,0,0,1,1.1,1.09,1.08,1.08,0,0,1-1,1.23l-9,1.32c-2,.29-3.92.58-5.87,0.94a5.4,5.4,0,0,1-3.76-10c4.07-2.36,8.13-4.75,12.2-7.12a8.62,8.62,0,0,1,.89-0.43,1,1,0,0,1,1.49.42,1.16,1.16,0,0,1-.48,1.64L86.53,12.1l-4.41,2.6c-0.18.11-.33,0.25-0.14,0.14,0.48,0.67.93,1.37,1.47,2a1,1,0,0,0,.81,0Q92.63,13.9,101,10.95c1-.34,1.63-0.14,1.85.6a1.17,1.17,0,0,1-.83,1.54c-5.58,2-11.16,4-16.75,5.9a1.21,1.21,0,0,0-1,1.31A14.68,14.68,0,0,1,84.08,22.11ZM76,19.94A3,3,0,0,0,78.91,23,3.11,3.11,0,0,0,82,20,3,3,0,0,0,76,19.94Z"/><path class="cls-1" d="M44.81,2.48a2.55,2.55,0,0,1-.79.77c-1.86.73-3.75,1.39-5.64,2.07A1,1,0,0,1,37,4.63a1,1,0,0,1,.56-1.45c1.38-.6,2.79-1.14,4.2-1.67a8.52,8.52,0,0,1,1.67-.43A1.21,1.21,0,0,1,44.81,2.48Z"/><path class="cls-1" d="M75.63,49.19a5.43,5.43,0,0,1-.6,1.13c-1.29,1.38-2.6,2.75-3.94,4.09a1.07,1.07,0,0,1-1.67,0,1.18,1.18,0,0,1,.13-1.81c0.75-.72,1.53-1.42,2.25-2.16s1.07-1.34,1.71-1.89a1.58,1.58,0,0,1,1.26-.27A2.63,2.63,0,0,1,75.63,49.19Z"/><path class="cls-1" d="M36.62,56a5.38,5.38,0,0,1,.79.16l5.32,2.22a1.09,1.09,0,0,1,.74,1.23,1.13,1.13,0,0,1-1,1,2,2,0,0,1-1-.2c-1.7-.7-3.4-1.41-5.08-2.16a1.07,1.07,0,0,1-.67-1.42A3,3,0,0,1,36.62,56Z"/><path class="cls-1" d="M60,60.53a1.16,1.16,0,0,1-.52-2.22c1.83-.82,3.66-1.65,5.54-2.37a1.36,1.36,0,0,1,1.26.41,1.49,1.49,0,0,1-.08,1.41A19.76,19.76,0,0,1,60,60.53Z"/><path class="cls-1" d="M28.86,12.48c-1.19,0-1.71-.93-1.18-1.76a7.36,7.36,0,0,1,1.19-1.36c1-1,2.11-1.93,3.21-2.85a1.11,1.11,0,0,1,1.74.05,1.2,1.2,0,0,1-.25,1.8c-1.3,1.18-2.58,2.39-3.88,3.57A5.35,5.35,0,0,1,28.86,12.48Z"/><path class="cls-1" d="M80.77,39.12c-0.28.87-.57,1.93-1,3-0.33.88-.74,1.72-1.15,2.56a1.21,1.21,0,0,1-1.61.74,1.24,1.24,0,0,1-.5-1.75c0.62-1.59,1.2-3.19,1.81-4.78,0.07-.18.15-0.36,0.23-0.53a1.08,1.08,0,0,1,1.35-.67A1.27,1.27,0,0,1,80.77,39.12Z"/><path class="cls-1" d="M24.25,45.85a2.47,2.47,0,0,1-.82-0.76c-0.78-1.84-1.51-3.71-2.2-5.58A1,1,0,0,1,22,38.07a1.06,1.06,0,0,1,1.44.73c0.71,1.81,1.46,3.61,2.17,5.43A1.2,1.2,0,0,1,24.25,45.85Z"/><path class="cls-1" d="M27.72,48.34a7.88,7.88,0,0,1,1.07.74c1.27,1.25,2.51,2.54,3.77,3.8a1.33,1.33,0,0,1,.23,1.77,1.08,1.08,0,0,1-1.68.06q-2.16-2.08-4.18-4.3a1.56,1.56,0,0,1-.15-1.29A2.65,2.65,0,0,1,27.72,48.34Z"/><path class="cls-1" d="M21.6,21.31a11.66,11.66,0,0,1,.45-1.36c0.64-1.4,1.29-2.8,2-4.17a1.25,1.25,0,0,1,1.74-.61,1.24,1.24,0,0,1,.32,1.75Q25,19.34,23.9,21.8a1.22,1.22,0,0,1-1.46.9C21.75,22.56,21.64,22,21.6,21.31Z"/><path class="cls-1" d="M67.71,5.49A1.19,1.19,0,0,1,66,6.76C64.18,5.9,62.34,5,60.56,4.05a1.62,1.62,0,0,1-.38-1.36A0.92,0.92,0,0,1,61.48,2,28.56,28.56,0,0,1,64.39,3.2a19.15,19.15,0,0,1,2.46,1.35A4.37,4.37,0,0,1,67.71,5.49Z"/><path class="cls-1" d="M51,61.94l-2.81-.15A1.12,1.12,0,0,1,47,60.66a1.18,1.18,0,0,1,1.29-1.2l5.61,0a1.09,1.09,0,0,1,1.31,1A1.13,1.13,0,0,1,54,61.76C53,61.85,52,61.88,51,61.94Z"/><path class="cls-1" d="M51.58,0.06c1.28,0.13,2.57.25,3.85,0.41a1.09,1.09,0,0,1,1.1,1.34,1,1,0,0,1-1.26,1q-2.87-.14-5.74-0.29a1.14,1.14,0,0,1-1.14-1.16A1.12,1.12,0,0,1,49.51.16c0.36,0,.71,0,1.07,0h1V0.06Z"/><path class="cls-1" d="M22.41,27.55c0,1.84,0,3.68,0,5.52a1,1,0,0,1-.93,1.15,1.08,1.08,0,0,1-1.4-1c0-2,.08-3.94.19-5.91a1,1,0,0,1,1.23-1.05A1,1,0,0,1,22.41,27.55Z"/><path class="cls-1" d="M71.06,8.15c1.06,0,3.47,2.55,3.34,3.36a1.35,1.35,0,0,1-.63.93,1.36,1.36,0,0,1-1.19-.12,19.42,19.42,0,0,1-2.26-2.39,1.25,1.25,0,0,1-.07-1.12A2.33,2.33,0,0,1,71.06,8.15Z"/><path class="cls-1" d="M79.46,31.36c0-.47,0-0.94,0-1.4a1.21,1.21,0,0,1,1.13-1.29,1.08,1.08,0,0,1,1.18,1.12,21.1,21.1,0,0,1-.05,3.12,1,1,0,0,1-1.24,1,1.16,1.16,0,0,1-1.06-1.26c0-.44,0-0.88,0-1.32h0Z"/></svg>