<svg id="bild" xmlns="http://www.w3.org/2000/svg" width="245" height="125" viewBox="0 0 245 125"><defs><style>.cls-1,.cls-3{fill:none;stroke-miterlimit:10;}.cls-1{stroke:#2a2c33;stroke-width:0.5px;}.cls-2{opacity:0.5;}.cls-3{stroke:#5f6677;stroke-linecap:round;}</style></defs><title>ship_grig</title><line class="cls-1" x1="122.5" y1="1.15" x2="1.91" y2="62.5"/><line class="cls-1" x1="134.56" y1="7.28" x2="13.97" y2="68.64"/><line class="cls-1" x1="146.62" y1="13.42" x2="26.03" y2="74.77"/><line class="cls-1" x1="158.68" y1="19.55" x2="38.09" y2="80.91"/><line class="cls-1" x1="170.74" y1="25.69" x2="50.15" y2="87.04"/><line class="cls-1" x1="182.8" y1="31.82" x2="62.2" y2="93.18"/><line class="cls-1" x1="194.85" y1="37.96" x2="74.26" y2="99.31"/><line class="cls-1" x1="206.91" y1="44.09" x2="86.32" y2="105.45"/><line class="cls-1" x1="218.97" y1="50.23" x2="98.38" y2="111.58"/><line class="cls-1" x1="231.03" y1="56.36" x2="110.44" y2="117.72"/><line class="cls-1" x1="243.09" y1="62.5" x2="122.5" y2="123.85"/><line class="cls-1" x1="1.91" y1="62.5" x2="122.5" y2="123.85"/><line class="cls-1" x1="13.97" y1="56.36" x2="134.56" y2="117.72"/><line class="cls-1" x1="26.03" y1="50.23" x2="146.62" y2="111.58"/><line class="cls-1" x1="38.09" y1="44.09" x2="158.68" y2="105.45"/><line class="cls-1" x1="50.15" y1="37.96" x2="170.74" y2="99.31"/><line class="cls-1" x1="62.2" y1="31.82" x2="182.8" y2="93.18"/><line class="cls-1" x1="74.26" y1="25.69" x2="194.85" y2="87.04"/><line class="cls-1" x1="86.32" y1="19.55" x2="206.91" y2="80.91"/><line class="cls-1" x1="98.38" y1="13.42" x2="218.97" y2="74.77"/><line class="cls-1" x1="110.44" y1="7.28" x2="231.03" y2="68.64"/><line class="cls-1" x1="122.5" y1="1.15" x2="243.09" y2="62.5"/><g class="cls-2"><line class="cls-3" x1="192.44" y1="26.92" x2="52.56" y2="98.08"/><line class="cls-3" x1="52.56" y1="26.92" x2="192.44" y2="98.08"/></g></svg>