<svg version="1.1" id="Слой_1" xmlns="http://www.w3.org/2000/svg" xmlns:xlink="http://www.w3.org/1999/xlink" x="0px" y="0px"
	 width="430px" height="430px" viewBox="0 0 430 430" style="enable-background:new 0 0 430 430;" xml:space="preserve">
<style type="text/css">
	.st0{fill:#34373F;}
	.st1{opacity:0.1;fill:#8990AD;}
	.st2{fill:#9BA3BC;}
	.st3{fill:none;stroke:#8990AD;stroke-miterlimit:10;}
</style>
<g>
	<polygon class="st1" points="215,173.4 220.6,168.9 225,174.6 231.5,171.5 234.3,178.2 241.4,176.7 242.6,183.9 249.8,184.2 
		249.2,191.4 256.2,193.4 253.9,200.2 260.1,203.9 256.3,210 261.5,215 256.3,220 260.1,226.1 253.9,229.8 256.2,236.6 249.2,238.6 
		249.8,245.8 242.6,246.1 241.4,253.3 234.3,251.8 231.5,258.5 225,255.4 220.6,261.1 215,256.6 209.4,261.1 205,255.4 198.5,258.5 
		195.7,251.8 188.6,253.3 187.4,246.1 180.2,245.8 180.8,238.6 173.8,236.6 176.1,229.8 169.9,226.1 173.7,220 168.5,215 173.7,210 
		169.9,203.9 176.1,200.2 173.8,193.4 180.8,191.4 180.2,184.2 187.4,183.9 188.6,176.7 195.7,178.2 198.5,171.5 205,174.6 
		209.4,168.9 	"/>
	<circle class="st2" cx="215" cy="215" r="14.9"/>
	<circle class="st3" cx="215" cy="215" r="19.4"/>
</g>
</svg>
