<svg version="1.1" id="Слой_1" xmlns="http://www.w3.org/2000/svg" xmlns:xlink="http://www.w3.org/1999/xlink" x="0px" y="0px"
	 width="430px" height="430px" viewBox="0 0 430 430" style="enable-background:new 0 0 430 430;" xml:space="preserve">
<style type="text/css">
	.st0{fill:#34373F;}
	.st1{opacity:0.2;fill:#8990AD;}
	.st2{fill:#9BA3BC;}
	.st3{fill:none;stroke:#8990AD;stroke-width:2;stroke-miterlimit:10;}
</style>
<polygon class="st1" points="215.4,154.9 223.4,148.4 229.6,156.6 238.9,152.2 243,161.7 253.1,159.7 254.8,169.8 265.1,170.3 
	264.3,180.5 274.2,183.5 271,193.2 279.9,198.4 274.4,207.2 281.8,214.3 274.4,221.5 279.9,230.2 271,235.4 274.2,245.2 
	264.3,248.1 265.1,258.4 254.8,258.8 253.1,269 243,267 238.9,276.5 229.6,272.1 223.4,280.3 215.4,273.8 207.4,280.3 201.1,272.1 
	191.8,276.5 187.7,267 177.6,269 175.9,258.8 165.6,258.4 166.4,248.1 156.5,245.2 159.8,235.4 150.9,230.2 156.3,221.5 
	148.9,214.3 156.3,207.2 150.9,198.4 159.8,193.2 156.5,183.5 166.4,180.5 165.6,170.3 175.9,169.8 177.6,159.7 187.7,161.7 
	191.8,152.2 201.1,156.6 207.4,148.4 "/>
<circle class="st2" cx="215.4" cy="214.3" r="46.5"/>
<circle class="st3" cx="215.4" cy="214.3" r="52.9"/>
</svg>
