<svg version="1.1" id="Слой_1" xmlns="http://www.w3.org/2000/svg" xmlns:xlink="http://www.w3.org/1999/xlink" x="0px" y="0px"
	 width="430px" height="430px" viewBox="0 0 430 430" style="enable-background:new 0 0 430 430;" xml:space="preserve">
<style type="text/css">
	.st0{fill:#34373F;}
	.st1{opacity:0.2;fill:#8990AD;}
	.st2{fill:#9BA3BC;}
	.st3{fill:#B0B9D1;}
	.st4{fill:none;stroke:#8990AD;stroke-width:3;stroke-miterlimit:10;}
</style>

<polygon class="st1" points="215.1,73.7 225.8,79.1 237.1,75.5 246.8,82.4 258.6,80.6 267.1,89 279,89.1 286,98.7 297.8,100.6 
	303.3,111.2 314.6,114.9 318.3,126.2 328.9,131.7 330.8,143.5 340.4,150.5 340.5,162.4 348.9,170.9 347.1,182.7 354,192.4 
	350.4,203.7 355.7,214.4 350.4,225 354,236.4 347.1,246.1 348.9,257.8 340.5,266.3 340.4,278.2 330.8,285.3 328.9,297 318.3,302.5 
	314.6,313.8 303.3,317.6 297.8,328.1 286,330.1 279,339.7 267.1,339.8 258.6,348.1 246.8,346.3 237.1,353.3 225.8,349.7 215.1,355 
	204.5,349.7 193.1,353.3 183.4,346.3 171.7,348.1 163.2,339.8 151.3,339.7 144.2,330.1 132.5,328.1 127,317.6 115.7,313.8 
	111.9,302.5 101.3,297 99.4,285.3 89.8,278.2 89.7,266.3 81.4,257.8 83.2,246.1 76.2,236.4 79.8,225 74.5,214.4 79.8,203.7 
	76.2,192.4 83.2,182.7 81.4,170.9 89.7,162.4 89.8,150.5 99.4,143.5 101.3,131.7 111.9,126.2 115.7,114.9 127,111.2 132.5,100.6 
	144.2,98.7 151.3,89.1 163.2,89 171.7,80.6 183.4,82.4 193.1,75.5 204.5,79.1 "/>
<circle class="st2" cx="215.4" cy="213.6" r="115.9"/>
<circle class="st3" cx="215.4" cy="213.6" r="111.1"/>
<circle class="st4" cx="215.4" cy="213.6" r="120.7"/>
</svg>
